<?xml version="1.0" encoding="UTF-8"?>
<svg xmlns="http://www.w3.org/2000/svg" xmlns:xlink="http://www.w3.org/1999/xlink" width="499pt" height="439pt" viewBox="0 0 499 439" version="1.1">
<g id="surface1">
<path style=" stroke:none;fill-rule:nonzero;fill:rgb(100%,100%,100%);fill-opacity:1;" d="M 249.550781 0.292969 C 244.015625 0.292969 238.484375 2.410156 234.261719 6.636719 C 232.875 8.019531 231.722656 9.550781 230.792969 11.171875 L 219.566406 30.464844 L 219.515625 30.464844 L 3.667969 405.179688 C 3.628906 405.25 3.597656 405.320312 3.558594 405.394531 C 2.464844 407.15625 1.601562 409.113281 1.03125 411.230469 C -2.054688 422.777344 4.789062 434.648438 16.320312 437.742188 C 18.226562 438.257812 20.140625 438.488281 22.015625 438.480469 L 477.183594 438.480469 C 489.121094 438.480469 498.796875 428.789062 498.796875 416.828125 C 498.796875 412.921875 497.753906 409.246094 495.941406 406.078125 C 495.925781 406.050781 495.910156 406.03125 495.902344 406.003906 L 271.757812 16.265625 C 268.910156 11.351562 267.597656 9.402344 264.832031 6.636719 C 260.613281 2.410156 255.082031 0.292969 249.550781 0.292969 Z M 249.550781 0.292969 "/>
<path style=" stroke:none;fill-rule:nonzero;fill:rgb(75.686275%,7.058824%,10.980392%);fill-opacity:1;" d="M 249.550781 5.71875 C 244.300781 5.683594 238.539062 8.371094 235.71875 13.386719 L 7.945312 408.648438 C 6.632812 411.339844 6.082031 413.679688 6.0625 416.355469 C 6.0625 421.148438 8.179688 425.695312 11.84375 428.78125 C 15.074219 431.28125 18.128906 432.582031 22.242188 432.582031 L 477.28125 432.582031 C 480.058594 432.609375 482.835938 431.941406 485.367188 430.273438 C 490.113281 427.398438 493.027344 422.246094 493.03125 416.683594 C 492.898438 413.808594 492.1875 410.78125 490.910156 408.648438 L 263.273438 13.328125 C 263.25 13.292969 263.230469 13.257812 263.203125 13.222656 C 263.183594 13.191406 263.160156 13.160156 263.136719 13.117188 C 262.332031 11.820312 261.316406 10.679688 260.160156 9.699219 C 257.519531 7.40625 254.210938 6.03125 250.71875 5.785156 C 250.328125 5.746094 249.9375 5.722656 249.550781 5.71875 Z M 22.242188 432.582031 L 21.121094 432.582031 L 22.265625 432.582031 Z M 249.3125 84.0625 L 422.890625 385.378906 L 75.492188 385.378906 Z M 249.3125 84.0625 "/>
<path style=" stroke:none;fill-rule:nonzero;fill:rgb(0%,0%,0%);fill-opacity:1;" d="M 249.550781 0 C 243.941406 0 238.332031 2.144531 234.054688 6.433594 C 232.652344 7.832031 231.484375 9.386719 230.539062 11.027344 L 219.398438 30.171875 L 219.34375 30.171875 L 3.417969 405.03125 C 3.367188 405.117188 3.332031 405.191406 3.296875 405.253906 C 2.1875 407.039062 1.324219 409.015625 0.75 411.152344 C -2.378906 422.855469 4.558594 434.890625 16.246094 438.027344 C 18.175781 438.546875 20.117188 438.785156 22.015625 438.777344 L 477.183594 438.777344 C 489.277344 438.777344 499.089844 428.945312 499.089844 416.828125 C 499.089844 412.863281 498.03125 409.148438 496.195312 405.933594 C 496.183594 405.921875 496.175781 405.894531 496.160156 405.859375 L 272.019531 16.121094 C 269.167969 11.203125 267.824219 9.214844 265.042969 6.433594 C 260.765625 2.144531 255.15625 0 249.550781 0 Z M 249.550781 0.292969 C 255.082031 0.292969 260.613281 2.410156 264.832031 6.636719 C 267.597656 9.402344 268.910156 11.351562 271.757812 16.265625 L 495.902344 406.003906 C 495.910156 406.03125 495.925781 406.050781 495.941406 406.078125 C 497.753906 409.246094 498.796875 412.921875 498.796875 416.828125 C 498.796875 428.789062 489.121094 438.480469 477.183594 438.480469 L 22.015625 438.480469 C 20.140625 438.488281 18.226562 438.257812 16.320312 437.742188 C 4.789062 434.648438 -2.054688 422.777344 1.03125 411.230469 C 1.597656 409.113281 2.464844 407.15625 3.558594 405.394531 C 3.597656 405.320312 3.628906 405.25 3.667969 405.179688 L 219.515625 30.464844 L 219.566406 30.464844 L 230.792969 11.171875 C 231.722656 9.550781 232.875 8.019531 234.261719 6.636719 C 238.484375 2.410156 244.011719 0.292969 249.550781 0.292969 Z M 249.550781 0.292969 "/>
<path style=" stroke:none;fill-rule:evenodd;fill:rgb(0%,0%,0%);fill-opacity:1;" d="M 239.136719 268.5 L 278.539062 279.089844 C 278.671875 279.132812 278.804688 279.148438 278.921875 279.148438 C 279.75 279.148438 280.402344 278.480469 280.402344 277.652344 C 280.402344 277.398438 280.34375 277.148438 280.207031 276.910156 L 270.0625 259.292969 C 269.664062 258.609375 269.011719 258.121094 268.257812 257.910156 L 243.734375 251.3125 L 239.136719 268.5 L 234.847656 267.359375 L 239.445312 250.171875 L 219.199219 244.726562 C 218.949219 244.652344 218.699219 244.625 218.429688 244.625 C 217.925781 244.625 217.410156 244.769531 216.964844 245.023438 L 202.472656 253.417969 C 201.554688 253.9375 200.992188 254.914062 200.992188 255.96875 C 200.992188 257.320312 201.894531 258.503906 203.179688 258.847656 L 234.847656 267.359375 Z M 311.578125 312.53125 C 311.902344 311.269531 312.082031 309.980469 312.082031 308.6875 C 312.082031 300.503906 305.457031 293.859375 297.292969 293.859375 C 290.609375 293.859375 284.75 298.367188 283.003906 304.847656 L 210.164062 285.273438 C 210.503906 284.027344 210.664062 282.738281 210.664062 281.449219 C 210.664062 273.246094 204.039062 266.617188 195.875 266.617188 C 189.1875 266.617188 183.316406 271.125 181.589844 277.609375 L 175.878906 276.0625 C 174.59375 275.722656 173.6875 274.535156 173.6875 273.203125 C 173.6875 272.949219 173.71875 272.683594 173.792969 272.429688 L 178.777344 253.761719 C 179.015625 252.898438 179.621094 252.171875 180.449219 251.816406 L 212.882812 237.566406 C 213.269531 237.402344 213.667969 237.3125 214.066406 237.3125 C 214.332031 237.3125 214.585938 237.339844 214.835938 237.414062 L 269.796875 252.171875 C 270.550781 252.378906 271.203125 252.882812 271.585938 253.550781 L 285.621094 277.917969 L 324.269531 295.550781 C 325.335938 296.042969 326 297.09375 326 298.25 C 326 298.515625 325.972656 298.769531 325.894531 299.019531 L 322.347656 312.339844 C 322.007812 313.644531 320.824219 314.550781 319.476562 314.550781 C 319.222656 314.550781 318.976562 314.519531 318.722656 314.445312 Z M 184.441406 278.378906 C 185.832031 273.1875 190.519531 269.582031 195.875 269.582031 C 202.414062 269.582031 207.707031 274.894531 207.707031 281.449219 C 207.707031 287.988281 202.414062 293.296875 195.875 293.296875 C 189.339844 293.296875 184.042969 287.988281 184.042969 281.449219 C 184.042969 280.40625 184.191406 279.371094 184.441406 278.378906 M 285.859375 305.621094 C 287.25 300.429688 291.9375 296.828125 297.292969 296.828125 C 303.828125 296.828125 309.125 302.132812 309.125 308.6875 C 309.125 315.246094 303.828125 320.554688 297.292969 320.554688 C 290.769531 320.554688 285.457031 315.246094 285.457031 308.6875 C 285.457031 307.652344 285.609375 306.613281 285.859375 305.621094 M 195.875 357.511719 L 195.875 348.167969 L 198.746094 346.96875 C 201.777344 345.707031 205.015625 345.054688 208.296875 345.054688 C 211.582031 345.054688 214.824219 345.707031 217.855469 346.96875 L 223.59375 349.355469 C 226.609375 350.628906 229.863281 351.285156 233.148438 351.285156 C 236.414062 351.285156 239.667969 350.628906 242.699219 349.355469 L 248.425781 346.96875 C 251.457031 345.707031 254.710938 345.054688 257.996094 345.054688 C 261.261719 345.054688 264.515625 345.707031 267.550781 346.96875 L 273.273438 349.355469 C 276.304688 350.628906 279.558594 351.285156 282.828125 351.285156 C 286.113281 351.285156 289.367188 350.628906 292.382812 349.355469 L 298.121094 346.96875 C 301.152344 345.707031 304.40625 345.054688 307.675781 345.054688 C 310.957031 345.054688 314.195312 345.707031 317.230469 346.96875 L 322.96875 349.355469 C 325.984375 350.628906 329.238281 351.285156 332.523438 351.285156 C 335.804688 351.285156 339.046875 350.628906 342.078125 349.355469 L 347.816406 346.96875 C 350.832031 345.707031 354.074219 345.054688 357.367188 345.054688 C 360.640625 345.054688 363.894531 345.707031 366.910156 346.96875 L 372.648438 349.355469 C 375.683594 350.628906 378.921875 351.285156 382.203125 351.285156 C 385.484375 351.285156 388.742188 350.628906 391.757812 349.355469 L 394.847656 348.066406 L 399.226562 355.65625 C 398.648438 355.863281 398.058594 356.070312 397.496094 356.3125 L 391.757812 358.714844 C 388.742188 359.972656 385.484375 360.628906 382.203125 360.628906 C 378.921875 360.628906 375.683594 359.972656 372.648438 358.714844 L 366.910156 356.3125 C 363.894531 355.050781 360.640625 354.398438 357.367188 354.398438 C 354.074219 354.398438 350.832031 355.050781 347.816406 356.3125 L 342.078125 358.714844 C 339.046875 359.972656 335.804688 360.628906 332.523438 360.628906 C 329.238281 360.628906 325.984375 359.972656 322.96875 358.714844 L 317.230469 356.3125 C 314.195312 355.050781 310.957031 354.398438 307.675781 354.398438 C 304.40625 354.398438 301.152344 355.050781 298.121094 356.3125 L 292.382812 358.714844 C 289.367188 359.972656 286.113281 360.628906 282.828125 360.628906 C 279.558594 360.628906 276.304688 359.972656 273.273438 358.714844 L 267.550781 356.3125 C 264.515625 355.050781 261.261719 354.398438 257.996094 354.398438 C 254.710938 354.398438 251.457031 355.050781 248.425781 356.3125 L 242.699219 358.714844 C 239.667969 359.972656 236.414062 360.628906 233.148438 360.628906 C 229.863281 360.628906 226.609375 359.972656 223.59375 358.714844 L 217.855469 356.3125 C 214.824219 355.050781 211.582031 354.398438 208.296875 354.398438 C 205.015625 354.398438 201.777344 355.050781 198.746094 356.3125 Z M 195.875 376.183594 L 195.875 366.855469 L 198.746094 365.652344 C 201.777344 364.394531 205.015625 363.738281 208.296875 363.738281 C 211.582031 363.738281 214.824219 364.394531 217.855469 365.652344 L 223.59375 368.039062 C 226.609375 369.316406 229.863281 369.96875 233.148438 369.96875 C 236.414062 369.96875 239.667969 369.316406 242.699219 368.039062 L 248.425781 365.652344 C 251.457031 364.394531 254.710938 363.738281 257.996094 363.738281 C 261.261719 363.738281 264.515625 364.394531 267.550781 365.652344 L 273.273438 368.039062 C 276.304688 369.316406 279.558594 369.96875 282.828125 369.96875 C 286.113281 369.96875 289.367188 369.316406 292.382812 368.039062 L 298.121094 365.652344 C 301.152344 364.394531 304.40625 363.738281 307.675781 363.738281 C 310.957031 363.738281 314.195312 364.394531 317.230469 365.652344 L 322.96875 368.039062 C 325.984375 369.316406 329.238281 369.96875 332.523438 369.96875 C 335.804688 369.96875 339.046875 369.316406 342.078125 368.039062 L 347.816406 365.652344 C 350.832031 364.394531 354.074219 363.738281 357.367188 363.738281 C 360.640625 363.738281 363.894531 364.394531 366.910156 365.652344 L 372.648438 368.039062 C 375.683594 369.316406 378.921875 369.96875 382.203125 369.96875 C 385.484375 369.96875 388.742188 369.316406 391.757812 368.039062 L 397.496094 365.652344 C 399.566406 364.777344 401.757812 364.199219 403.988281 363.933594 L 409.3125 373.1875 C 408.558594 373.113281 407.804688 373.066406 407.050781 373.066406 C 403.765625 373.066406 400.511719 373.738281 397.496094 374.996094 L 391.757812 377.382812 C 388.742188 378.644531 385.484375 379.3125 382.203125 379.3125 C 378.921875 379.3125 375.683594 378.644531 372.648438 377.382812 L 366.910156 374.996094 C 363.894531 373.738281 360.640625 373.066406 357.367188 373.066406 C 354.074219 373.066406 350.832031 373.738281 347.816406 374.996094 L 342.078125 377.382812 C 339.046875 378.644531 335.804688 379.3125 332.523438 379.3125 C 329.238281 379.3125 325.984375 378.644531 322.96875 377.382812 L 317.230469 374.996094 C 314.195312 373.738281 310.957031 373.066406 307.675781 373.066406 C 304.40625 373.066406 301.152344 373.738281 298.121094 374.996094 L 292.382812 377.382812 C 289.367188 378.644531 286.113281 379.3125 282.828125 379.3125 C 279.558594 379.3125 276.304688 378.644531 273.273438 377.382812 L 267.550781 374.996094 C 264.515625 373.738281 261.261719 373.066406 257.996094 373.066406 C 254.710938 373.066406 251.457031 373.738281 248.425781 374.996094 L 242.699219 377.382812 C 239.667969 378.644531 236.414062 379.3125 233.148438 379.3125 C 229.863281 379.3125 226.609375 378.644531 223.59375 377.382812 L 217.855469 374.996094 C 214.824219 373.738281 211.582031 373.066406 208.296875 373.066406 C 205.015625 373.066406 201.777344 373.738281 198.746094 374.996094 Z M 85.390625 379.3125 L 131.496094 299.246094 L 189.960938 299.246094 L 189.960938 379.3125 Z M 85.390625 379.3125 "/>
</g>
</svg>
