<?xml version="1.0" encoding="UTF-8"?>
<svg xmlns="http://www.w3.org/2000/svg" xmlns:xlink="http://www.w3.org/1999/xlink" width="499pt" height="439pt" viewBox="0 0 499 439" version="1.1">
<g id="surface1">
<path style=" stroke:none;fill-rule:nonzero;fill:rgb(100%,100%,100%);fill-opacity:1;" d="M 249.542969 0.292969 C 255.074219 0.292969 260.609375 2.410156 264.832031 6.636719 C 266.214844 8.019531 267.367188 9.550781 268.296875 11.171875 L 279.523438 30.464844 L 279.578125 30.464844 L 495.421875 405.179688 C 495.464844 405.25 495.496094 405.320312 495.535156 405.394531 C 496.632812 407.160156 497.492188 409.113281 498.058594 411.226562 C 501.148438 422.777344 494.304688 434.648438 482.769531 437.742188 C 480.867188 438.257812 478.953125 438.488281 477.074219 438.480469 L 21.914062 438.480469 C 9.972656 438.480469 0.296875 428.789062 0.296875 416.828125 C 0.296875 412.917969 1.335938 409.246094 3.152344 406.078125 C 3.167969 406.054688 3.179688 406.03125 3.191406 406.003906 L 227.332031 16.265625 C 230.179688 11.351562 231.496094 9.402344 234.257812 6.636719 C 238.480469 2.410156 244.011719 0.292969 249.542969 0.292969 Z M 249.542969 0.292969 "/>
<path style=" stroke:none;fill-rule:nonzero;fill:rgb(75.686275%,7.058824%,10.980392%);fill-opacity:1;" d="M 249.542969 5.71875 C 254.789062 5.679688 260.554688 8.367188 263.375 13.394531 L 491.144531 408.648438 C 492.460938 411.339844 493.011719 413.679688 493.027344 416.355469 C 493.027344 421.148438 490.910156 425.695312 487.25 428.777344 C 484.023438 431.28125 480.964844 432.582031 476.851562 432.582031 L 21.8125 432.582031 C 19.035156 432.609375 16.253906 431.941406 13.726562 430.273438 C 8.976562 427.398438 6.066406 422.246094 6.0625 416.683594 C 6.195312 413.808594 6.902344 410.78125 8.179688 408.648438 L 235.820312 13.328125 C 235.839844 13.292969 235.863281 13.257812 235.886719 13.226562 C 235.910156 13.191406 235.929688 13.15625 235.953125 13.117188 C 236.761719 11.824219 237.777344 10.679688 238.929688 9.699219 C 241.574219 7.40625 244.882812 6.03125 248.375 5.78125 C 248.765625 5.746094 249.15625 5.722656 249.542969 5.71875 Z M 476.851562 432.582031 L 477.972656 432.582031 L 476.828125 432.582031 Z M 249.78125 84.058594 L 76.203125 385.378906 L 423.601562 385.378906 Z M 249.78125 84.058594 "/>
<path style=" stroke:none;fill-rule:nonzero;fill:rgb(0%,0%,0%);fill-opacity:1;" d="M 249.542969 0 C 255.152344 0 260.761719 2.144531 265.035156 6.429688 C 266.441406 7.832031 267.609375 9.382812 268.550781 11.027344 L 279.695312 30.171875 L 279.746094 30.171875 L 495.675781 405.03125 C 495.722656 405.117188 495.757812 405.191406 495.792969 405.253906 C 496.902344 407.039062 497.769531 409.015625 498.34375 411.148438 C 501.472656 422.855469 494.535156 434.890625 482.847656 438.027344 C 480.917969 438.546875 478.976562 438.785156 477.074219 438.777344 L 21.914062 438.777344 C 9.816406 438.777344 0 428.945312 0 416.828125 C 0 412.863281 1.058594 409.144531 2.898438 405.933594 C 2.90625 405.917969 2.917969 405.894531 2.933594 405.859375 L 227.074219 16.121094 C 229.925781 11.203125 231.269531 9.214844 234.046875 6.429688 C 238.324219 2.144531 243.933594 0 249.539062 0 Z M 249.542969 0.292969 C 244.011719 0.292969 238.480469 2.410156 234.257812 6.636719 C 231.496094 9.402344 230.179688 11.351562 227.332031 16.265625 L 3.191406 406.003906 C 3.179688 406.03125 3.167969 406.054688 3.152344 406.078125 C 1.335938 409.246094 0.296875 412.917969 0.296875 416.828125 C 0.296875 428.789062 9.972656 438.480469 21.914062 438.480469 L 477.074219 438.480469 C 478.953125 438.488281 480.867188 438.257812 482.769531 437.742188 C 494.304688 434.648438 501.148438 422.777344 498.058594 411.226562 C 497.492188 409.113281 496.632812 407.160156 495.535156 405.394531 C 495.496094 405.320312 495.464844 405.25 495.421875 405.179688 L 279.578125 30.464844 L 279.523438 30.464844 L 268.296875 11.171875 C 267.367188 9.550781 266.214844 8.019531 264.832031 6.636719 C 260.609375 2.410156 255.078125 0.292969 249.542969 0.292969 Z M 249.542969 0.292969 "/>
<path style=" stroke:none;fill-rule:evenodd;fill:rgb(0%,0%,0%);fill-opacity:1;" d="M 193.222656 241.332031 L 185.378906 255.925781 L 185.378906 263.386719 L 177.765625 263.386719 L 177.765625 278.410156 L 185.378906 278.410156 L 185.378906 334.898438 L 177.933594 334.898438 L 177.933594 349.925781 L 185.378906 349.925781 L 185.378906 356.746094 L 200.339844 356.746094 L 200.339844 349.925781 L 214.167969 349.925781 L 214.167969 356.746094 L 229.128906 356.746094 L 229.128906 349.925781 L 242.25 349.925781 L 242.25 356.746094 L 257.210938 356.746094 L 257.210938 349.925781 L 271.304688 349.925781 L 271.304688 356.746094 L 286.246094 356.746094 L 286.246094 349.925781 L 299.496094 349.925781 L 299.496094 356.746094 L 314.433594 356.746094 L 314.433594 349.925781 L 321.328125 349.925781 L 321.328125 334.898438 L 314.433594 334.898438 L 314.433594 278.410156 L 321.164062 278.410156 L 321.164062 263.386719 L 314.433594 263.386719 L 314.433594 256.113281 L 307.335938 241.332031 L 299.496094 255.925781 L 299.496094 263.386719 L 286.246094 263.386719 L 286.246094 256.113281 L 279.148438 241.332031 L 271.304688 255.925781 L 271.304688 263.386719 L 257.210938 263.386719 L 257.210938 256.113281 L 250.09375 241.332031 L 242.25 255.925781 L 242.25 263.386719 L 229.128906 263.386719 L 229.128906 256.113281 L 222.007812 241.332031 L 214.167969 255.925781 L 214.167969 263.386719 L 200.339844 263.386719 L 200.339844 256.113281 Z M 200.339844 278.410156 L 214.167969 278.410156 L 214.167969 334.898438 L 200.339844 334.898438 Z M 229.128906 278.410156 L 242.25 278.410156 L 242.25 334.898438 L 229.128906 334.898438 Z M 257.210938 278.410156 L 271.304688 278.410156 L 271.304688 334.898438 L 257.210938 334.898438 Z M 286.246094 278.410156 L 299.496094 278.410156 L 299.496094 334.898438 L 286.246094 334.898438 Z M 286.246094 278.410156 "/>
</g>
</svg>
