<?xml version="1.0" encoding="UTF-8"?>
<svg xmlns="http://www.w3.org/2000/svg" xmlns:xlink="http://www.w3.org/1999/xlink" width="241pt" height="500pt" viewBox="0 0 241 500" version="1.1">
<g id="surface1">
<path style=" stroke:none;fill-rule:nonzero;fill:rgb(100%,100%,100%);fill-opacity:1;" d="M 120.519531 0.140625 C 123.191406 0.140625 125.867188 1.160156 127.902344 3.199219 C 128.570312 3.867188 129.128906 4.605469 129.578125 5.386719 L 135 14.683594 L 135.027344 14.683594 L 239.273438 195.300781 C 239.292969 195.335938 239.308594 195.371094 239.328125 195.40625 C 239.855469 196.257812 240.269531 197.199219 240.542969 198.21875 C 242.039062 203.785156 238.730469 209.507812 233.160156 211 C 232.242188 211.246094 231.320312 211.359375 230.410156 211.355469 L 10.582031 211.355469 C 4.816406 211.355469 0.144531 206.683594 0.144531 200.917969 C 0.144531 199.03125 0.644531 197.261719 1.523438 195.734375 C 1.53125 195.722656 1.535156 195.710938 1.539062 195.699219 L 109.792969 7.839844 C 111.167969 5.472656 111.804688 4.53125 113.140625 3.199219 C 115.179688 1.160156 117.847656 0.140625 120.519531 0.140625 Z M 120.519531 0.140625 "/>
<path style=" stroke:none;fill-rule:nonzero;fill:rgb(75.686275%,7.058824%,10.980392%);fill-opacity:1;" d="M 120.519531 2.757812 C 123.054688 2.738281 125.839844 4.03125 127.199219 6.457031 L 237.207031 196.976562 C 237.839844 198.273438 238.109375 199.398438 238.117188 200.691406 C 238.117188 203 237.09375 205.191406 235.324219 206.675781 C 233.765625 207.882812 232.289062 208.511719 230.300781 208.511719 L 10.535156 208.511719 C 9.191406 208.523438 7.847656 208.203125 6.628906 207.398438 C 4.335938 206.011719 2.929688 203.527344 2.925781 200.847656 C 2.992188 199.460938 3.335938 198.003906 3.949219 196.976562 L 113.894531 6.425781 C 113.902344 6.40625 113.914062 6.390625 113.925781 6.375 C 113.9375 6.359375 113.945312 6.339844 113.957031 6.324219 C 114.347656 5.699219 114.835938 5.148438 115.394531 4.675781 C 116.671875 3.570312 118.269531 2.90625 119.957031 2.785156 C 120.144531 2.769531 120.332031 2.757812 120.519531 2.757812 Z M 230.300781 208.511719 L 230.84375 208.511719 L 230.292969 208.511719 Z M 120.636719 40.515625 L 36.804688 185.757812 L 204.585938 185.757812 Z M 120.636719 40.515625 "/>
<path style=" stroke:none;fill-rule:nonzero;fill:rgb(0%,0%,0%);fill-opacity:1;" d="M 120.519531 0 C 123.230469 0 125.9375 1.03125 128.003906 3.097656 C 128.683594 3.773438 129.246094 4.523438 129.703125 5.316406 L 135.082031 14.542969 L 135.109375 14.542969 L 239.394531 195.230469 C 239.417969 195.273438 239.433594 195.308594 239.453125 195.335938 C 239.988281 196.199219 240.40625 197.152344 240.683594 198.179688 C 242.195312 203.824219 238.84375 209.625 233.199219 211.136719 C 232.265625 211.386719 231.328125 211.5 230.410156 211.496094 L 10.582031 211.496094 C 4.742188 211.496094 0 206.757812 0 200.917969 C 0 199.007812 0.511719 197.214844 1.398438 195.664062 C 1.402344 195.660156 1.410156 195.648438 1.417969 195.628906 L 109.667969 7.769531 C 111.046875 5.398438 111.695312 4.441406 113.035156 3.097656 C 115.101562 1.03125 117.8125 0 120.519531 0 Z M 120.519531 0.140625 C 117.847656 0.140625 115.179688 1.160156 113.140625 3.199219 C 111.804688 4.53125 111.167969 5.472656 109.792969 7.839844 L 1.542969 195.699219 C 1.535156 195.710938 1.53125 195.722656 1.523438 195.734375 C 0.644531 197.261719 0.144531 199.03125 0.144531 200.917969 C 0.144531 206.683594 4.816406 211.355469 10.582031 211.355469 L 230.410156 211.355469 C 231.320312 211.359375 232.242188 211.246094 233.160156 211 C 238.730469 209.507812 242.039062 203.785156 240.542969 198.21875 C 240.273438 197.199219 239.855469 196.257812 239.328125 195.40625 C 239.308594 195.371094 239.292969 195.335938 239.273438 195.300781 L 135.027344 14.683594 L 135 14.683594 L 129.578125 5.386719 C 129.128906 4.605469 128.570312 3.867188 127.902344 3.199219 C 125.867188 1.160156 123.195312 0.140625 120.519531 0.140625 Z M 120.519531 0.140625 "/>
<path style=" stroke:none;fill-rule:nonzero;fill:rgb(0%,0%,0%);fill-opacity:1;" d="M 93.527344 168.417969 C 87.15625 168.417969 81.992188 163.246094 81.992188 156.882812 L 81.992188 156.746094 L 82.214844 137.902344 C 82.226562 136.96875 82.324219 136.050781 82.503906 135.140625 L 83.683594 129.097656 C 83.871094 128.144531 84.144531 127.207031 84.511719 126.316406 L 90.113281 112.390625 C 90.699219 110.933594 92.105469 109.980469 93.679688 109.980469 L 110.539062 109.980469 C 109.507812 106.050781 106.308594 103.0625 102.316406 102.292969 L 97.238281 102.292969 C 96.59375 102.292969 96.082031 101.773438 96.082031 101.132812 C 96.082031 100.503906 96.59375 99.984375 97.238281 99.984375 L 128.003906 99.984375 C 128.640625 99.984375 129.160156 100.503906 129.160156 101.132812 C 129.160156 101.773438 128.640625 102.292969 128.003906 102.292969 L 122.917969 102.292969 C 118.925781 103.0625 115.734375 106.050781 114.695312 109.980469 L 124.15625 109.980469 C 127.910156 109.980469 131.320312 112.160156 132.886719 115.566406 L 134.710938 119.511719 C 143.125 137.742188 160.425781 150.292969 180.375 152.632812 L 180.664062 152.664062 C 181.34375 152.746094 181.855469 153.324219 181.855469 154 L 181.855469 166.496094 C 181.855469 167.558594 180.988281 168.417969 179.929688 168.417969 Z M 81.847656 179.957031 L 81.847656 174.1875 L 89.542969 174.1875 L 89.542969 170.335938 L 101.078125 170.335938 L 101.078125 174.1875 L 118.386719 174.1875 L 118.386719 170.335938 L 181.855469 170.335938 L 181.855469 174.1875 C 161.203125 174.1875 142.519531 176.449219 134.261719 179.957031 "/>
<path style=" stroke:none;fill-rule:nonzero;fill:rgb(100%,100%,100%);fill-opacity:1;" d="M 107.9375 102.292969 C 110.164062 103.921875 111.804688 106.226562 112.621094 108.855469 C 113.4375 106.226562 115.074219 103.921875 117.300781 102.292969 Z M 176.851562 154.164062 C 177.875 154.324219 178.894531 154.457031 179.929688 154.566406 L 179.929688 161.429688 C 178.902344 161.359375 177.875 161.269531 176.851562 161.175781 Z M 171.082031 153.015625 C 172.351562 153.328125 173.640625 153.601562 174.933594 153.835938 L 174.933594 160.96875 C 173.644531 160.820312 172.363281 160.648438 171.082031 160.449219 Z M 164.15625 150.917969 C 165.675781 151.472656 167.214844 151.96875 168.773438 152.414062 L 168.773438 160.066406 C 167.226562 159.785156 165.6875 159.476562 164.15625 159.132812 Z M 156.078125 147.34375 C 157.832031 148.265625 159.628906 149.109375 161.46875 149.871094 L 161.46875 158.488281 C 159.648438 158.023438 157.855469 157.511719 156.078125 156.949219 Z M 146.851562 141.429688 C 148.8125 142.9375 150.867188 144.332031 153.003906 145.613281 L 153.003906 155.917969 C 150.910156 155.171875 148.855469 154.367188 146.851562 153.496094 Z M 136.460938 131.285156 C 138.558594 133.878906 140.871094 136.320312 143.386719 138.558594 L 143.386719 151.902344 C 141.316406 150.890625 139.292969 149.808594 137.335938 148.667969 Z M 91.378906 116.003906 C 91.738281 115.144531 92.574219 114.589844 93.503906 114.589844 L 123.273438 114.589844 C 124.207031 114.589844 125.042969 115.144531 125.398438 116.003906 L 129.863281 126.769531 C 130.355469 127.941406 129.800781 129.296875 128.628906 129.789062 C 128.347656 129.910156 128.042969 129.976562 127.734375 129.976562 L 89.042969 129.976562 C 87.765625 129.976562 86.738281 128.9375 86.738281 127.667969 C 86.738281 127.355469 86.796875 127.054688 86.917969 126.769531 Z M 126.085938 149.195312 C 126.085938 151.316406 124.359375 153.039062 122.234375 153.039062 C 120.109375 153.039062 118.390625 151.316406 118.390625 149.195312 C 118.390625 147.070312 120.109375 145.351562 122.234375 145.351562 C 124.359375 145.351562 126.085938 147.070312 126.085938 149.195312 Z M 95.3125 149.195312 C 95.3125 151.316406 93.585938 153.039062 91.464844 153.039062 C 89.339844 153.039062 87.621094 151.316406 87.621094 149.195312 C 87.621094 147.070312 89.339844 145.351562 91.464844 145.351562 C 93.585938 145.351562 95.3125 147.070312 95.3125 149.195312 "/>
<path style=" stroke:none;fill-rule:nonzero;fill:rgb(100%,100%,100%);fill-opacity:1;" d="M 89.226562 499.898438 C 82.941406 499.898438 77.839844 494.808594 77.839844 488.519531 L 77.839844 226.859375 C 77.839844 220.570312 82.941406 215.484375 89.226562 215.484375 L 151.824219 215.484375 C 158.109375 215.484375 163.207031 220.570312 163.207031 226.859375 L 163.207031 488.519531 C 163.207031 494.808594 158.109375 499.898438 151.824219 499.898438 "/>
<path style=" stroke:none;fill-rule:nonzero;fill:rgb(0%,0%,0%);fill-opacity:1;" d="M 89.226562 215.335938 C 82.871094 215.335938 77.699219 220.503906 77.699219 226.859375 L 77.699219 488.519531 C 77.699219 494.871094 82.871094 500.035156 89.226562 500.035156 L 151.824219 500.035156 C 158.175781 500.035156 163.34375 494.871094 163.34375 488.519531 L 163.34375 226.859375 C 163.34375 220.503906 158.175781 215.335938 151.824219 215.335938 Z M 89.226562 215.484375 L 151.824219 215.484375 C 158.109375 215.484375 163.207031 220.570312 163.207031 226.859375 L 163.207031 488.519531 C 163.207031 494.808594 158.109375 499.898438 151.824219 499.898438 L 89.226562 499.898438 C 82.941406 499.898438 77.839844 494.808594 77.839844 488.519531 L 77.839844 226.859375 C 77.839844 220.570312 82.941406 215.484375 89.226562 215.484375 Z M 89.226562 215.484375 "/>
<path style=" stroke:none;fill-rule:nonzero;fill:rgb(0%,0%,0%);fill-opacity:1;" d="M 156.09375 488.519531 C 156.09375 490.871094 154.183594 492.785156 151.824219 492.785156 L 89.226562 492.785156 C 86.867188 492.785156 84.960938 490.871094 84.960938 488.519531 L 84.960938 226.859375 C 84.960938 224.5 86.867188 222.589844 89.226562 222.589844 L 151.824219 222.589844 C 154.183594 222.589844 156.09375 224.5 156.09375 226.859375 Z M 151.824219 218.324219 L 89.226562 218.324219 C 84.515625 218.324219 80.6875 222.144531 80.6875 226.859375 L 80.6875 488.519531 C 80.6875 493.230469 84.515625 497.046875 89.226562 497.046875 L 151.824219 497.046875 C 156.539062 497.046875 160.355469 493.230469 160.355469 488.519531 L 160.355469 226.859375 C 160.355469 222.144531 156.539062 218.324219 151.824219 218.324219 "/>
<path style=" stroke:none;fill-rule:nonzero;fill:rgb(75.686275%,7.058824%,10.980392%);fill-opacity:1;" d="M 84.960938 357.503906 L 84.960938 327.636719 L 156.09375 286.582031 L 156.09375 316.449219 Z M 84.960938 420.070312 L 84.960938 390.207031 L 156.09375 349.160156 L 156.09375 379.019531 Z M 84.960938 482.644531 L 84.960938 452.78125 L 156.09375 411.722656 L 156.09375 441.59375 "/>
</g>
</svg>
