<svg version="1.1" id="Layer_1" xmlns="http://www.w3.org/2000/svg" x="0" y="0" viewBox="0 0 240.4 238.6" xml:space="preserve"><style>.st1{fill:#c30f0f}.st2{fill:#333}</style><g id="XMLID_6681_"><circle id="XMLID_6714_" cx="120.9" cy="120.1" r="116.3" fill="#fff"/><path id="XMLID_6696_" class="st1" d="M10.3 120.1c0 61.1 49.5 110.6 110.6 110.6s110.6-49.5 110.6-110.6S182 9.5 120.9 9.5 10.3 59 10.3 120.1zm190.6 0c0 44.2-35.9 80.1-80.1 80.1s-80.1-35.9-80.1-80.1S76.6 40 120.8 40c44.3.1 80.1 35.9 80.1 80.1z"/><g id="XMLID_6710_"><path id="XMLID_6711_" class="st2" d="M93.8 120.4v35.7L83 174.9l-13.1-17.4v-51.2z"/><path id="XMLID_6712_" class="st2" d="M74.1 83.2s11.8-30.1 44.7-30.1 45.6 30.1 46.1 44.7 0 77.1 0 77.1l-11.8-18.3-10.8 18.3V98.3s-5.9-21.6-22.7-21.6-23.4 11.2-23.4 17.8L74.1 83.2z"/><path id="XMLID_6713_" class="st1" d="M29 83.2l113.3 64.9v-26.8L36.5 60.7z"/><path id="XMLID_6715_" class="st1" d="M165 134l39.8 24.4-11.8 18.8-28-15.9z"/></g></g></svg>