<svg version="1.1" id="Layer_1" xmlns="http://www.w3.org/2000/svg" x="0" y="0" viewBox="0 0 166.1 239.3" xml:space="preserve"><style>.st0{fill:#333}</style><g id="XMLID_1340_"><path id="XMLID_4646_" class="st0" d="M2.1 236.6v-78.7l78.3-3.1v78.7l-78.3 3.1zm2-76.8v74.7l74.3-2.9v-74.7l-74.3 2.9z"/></g><g id="XMLID_1343_"><path id="XMLID_4643_" class="st0" d="M2.1 159.9V81.3l78.3-3.1v78.7l-78.3 3zm2-76.7v74.7l74.3-2.9V80.3L4.1 83.2z"/></g><g id="XMLID_1344_"><path id="XMLID_4640_" class="st0" d="M2.1 83.3V4.6l78.3-3.1v78.7L2.1 83.3zm2-76.8v74.7l74.3-2.9V3.6L4.1 6.5z"/></g><g id="XMLID_1345_"><circle id="XMLID_4628_" cx="40.8" cy="42.9" r="28" fill="#e30613"/><path id="XMLID_4636_" class="st0" d="M40.8 71.9c-16 0-29-13-29-29s13-29 29-29 29 13 29 29-13 29-29 29zm0-56c-14.9 0-27 12.1-27 27s12.1 27 27 27 27-12.1 27-27-12.2-27-27-27z"/></g><g id="XMLID_1346_"><path id="XMLID_4633_" class="st0" d="M40.8 147.9c-16 0-29-13-29-29s13-29 29-29 29 13 29 29-13 29-29 29zm0-56c-14.9 0-27 12.1-27 27s12.1 27 27 27 27-12.1 27-27-12.2-27-27-27z"/></g><g id="XMLID_1347_"><path id="XMLID_4630_" class="st0" d="M40.8 223.9c-16 0-29-13-29-29s13-29 29-29 29 13 29 29-13 29-29 29zm0-56c-14.9 0-27 12.1-27 27s12.1 27 27 27 27-12.1 27-27-12.2-27-27-27z"/></g><g id="XMLID_1348_"><path id="XMLID_4629_" class="st0" d="M79.5 77.7l-.1-2 69.8-2.2c7.4-.2 13.3-6.2 13.3-13.7V17.7c0-3.7-1.5-7.2-4.2-9.8s-6.2-4-10-3.9L79.5 6.2l-.1-2L148.2 2c4.3-.1 8.3 1.4 11.4 4.4 3.1 3 4.8 7 4.8 11.3v42.1c0 8.5-6.7 15.4-15.2 15.7l-69.7 2.2z"/></g><g id="XMLID_1349_"><path id="XMLID_4624_" fill="#71ff85" d="M89.9 34.7v10h39l-12 15.5 8 7 23-27.5-24-27.5-7 7.5 11.5 14.5z"/><path id="XMLID_4625_" class="st0" d="M125 68.6l-9.5-8.3 11.3-14.6h-38v-12l37.5-.5-10.8-13.6 8.3-8.9 25.3 29L125 68.6zm-6.7-8.5l6.5 5.7 21.8-26.1-22.7-26-5.7 6.1 12.2 15.4-39.5.5v8h40l-12.6 16.4z"/></g></svg>