<?xml version="1.0" encoding="UTF-8"?>
<svg xmlns="http://www.w3.org/2000/svg" xmlns:xlink="http://www.w3.org/1999/xlink" width="300pt" height="264pt" viewBox="0 0 300 264" version="1.1">
<g id="surface1">
<path style=" stroke:none;fill-rule:nonzero;fill:rgb(100%,100%,100%);fill-opacity:1;" d="M 150.03125 0.175781 C 146.703125 0.175781 143.375 1.449219 140.839844 3.988281 C 140.007812 4.824219 139.3125 5.742188 138.753906 6.71875 L 132.003906 18.320312 L 131.972656 18.320312 L 2.207031 243.660156 C 2.183594 243.703125 2.164062 243.746094 2.140625 243.789062 C 1.480469 244.851562 0.964844 246.027344 0.621094 247.300781 C -1.234375 254.242188 2.878906 261.382812 9.8125 263.246094 C 10.957031 263.550781 12.109375 263.691406 13.238281 263.6875 L 286.882812 263.6875 C 294.058594 263.6875 299.878906 257.859375 299.878906 250.667969 C 299.878906 248.3125 299.25 246.105469 298.160156 244.199219 C 298.152344 244.1875 298.144531 244.171875 298.136719 244.15625 L 163.382812 9.78125 C 161.671875 6.828125 160.878906 5.65625 159.21875 3.988281 C 156.679688 1.449219 153.355469 0.175781 150.03125 0.175781 Z M 150.03125 0.175781 "/>
<path style=" stroke:none;fill-rule:nonzero;fill:rgb(75.686275%,7.058824%,10.980392%);fill-opacity:1;" d="M 150.03125 3.4375 C 146.875 3.417969 143.410156 5.03125 141.714844 8.054688 L 4.777344 245.75 C 3.988281 247.367188 3.65625 248.773438 3.644531 250.382812 C 3.644531 253.265625 4.917969 256 7.121094 257.851562 C 9.0625 259.359375 10.898438 260.140625 13.371094 260.140625 L 286.941406 260.140625 C 288.613281 260.15625 290.285156 259.753906 291.804688 258.75 C 294.660156 257.023438 296.410156 253.925781 296.410156 250.578125 C 296.332031 248.851562 295.90625 247.03125 295.136719 245.75 L 158.28125 8.015625 C 158.269531 7.992188 158.253906 7.972656 158.242188 7.953125 C 158.226562 7.933594 158.214844 7.910156 158.199219 7.886719 C 157.714844 7.109375 157.105469 6.421875 156.410156 5.832031 C 154.820312 4.453125 152.832031 3.625 150.734375 3.476562 C 150.5 3.453125 150.261719 3.441406 150.03125 3.4375 Z M 13.371094 260.140625 L 12.699219 260.140625 L 13.386719 260.140625 Z M 149.886719 50.550781 L 254.242188 231.753906 L 45.386719 231.753906 Z M 149.886719 50.550781 "/>
<path style=" stroke:none;fill-rule:nonzero;fill:rgb(0%,0%,0%);fill-opacity:1;" d="M 150.03125 0 C 146.65625 0 143.285156 1.289062 140.714844 3.867188 C 139.871094 4.710938 139.167969 5.644531 138.601562 6.628906 L 131.902344 18.144531 L 131.871094 18.144531 L 2.054688 243.570312 C 2.023438 243.625 2.003906 243.667969 1.984375 243.707031 C 1.316406 244.78125 0.796875 245.96875 0.453125 247.253906 C -1.429688 254.292969 2.742188 261.527344 9.765625 263.414062 C 10.925781 263.726562 12.09375 263.871094 13.238281 263.867188 L 286.882812 263.867188 C 294.15625 263.867188 300.054688 257.953125 300.054688 250.667969 C 300.054688 248.28125 299.417969 246.046875 298.316406 244.113281 C 298.308594 244.105469 298.300781 244.09375 298.292969 244.070312 L 163.539062 9.695312 C 161.824219 6.734375 161.015625 5.539062 159.347656 3.867188 C 156.773438 1.289062 153.402344 0 150.03125 0 Z M 150.03125 0.175781 C 153.355469 0.175781 156.679688 1.449219 159.21875 3.988281 C 160.878906 5.65625 161.671875 6.828125 163.382812 9.78125 L 298.136719 244.15625 C 298.144531 244.171875 298.152344 244.1875 298.160156 244.199219 C 299.25 246.105469 299.878906 248.3125 299.878906 250.667969 C 299.878906 257.859375 294.058594 263.6875 286.882812 263.6875 L 13.238281 263.6875 C 12.109375 263.691406 10.957031 263.550781 9.8125 263.246094 C 2.878906 261.382812 -1.234375 254.242188 0.621094 247.300781 C 0.960938 246.027344 1.480469 244.851562 2.140625 243.789062 C 2.164062 243.746094 2.183594 243.703125 2.207031 243.660156 L 131.972656 18.320312 L 132.003906 18.320312 L 138.753906 6.71875 C 139.3125 5.742188 140.007812 4.824219 140.839844 3.988281 C 143.375 1.449219 146.703125 0.175781 150.03125 0.175781 Z M 150.03125 0.175781 "/>
<path style=" stroke:none;fill-rule:nonzero;fill:rgb(0%,0%,0%);fill-opacity:1;" d="M 125.957031 220.992188 L 125.957031 175.109375 L 143.78125 157.25 L 143.78125 115.601562 L 129.519531 115.601562 L 129.519531 151.324219 L 111.695312 169.1875 L 111.695312 220.992188 Z M 172.308594 220.992188 L 172.308594 115.601562 L 158.046875 115.601562 L 158.046875 220.992188 "/>
</g>
</svg>
