<?xml version="1.0" encoding="UTF-8"?>
<svg xmlns="http://www.w3.org/2000/svg" xmlns:xlink="http://www.w3.org/1999/xlink" width="499pt" height="439pt" viewBox="0 0 499 439" version="1.1">
<g id="surface1">
<path style=" stroke:none;fill-rule:nonzero;fill:rgb(100%,100%,100%);fill-opacity:1;" d="M 249.550781 0.292969 C 244.015625 0.292969 238.484375 2.410156 234.261719 6.636719 C 232.878906 8.019531 231.726562 9.550781 230.796875 11.171875 L 219.570312 30.464844 L 219.515625 30.464844 L 3.671875 405.179688 C 3.628906 405.25 3.597656 405.320312 3.558594 405.394531 C 2.460938 407.160156 1.601562 409.113281 1.035156 411.226562 C -2.054688 422.777344 4.789062 434.648438 16.320312 437.742188 C 18.226562 438.257812 20.140625 438.488281 22.019531 438.480469 L 477.179688 438.480469 C 489.121094 438.480469 498.796875 428.789062 498.796875 416.828125 C 498.796875 412.917969 497.753906 409.246094 495.941406 406.078125 C 495.925781 406.054688 495.914062 406.03125 495.902344 406.003906 L 271.761719 16.265625 C 268.914062 11.351562 267.597656 9.402344 264.832031 6.636719 C 260.613281 2.410156 255.082031 0.292969 249.550781 0.292969 Z M 249.550781 0.292969 "/>
<path style=" stroke:none;fill-rule:nonzero;fill:rgb(75.686275%,7.058824%,10.980392%);fill-opacity:1;" d="M 249.550781 5.71875 C 244.300781 5.679688 238.539062 8.367188 235.71875 13.394531 L 7.949219 408.648438 C 6.632812 411.339844 6.082031 413.679688 6.0625 416.355469 C 6.0625 421.148438 8.179688 425.695312 11.84375 428.777344 C 15.070312 431.28125 18.128906 432.582031 22.242188 432.582031 L 477.28125 432.582031 C 480.058594 432.609375 482.839844 431.941406 485.367188 430.273438 C 490.117188 427.398438 493.027344 422.246094 493.03125 416.683594 C 492.898438 413.808594 492.191406 410.78125 490.910156 408.648438 L 263.273438 13.328125 C 263.253906 13.292969 263.230469 13.257812 263.207031 13.226562 C 263.183594 13.191406 263.164062 13.15625 263.136719 13.117188 C 262.332031 11.824219 261.316406 10.679688 260.164062 9.699219 C 257.519531 7.40625 254.210938 6.03125 250.71875 5.78125 C 250.328125 5.746094 249.9375 5.722656 249.550781 5.71875 Z M 22.242188 432.582031 L 21.121094 432.582031 L 22.265625 432.582031 Z M 249.3125 84.058594 L 422.890625 385.378906 L 75.492188 385.378906 Z M 249.3125 84.058594 "/>
<path style=" stroke:none;fill-rule:nonzero;fill:rgb(0%,0%,0%);fill-opacity:1;" d="M 249.550781 0 C 243.941406 0 238.332031 2.144531 234.054688 6.429688 C 232.652344 7.832031 231.484375 9.382812 230.539062 11.027344 L 219.398438 30.171875 L 219.347656 30.171875 L 3.417969 405.03125 C 3.367188 405.117188 3.332031 405.191406 3.300781 405.253906 C 2.191406 407.039062 1.324219 409.015625 0.75 411.148438 C -2.378906 422.855469 4.558594 434.890625 16.246094 438.027344 C 18.175781 438.546875 20.117188 438.785156 22.019531 438.777344 L 477.179688 438.777344 C 489.277344 438.777344 499.09375 428.945312 499.09375 416.828125 C 499.09375 412.863281 498.035156 409.144531 496.195312 405.933594 C 496.1875 405.917969 496.175781 405.894531 496.160156 405.859375 L 272.019531 16.121094 C 269.167969 11.203125 267.824219 9.214844 265.046875 6.429688 C 260.769531 2.144531 255.160156 0 249.550781 0 Z M 249.550781 0.292969 C 255.082031 0.292969 260.613281 2.410156 264.832031 6.636719 C 267.597656 9.402344 268.914062 11.351562 271.761719 16.265625 L 495.902344 406.003906 C 495.914062 406.03125 495.925781 406.054688 495.941406 406.078125 C 497.753906 409.246094 498.796875 412.917969 498.796875 416.828125 C 498.796875 428.789062 489.121094 438.480469 477.179688 438.480469 L 22.019531 438.480469 C 20.140625 438.488281 18.226562 438.257812 16.320312 437.742188 C 4.789062 434.648438 -2.054688 422.777344 1.035156 411.226562 C 1.597656 409.113281 2.460938 407.160156 3.558594 405.394531 C 3.597656 405.320312 3.628906 405.25 3.671875 405.179688 L 219.515625 30.464844 L 219.570312 30.464844 L 230.796875 11.171875 C 231.726562 9.550781 232.878906 8.019531 234.261719 6.636719 C 238.484375 2.410156 244.015625 0.292969 249.550781 0.292969 Z M 249.550781 0.292969 "/>
<path style=" stroke:none;fill-rule:nonzero;fill:rgb(0%,0%,0%);fill-opacity:1;" d="M 260.621094 154.015625 C 260.621094 162.984375 253.363281 170.25 244.410156 170.25 C 235.457031 170.25 228.199219 162.984375 228.199219 154.015625 C 228.199219 145.046875 235.457031 137.777344 244.410156 137.777344 C 253.363281 137.777344 260.621094 145.046875 260.621094 154.015625 Z M 268.734375 202.308594 L 268.734375 249.410156 L 236.308594 249.410156 L 236.308594 210.464844 L 215.25 242.9375 C 210.984375 249.515625 202.203125 251.390625 195.628906 247.109375 L 235.527344 185.578125 C 241.621094 176.175781 254.171875 173.511719 263.558594 179.617188 C 264.253906 180.066406 264.910156 180.554688 265.550781 181.089844 L 292.761719 203.957031 C 295.515625 206.269531 297.097656 209.6875 297.097656 213.289062 L 297.097656 233.171875 C 297.097656 241.011719 290.75 247.382812 282.921875 247.382812 L 282.921875 214.234375 Z M 252.519531 261.648438 L 214.25 332.25 C 209.972656 340.132812 200.132812 343.050781 192.257812 338.769531 L 235.332031 259.335938 C 235.96875 258.164062 236.308594 256.828125 236.308594 255.460938 L 236.308594 253.464844 L 268.734375 253.464844 L 268.734375 255.460938 C 268.734375 256.828125 269.078125 258.164062 269.710938 259.335938 L 301.910156 318.734375 C 306.175781 326.609375 303.261719 336.476562 295.390625 340.738281 Z M 350.398438 370.441406 L 324.195312 311.042969 L 350.546875 311.042969 L 385.972656 370.441406 Z M 291.066406 370.441406 L 283.328125 327.851562 L 293.601562 346.789062 L 297.519531 344.65625 C 307.550781 339.210938 311.257812 326.65625 305.824219 316.605469 L 302.808594 311.042969 L 306.632812 311.042969 L 326.664062 370.441406 Z M 231.761719 370.441406 L 236.390625 311.042969 L 262.726562 311.042969 L 267.34375 370.441406 Z M 172.441406 370.441406 L 192.472656 311.042969 L 202.238281 311.042969 L 186.230469 340.582031 L 190.140625 342.6875 C 197.707031 346.8125 207.035156 345.796875 213.535156 340.132812 L 208.039062 370.441406 Z M 113.132812 370.441406 L 148.558594 311.042969 L 174.910156 311.042969 L 148.71875 370.441406 "/>
</g>
</svg>
