<svg version="1.1" id="Layer_1" xmlns="http://www.w3.org/2000/svg" x="0" y="0" viewBox="0 0 213.3 213.6" xml:space="preserve"><style>.st2{fill:#f9ffff}</style><path id="XMLID_947_" d="M205.1 211.8H9.4c-3.8 0-6.8-3.1-6.8-6.8V10c0-3.8 3.1-6.8 6.8-6.8h195.7c3.8 0 6.8 3.1 6.8 6.8v195c0 3.7-3 6.8-6.8 6.8z" fill="#fcfff3"/><path id="XMLID_152_" fill="#154889" d="M6.9 7.5h200.7v200H6.9z"/><g id="XMLID_956_"><path id="XMLID_5_" class="st2" d="M61.6 52.4L46.7 31.5 31.8 52.4h10.4v132h9v-132z"/><path id="XMLID_4_" class="st2" d="M109.8 52.4L94.9 31.5l-15 20.9h10.5v132h9v-132z"/><path id="XMLID_3_" class="st2" d="M182.8 52.4l-14.9-20.9-15 20.9h10.5v132h9v-132z"/><path id="XMLID_2_" class="st2" d="M129.4 24.2h5.5v166.5h-5.5z"/></g></svg>