<svg version="1.1" id="Layer_1" xmlns="http://www.w3.org/2000/svg" x="0" y="0" viewBox="0 0 222.6 196.4" xml:space="preserve"><style>.st0{fill:#333}.st1{fill:#fff}</style><g id="XMLID_5568_"><path id="XMLID_91_" class="st0" d="M80.9 194.3c-.7 0-1.4-.1-2.1-.3-4.7-1.6-7.7-8.2-10.9-15.2-.8-1.8-1.7-3.6-2.5-5.3C60 162.6 5 64.1 4.4 63.2l-.1-.3 2.6-14.6L137 3.6l.2.3c.4.6 42.9 60.7 80.5 124l.1.1v15.5l-.3.1c-1.3.5-127.2 46.7-132.4 49.5-1.5.8-2.9 1.2-4.2 1.2zM5.3 62.7c2.5 4.5 55.6 99.6 60.9 110.2.9 1.8 1.7 3.6 2.5 5.4 3.1 6.8 6.1 13.2 10.3 14.6 1.7.6 3.4.3 5.4-.7 5.2-2.7 123.6-46.2 132.2-49.4v-14.5C180.4 67.4 139.7 9.5 136.4 4.8L7.7 49.1 5.3 62.7z"/></g><g id="XMLID_5569_"><path id="XMLID_90_" class="st0" d="M79.6 191.9h-1v-12.1L6.9 48.9l.8-.4 71.6 130.6 137.8-51.4.4 1L79.6 180z"/></g><g id="XMLID_5570_"><path id="XMLID_89_" transform="scale(-1) rotate(70.112 224.093 -211.16)" class="st0" d="M147.7 83.7h1v147h-1z"/></g><g id="XMLID_5571_"><path id="XMLID_88_" transform="scale(-1) rotate(70.112 226.943 -211.16)" class="st0" d="M147.7 85.7h1v147h-1z"/></g><g id="XMLID_5572_"><path id="XMLID_87_" transform="scale(-1) rotate(70.112 229.793 -211.16)" class="st0" d="M147.7 87.7h1v147h-1z"/></g><g id="XMLID_5573_"><path id="XMLID_86_" transform="scale(-1) rotate(70.112 232.644 -211.16)" class="st0" d="M147.7 89.7h1v147h-1z"/></g><g id="XMLID_5574_"><path id="XMLID_85_" transform="scale(-1) rotate(70.112 235.494 -211.16)" class="st0" d="M147.7 91.7h1v147h-1z"/></g><g id="XMLID_5575_"><path id="XMLID_84_" transform="scale(-1) rotate(70.112 238.345 -211.16)" class="st0" d="M147.7 93.7h1v147h-1z"/></g><g id="XMLID_5566_"><path id="XMLID_1_" class="st0" d="M217.3 128.2L79.1 179.7 7.3 48.7 136.8 4.2z"/><path id="XMLID_80_" class="st0" d="M78.8 180.3L6.6 48.4l.6-.2L137.1 3.6l.2.3 80.8 124.5-139.3 51.9zM8 49l71.3 130.1L216.6 128l-80-123.2L8 49z"/></g><g id="XMLID_5576_"><path id="XMLID_2_" class="st1" d="M62.2 135.5l2.6-1.1c.7-.3 1.2-.4 1.6-.4.3 0 .7.1 1 .4s.6.6.8 1c.2.4.2.8.2 1.1 0 .4-.2.7-.4 1 .4 0 .8.1 1.2.3.4.2.6.6.8 1.1.2.6.3 1.1.2 1.6-.1.5-.3.9-.7 1.2-.2.2-.8.5-1.8.9l-2.2.9-3.3-8zm1.9.8l.8 1.8.9-.4c.5-.2.8-.4.9-.4.2-.1.3-.3.4-.5s0-.4-.1-.7c-.1-.2-.2-.4-.4-.5-.2-.1-.3-.1-.5-.1s-.6.2-1.3.5l-.7.3zm1.3 3.1l.9 2.1 1.2-.5c.5-.2.9-.4 1-.5s.2-.3.2-.5 0-.4-.1-.7-.3-.4-.4-.6c-.2-.1-.4-.2-.6-.2s-.6.1-1.2.4l-1 .5z"/><path id="XMLID_6_" class="st1" d="M75.2 139.3l-.4-.9c0 .4-.2.7-.4 1-.2.3-.5.5-.8.6s-.6.2-.9.1c-.3-.1-.6-.2-.8-.5-.2-.2-.5-.7-.7-1.2l-1.5-3.6 1.2-.5 1.1 2.6c.3.8.5 1.2.7 1.4.1.2.3.3.5.4.2.1.4 0 .5 0 .2-.1.4-.2.5-.5.1-.2.1-.5.1-.7 0-.3-.2-.8-.6-1.5l-1-2.4 1.2-.5 2.4 5.7-1.1.5z"/><path id="XMLID_8_" class="st1" d="M77.6 138.3l-2.2-5.1c-.3-.7-.5-1.2-.5-1.6-.1-.5 0-1 .2-1.3.2-.4.5-.6 1-.8.6-.2 1.1-.3 1.5-.1s.8.5 1 1c.1.3.2.7.2 1.2s0 .8.1.9c0 .1.1.2.2.3s.4.3.9.5.8.5 1 .7.4.5.5.8c.2.6.3 1.1.1 1.5-.2.5-.5.8-.9 1-.3.1-.6.2-1 .1-.3-.1-.6-.2-.9-.5l.6-1c.2.2.5.3.6.2.1 0 .2-.1.2-.3v-.5c-.1-.1-.1-.3-.3-.3s-.4-.3-1-.5c-.7-.4-1.2-.7-1.3-1.1-.1-.2-.1-.6-.2-1.2v-.8c0-.1 0-.2-.1-.3-.1-.2-.2-.3-.3-.3-.1-.1-.3-.1-.4 0s-.3.2-.3.3c-.1.1-.1.3 0 .5s.2.6.4 1.2l2.2 5.1-1.3.4z"/><path id="XMLID_10_" class="st1" d="M83.2 136.3l1.5-.4c.1.2.2.3.4.4.1 0 .3 0 .6-.1s.5-.3.6-.4c.1-.1.1-.3.1-.4 0-.2-.1-.5-.2-.8l-.4-.8c-.1.4-.2.7-.3 1-.2.3-.4.4-.7.6-.5.2-1.1.2-1.6-.1-.6-.4-1.2-1-1.5-1.9-.4-1-.5-1.8-.4-2.5s.5-1.1 1.1-1.3c.3-.1.6-.2.9-.1.3.1.6.2.9.4l-.3-.8 1.2-.5 2.2 5.1c.3.8.5 1.5.5 1.9s-.1.8-.3 1.1-.6.6-1.2.8c-.5.2-1 .3-1.3.3-.4 0-.7-.1-1-.3s-.5-.5-.6-.8l-.2-.4zm-.3-3.8c.3.6.5 1 .9 1.2.3.2.6.2.9.1.3-.1.5-.4.6-.8.1-.4 0-.9-.2-1.4-.3-.6-.5-1-.9-1.2-.3-.2-.6-.2-.9-.1-.3.1-.5.4-.6.7s0 .9.2 1.5z"/><path id="XMLID_13_" class="st1" d="M90.7 130.6l1.3-.3c.1.6 0 1.2-.2 1.6-.2.4-.6.7-1.1 1-.7.3-1.3.3-1.9 0-.7-.4-1.2-1-1.6-2s-.5-1.8-.3-2.6c.2-.6.6-1.1 1.2-1.4.7-.3 1.3-.3 1.9.1.7.4 1.3 1.1 1.7 2.2l.1.2-3.1 1.3c.2.5.5.8.8.9.3.2.6.2.9.1.2-.1.4-.5.3-1.1zm-.6-1.6c-.2-.4-.4-.7-.7-.9-.3-.1-.5-.2-.8-.1-.3.1-.4.3-.5.6s0 .7.2 1.1l1.8-.7z"/><path id="XMLID_16_" class="st1" d="M93.8 131.4l-3.4-7.9 1.2-.5 3.4 7.9-1.2.5z"/><path id="XMLID_18_" class="st1" d="M100.6 128.5l-1.2.5-.4-.8c-.1.4-.2.7-.4 1-.2.3-.4.5-.7.6-.5.2-1.1.2-1.7-.2s-1.1-1-1.5-2c-.4-1-.5-1.8-.4-2.5.2-.7.5-1.1 1.1-1.3.3-.1.5-.1.8-.1s.6.1.9.3l-1.2-2.8 1.2-.5 3.5 7.8zm-4.6-1.6c.2.5.4.9.6 1.1.2.2.4.4.6.4.2.1.4 0 .6 0 .3-.1.4-.4.5-.7.1-.3 0-.9-.3-1.5-.3-.7-.6-1.1-.9-1.3s-.6-.2-.9-.1c-.3.1-.5.4-.5.7 0 .4 0 .9.3 1.4z"/><path id="XMLID_21_" class="st1" d="M101.8 128l-3.4-7.9 1.2-.5 1.8 4.2.6-2.6 1.5-.7-.7 2.8 3.3 2.9-1.3.6-2.3-2.1-.3 1 .8 1.8-1.2.5z"/><path id="XMLID_23_" class="st1" d="M106.1 121.5l-1.2.2c-.1-.6-.1-1.1.1-1.5s.6-.7 1.2-1c.5-.2 1-.3 1.3-.3s.6.1.8.3.5.6.8 1.3l.7 1.8c.2.5.4.9.5 1.1.1.2.3.5.6.7l-1.2.5-.4-.6c-.1.3-.3.6-.4.9s-.4.4-.7.5c-.5.2-.9.2-1.3 0s-.7-.5-1-1c-.1-.3-.2-.6-.2-.9 0-.3.1-.6.3-.8.2-.2.4-.5.9-.8.5-.4.9-.7 1-.9-.1-.3-.2-.5-.3-.6-.1-.1-.2-.1-.4-.1-.1 0-.3 0-.5.1s-.4.2-.5.4c-.1.1-.2.4-.1.7zm2.2.5c-.1.1-.3.3-.6.5-.3.3-.5.5-.6.7s-.1.4 0 .6c.1.2.2.4.4.5.2.1.4.1.6 0s.3-.2.4-.4.2-.4.2-.6c0-.2-.1-.5-.3-.9l-.1-.4z"/><path id="XMLID_26_" class="st1" d="M111.6 117.1l.5 1.2-.8.4 1 2.3c.2.5.3.8.4.9.1.1.2.2.4.1.1 0 .3-.2.4-.4l.6 1.1c-.2.3-.5.5-.9.6-.3.1-.6.2-.9.1-.3-.1-.5-.2-.7-.5l-.6-1.2-1.1-2.5-.6.2-.5-1.2.6-.2-.5-1.1.9-1.4.9 2 .9-.4z"/><path id="XMLID_28_" class="st1" d="M114.1 118.1l-1.2.2c-.1-.6-.1-1.1.1-1.5s.6-.7 1.2-1c.5-.2 1-.3 1.3-.3s.6.1.8.3.5.6.8 1.3l.7 1.8c.2.5.4.9.5 1.1.1.2.3.5.6.7l-1.2.5-.4-.6c-.1.3-.3.6-.4.9-.2.2-.4.4-.7.5-.5.2-.9.2-1.3 0s-.7-.5-1-1c-.1-.3-.2-.6-.2-.9 0-.3.1-.6.3-.8s.4-.5.9-.8c.5-.4.9-.7 1-.9-.1-.3-.2-.5-.3-.6s-.2-.1-.4-.1c-.1 0-.3 0-.6.1-.2.1-.4.2-.5.4v.7zm2.2.5c-.1.1-.3.3-.6.5-.3.3-.5.5-.6.7s-.1.4 0 .6c.1.2.2.4.4.5s.4.1.6 0c.2-.1.3-.2.4-.4s.2-.4.2-.6c0-.2-.1-.5-.3-.9l-.1-.4z"/><path id="XMLID_31_" class="st1" d="M119.9 120.3l-3.4-7.9 1.2-.5 3.4 7.9-1.2.5z"/><path id="XMLID_33_" class="st1" d="M120.9 116.4c-.2-.6-.3-1.1-.3-1.7 0-.6.2-1 .4-1.4.3-.4.6-.7 1.1-.9.8-.3 1.5-.3 2.2.1.7.4 1.2 1 1.5 1.8.3.6.4 1.2.3 1.7 0 .6-.2 1.1-.4 1.4s-.6.7-1 .9c-.7.3-1.4.3-2.1-.1-.7-.1-1.3-.8-1.7-1.8zm1.3-.4c.2.6.5 1 .9 1.2s.7.2 1 .1c.3-.1.5-.4.6-.8.1-.4 0-.9-.2-1.5s-.5-1-.9-1.2-.7-.2-1-.1c-.3.1-.5.4-.6.8-.1.4 0 .9.2 1.5z"/><path id="XMLID_36_" class="st1" d="M128 117.3l1.5-.4c.1.2.2.3.4.4.1 0 .3 0 .6-.1s.5-.3.6-.4c.1-.1.1-.3.1-.4 0-.2-.1-.5-.2-.8l-.4-.8c-.1.4-.2.7-.3 1s-.4.4-.7.6c-.5.2-1.1.2-1.6-.1-.6-.4-1.2-1-1.5-1.9-.4-1-.5-1.8-.4-2.5.2-.7.5-1.1 1.1-1.3.3-.1.6-.2.9-.1.3.1.6.2.9.4l-.3-.8 1.2-.5 2.2 5.1c.3.8.5 1.5.5 1.9s-.1.8-.3 1.1-.6.6-1.2.8c-.5.2-1 .3-1.3.3-.4 0-.7-.1-1-.3s-.5-.5-.6-.8l-.2-.4zm-.3-3.8c.3.6.5 1 .9 1.2.3.2.6.2.9.1.3-.1.5-.4.6-.8.1-.4 0-.9-.2-1.4-.3-.6-.5-1-.9-1.2-.3-.2-.6-.2-.9-.1-.3.1-.5.4-.6.7-.1.4 0 .9.2 1.5z"/><path id="XMLID_39_" class="st1" d="M132.2 112.6l-.6-1.5 2.4-1 .6 1.5-2.4 1z"/><path id="XMLID_41_" class="st1" d="M138.2 112.5l-5.7-6.9 1.4-.6 4.1 5.2-.9-6.5 1.4-.6 1 8.9-1.3.5z"/><path id="XMLID_43_" class="st1" d="M144 107.9l1.3-.3c.1.6 0 1.2-.2 1.6-.2.4-.6.7-1.1 1-.7.3-1.3.3-1.9 0-.7-.4-1.2-1-1.6-2-.4-1-.5-1.8-.3-2.6.2-.6.6-1.1 1.2-1.4.7-.3 1.3-.3 1.9.1.7.4 1.3 1.1 1.7 2.2l.1.2-3.1 1.3c.2.5.5.8.8.9.3.2.6.2.9.1.3-.1.4-.5.3-1.1zm-.6-1.5c-.2-.4-.4-.7-.7-.9s-.5-.2-.8-.1c-.3.1-.4.3-.5.6s0 .7.2 1.1l1.8-.7z"/><path id="XMLID_46_" class="st1" d="M148.3 108.2l-1.2.5-2.4-5.7 1.2-.5.3.8c0-.5.1-.8.2-1s.3-.3.5-.4c.3-.1.6-.1.9-.1l.2 1.5c-.3-.1-.5-.1-.7 0s-.3.2-.4.4c-.1.2-.1.5 0 .8.1.4.3 1 .7 1.9l.7 1.8z"/><path id="XMLID_48_" class="st1" d="M149.1 104.4c-.2-.6-.3-1.1-.3-1.7 0-.6.2-1 .4-1.4.3-.4.6-.7 1.1-.9.8-.3 1.5-.3 2.2.1s1.2 1 1.5 1.8c.3.6.4 1.2.3 1.7 0 .6-.2 1.1-.4 1.4s-.6.7-1 .9c-.7.3-1.4.3-2.1-.1-.7-.1-1.3-.8-1.7-1.8zm1.3-.4c.2.6.5 1 .9 1.2s.7.2 1 .1c.3-.1.5-.4.6-.8.1-.4 0-.9-.2-1.5s-.5-1-.9-1.2-.7-.2-1-.1c-.3.1-.5.4-.6.8-.1.4-.1.9.2 1.5z"/><path id="XMLID_51_" class="st1" d="M157.4 104.4l-1.2.5-2.4-5.7 1.2-.5.3.8c0-.5.1-.8.2-1s.3-.3.5-.4c.3-.1.6-.1.9-.1l.2 1.5c-.3-.1-.5-.1-.7 0s-.3.2-.4.4c-.1.2-.1.5 0 .8.1.4.3 1 .7 1.9l.7 1.8z"/><path id="XMLID_53_" class="st1" d="M164 101.6l-1.2.5-.4-.8c-.1.4-.2.7-.4 1s-.4.5-.7.6c-.5.2-1.1.2-1.7-.2-.6-.4-1.1-1-1.5-2s-.5-1.8-.4-2.5c.2-.7.5-1.1 1.1-1.3.3-.1.5-.1.8-.1s.6.1.9.3l-1.2-2.8 1.2-.5 3.5 7.8zm-4.6-1.6c.2.5.4.9.6 1.1.2.2.4.4.6.4.2.1.4 0 .6 0 .3-.1.4-.4.5-.7.1-.4 0-.9-.3-1.5-.3-.7-.6-1.1-.9-1.3-.3-.2-.6-.2-.9-.1-.3.1-.5.4-.6.7.1.4.2.8.4 1.4z"/><path id="XMLID_56_" class="st1" d="M169.5 99.2l-1.2.5-1.2-2.9c-.3-.6-.4-1-.6-1.1-.1-.2-.3-.3-.5-.3h-.5c-.2.1-.4.2-.5.4s-.2.4-.1.7.2.7.5 1.4l1.1 2.6-1.2.5-2.4-5.7 1.2-.5.4.8c.1-.4.2-.8.4-1 .2-.3.4-.5.8-.6.4-.2.7-.2 1-.1.3.1.6.3.8.5s.5.7.7 1.2l1.3 3.6z"/><path id="XMLID_58_" class="st1" d="M173.8 97.4l-.4-.9c0 .4-.2.7-.4 1s-.5.5-.8.6-.6.2-.9.1c-.3-.1-.6-.2-.8-.5-.2-.2-.5-.7-.7-1.2l-1.5-3.6 1.2-.5 1.1 2.6c.3.8.5 1.2.7 1.4.1.2.3.3.4.4.2.1.4 0 .5 0 .2-.1.4-.2.5-.5.1-.2.2-.5.1-.7s-.2-.8-.6-1.5l-1-2.4 1.2-.5 2.4 5.7-1 .5z"/><path id="XMLID_60_" class="st1" d="M180.6 94.5l-1.2.5-1.2-2.9c-.2-.6-.4-1-.6-1.1-.1-.2-.3-.3-.5-.3h-.5c-.2.1-.4.2-.5.4-.1.2-.2.4-.1.7 0 .3.2.7.5 1.4l1.1 2.6-1.2.5-2.4-5.7 1.2-.5.4.8c.1-.4.2-.8.4-1 .2-.3.4-.5.8-.6.4-.2.7-.2 1-.1s.6.3.8.5c.2.3.5.7.7 1.2l1.3 3.6z"/><path id="XMLID_62_" class="st1" d="M181.9 94.4l1.5-.4c.1.2.2.3.4.4.1 0 .3 0 .6-.1s.5-.3.6-.4c.1-.1.1-.3.1-.4 0-.2-.1-.5-.2-.8l-.4-.8c-.1.4-.2.7-.3 1-.2.3-.4.4-.7.6-.5.2-1.1.2-1.6-.1-.6-.4-1.2-1-1.5-1.9-.4-1-.5-1.8-.4-2.5.2-.7.5-1.1 1.1-1.3.3-.1.6-.2.9-.1.3.1.6.2.9.4l-.3-.8 1.2-.5 2.2 5.1c.3.8.5 1.5.5 1.9s-.1.8-.3 1.1-.6.6-1.2.8c-.5.2-1 .3-1.3.3-.4 0-.7-.1-1-.3s-.5-.5-.6-.8l-.2-.4zm-.4-3.8c.3.6.5 1 .9 1.2.3.2.6.2.9.1.3-.1.5-.4.6-.8s0-.9-.2-1.4c-.3-.6-.5-1-.9-1.2-.3-.2-.6-.2-.9-.1-.3.1-.5.4-.6.7-.1.4 0 .9.2 1.5z"/><path id="XMLID_65_" class="st1" d="M115.7 135.2l-.6-1.5 2.4-1 .6 1.5-2.4 1z"/><path id="XMLID_67_" class="st1" d="M116.7 128l2.6-1.1c.7-.3 1.2-.4 1.6-.4.3 0 .7.1 1 .4.3.2.6.6.8 1 .2.4.2.8.2 1.1 0 .4-.2.7-.4 1 .4 0 .8.1 1.2.3s.6.6.8 1.1c.2.6.3 1.1.2 1.6s-.3.9-.7 1.2c-.2.2-.8.5-1.8.9l-2.2.9-3.3-8zm1.8.8l.8 1.8.9-.4c.5-.2.8-.4.9-.4.2-.1.3-.3.4-.5s0-.4-.1-.7c-.1-.2-.2-.4-.4-.5s-.3-.1-.5-.1-.6.2-1.3.5l-.7.3zm1.4 3.1l.9 2.1 1.2-.5c.5-.2.9-.4 1-.5s.2-.3.2-.5 0-.4-.1-.7-.3-.4-.4-.6c-.2-.1-.4-.2-.6-.2-.2 0-.6.1-1.2.4l-1 .5z"/><path id="XMLID_71_" class="st1" d="M126.6 133.1l-3.4-7.9 1.3-.6 1.5 3.5 1.2-4.6 1.8-.8-1.1 4.1 4.6 3.7-1.7.7-3.4-3-.5 1.8 1 2.4-1.3.7z"/><path id="XMLID_73_" class="st1" d="M132.3 126l-1.2.2c-.1-.6-.1-1.1.1-1.5.2-.4.6-.7 1.2-1 .5-.2 1-.3 1.3-.3s.6.1.8.3.5.6.8 1.3l.7 1.8c.2.5.4.9.5 1.1.1.2.3.5.5.7l-1.2.5-.4-.6c-.1.3-.3.6-.4.9-.2.2-.4.4-.7.5-.5.2-.9.2-1.3 0s-.7-.5-1-1c-.1-.3-.2-.6-.2-.9 0-.3.1-.6.3-.8s.4-.5.9-.8c.5-.4.9-.7 1-.9-.1-.3-.2-.5-.3-.6s-.2-.1-.4-.1c-.1 0-.3 0-.5.1s-.4.2-.5.4v.7zm2.2.5c-.1.1-.3.3-.6.5-.3.3-.5.5-.6.7s-.1.4 0 .6c.1.2.2.4.4.5s.4.1.6 0c.2-.1.3-.2.4-.4s.2-.4.2-.6c0-.2-.1-.5-.3-.9l-.1-.4z"/><path id="XMLID_76_" class="st1" d="M137.8 121.6l.5 1.2-.8.4 1 2.3c.2.5.3.8.4.9.1.1.2.2.4.1.1 0 .3-.2.4-.4l.6 1.1c-.2.3-.5.5-.9.6-.3.1-.6.2-.9.1-.3-.1-.5-.2-.7-.5l-.6-1.2-1.1-2.5-.6.2-.5-1.2.6-.2-.5-1.1.9-1.4.9 2 .9-.4z"/><path id="XMLID_78_" class="st1" d="M142.8 126.2l-5.7-6.9 1.4-.6 4.1 5.2-.9-6.5 1.4-.6 1 8.9-1.3.5z"/></g><path class="st1" d="M161.6 66.5L55.9 108.6 32.2 65.5l105.1-38.1z" id="XMLID_5578_"/><g id="XMLID_4604_"><path transform="scale(-1) rotate(-27.431 -277.052 268.627)" d="M64.3 61.3h2.5v12.6h-2.5z" id="XMLID_7865_"/><path transform="scale(-1) rotate(-27.431 -322.555 292.266)" fill="red" d="M70.1 72.4h2.5V85h-2.5z" id="XMLID_7864_"/><path transform="scale(-1) rotate(-27.431 -368.422 316.094)" fill="#fc0" d="M75.9 83.6h2.5v12.6h-2.5z" id="XMLID_7863_"/></g><g id="XMLID_7813_"><path d="M54.3 76.8c-.2-.1 0-.5-.3-.4-.4.1-.1.5-.4.7 0-.1-.1-.4-.1-.4-.6.1-.3-.3-.2-.5.4-1 .6-2 0-2.9-.3.1-.2.3-.3.5-.2 1.1-.4 2.3-.6 3.4-.1.7-.4 1.3-1.3 1.6.2-.7.6-1.3.4-2.1-.4.6-.6 1.4-1.6 1.6.4-.9.7-1.9.6-2.9-.4.8-.4 1.8-1.6 2.1.3-.8.6-1.6.5-2.5-.5.5-.6 1.4-1.6 1.6.5-1.1.7-2.2.7-3.4-.4.7-.4 1.7-1.6 1.9.8-1.8.8-3.6 1.1-5.4.1-.4 1.3-1.4 1.7-1.4.1 0 .3.1.3.2 0 .2-.1.4-.3.6-.8.6-.9 1.1-.4 1.7.4.5 1.9.6 2.3.2s.3-1.1.4-1.6c.1-.4-.5-.1-.7-.4 0-.1 0-.1.1-.2.2-.1.5 0 .7-.3-.4-.1-.8.3-1.2 0 .2-.3 1.1 0 .7-.8.2-.1.3.3.6.1l-.3-.6c.2-.1.4.2.6-.1 0-.1 0-.2-.1-.1-.2 0-.5-.1-.4.3-.5-.1-1 0-1.5.3h-.1c.2-.5.8-.3 1-.8.3-.1.6-.3.9-.4.6-.1 1.1.5 1.3 1.2.1.4 0 .8.2 1.2.3.9.9 1 1.6.4.5-.4.9-.9.7-1.6-.2-.7-.6-.9-1.3-.7-.3.1-.7.1-.8-.2-.1-.3.3-.4.5-.5 1-.3 1.9-.3 2.5.4.5.6 1.2.9 1.8 1.3.6.4 1.3.8 2.1 1-1 .7-1.7.1-2.5-.1.9.8 1.8 1.4 3 1.7-.6.4-.6.4-2.2.2.6.6 1.4 1 2.2 1.3-1.4.9-2.2-.3-3.2-.5.9.7 1.8 1.4 3 1.7-.5.3-.5.3-2.3.1.5.6 1.2.8 1.9 1-.7.5-1.3.4-1.9 0-1-.6-1.9-1.2-2.9-1.8-.2-.1-.4-.4-.8-.3.3 1.3 1.4 1.8 2.7 2.2-.4.1-.4.5-.8.4 0 0-.1 0-.2.1-.4.5-.4.5-1 .1.3 1.6 1 2.5 2.3 3-.2.6-.6.4-1.1.2 0 .8-.3 1-.9.4-.2.4-.2.9-.9.7.8-1.4 0-2.6-.6-3.8-.3.4.3 1-.4 1.3zm1.8-10c.5 1 .4 1.9-.5 2.7-.2.1-.4.3-.5.4-.3.2-.1.3 0 .5s.2.2.4.1c.8-.5 1.3-1.1 1.4-2 .1-.7-.1-1.3-.8-1.7zm-7.5 3.3c-.2.3-.1.6.1.9.4.9 1.7 1.5 2.9 1.2.2 0 .6 0 .5-.4s-.3-.3-.6-.2c-1.6.2-2.5-.2-2.9-1.5zm8.2.4c.6.8.9.9 1.5.8-.4-.3-.8-.6-1.5-.8zm1 1.9c-.4-.3-.7-.7-1.3-.7.4.4.7.8 1.3.7zm-8 1.2h-.2c-.2.5-.3 1-.1 1.5.1-.6.2-1.1.3-1.5zm8-1.1c.4.3.7.7 1.3.7-.4-.3-.7-.6-1.3-.7zm-6.1 2.7c-.3.5-.4.9-.3 1.6.3-.6.3-1.1.3-1.6zm.3-1.5c-.3.4-.4.9-.4 1.7.4-.7.4-1.2.4-1.7zm5.9-3.8c.4.3.7.7 1.3.7-.4-.3-.7-.7-1.3-.7zm-7.1 3.9c-.3.5-.4.7-.2 1.1.2-.4.2-.6.2-1.1zm7.7-5c-.2-.3-.3-.4-.6-.4 0 .3.1.4.6.4zm-7.7 4.5c-.1.1-.1.2-.1.2 0 .1-.1.4.2.3.1 0 .1-.3-.1-.5zm-2.3-.8c-.1.2-.3.5 0 .7.3-.3.3-.4 0-.7zm2.2 2.4s-.1-.1-.2-.1c-.1.1-.2.2-.2.3 0 .1.1.2.2.1.2 0 .2-.1.2-.3zm7.1-5.3s-.1 0-.2-.1c0 .1-.1.2 0 .2 0 .1.1.1.2.1 0 0 .2 0 0-.2zm-8.3 3.8h.2s.1-.1.1-.2c0 0-.1-.1-.2-.1-.1.1-.1.2-.1.3zm2.6.1c-.1 0-.2-.1-.2-.1l-.1.1c0 .1 0 .2.1.1.1 0 .2-.1.2-.1zm3.7-6.9s0 .1 0 0c0 .1.1.1 0 0 .1 0 .1 0 0 0zm-7.2 3.2c0 .1.1.1 0 0 .1 0 .1 0 0 0zm7.7 1.7c0 .1 0 .1 0 0 0 .1 0 .1 0 0 .1.1.1 0 0 0z" id="XMLID_7841_"/><path d="M53.3 77.8c.3.2.1.3-.2.4-.3.1-.6.1-.8.5.4.2.6-.4 1-.2-.2.3-.7.2-.9.5-.1.1-.3-.1-.4-.2-.1-.2 0-.4.2-.5.5-.2 1-.1 1.1-.5z" id="XMLID_7840_"/><path d="M58.6 75.5c.4.2.6-.2.8-.3.3-.1.6-.2.7.1.1.3 0 .5-.4.4-.2-.1-.3.5-.6.2.1-.4.6-.2.9-.5-.4-.2-.6 0-.8.2-.4.1-.6.3-.6-.1z" id="XMLID_7839_"/><path d="M59.1 77.3c-.3.2-.3.2-.4-.2-.1-.5-.2-1-1.1-.5.7-.6 1-.5 1.2.1.1.2-.1.6.3.6z" id="XMLID_7838_"/><path d="M54.3 79.5c.3-.3-.1-.5-.2-.7-.3-.7-.3-.8.7-.9-.8.2-.8.7-.3 1.1.1.2.4.3 0 .5h-.2z" id="XMLID_7837_"/><path d="M57.6 75.6c.2.1.4.2.5.4-.2.4-.9.1-.8.7 0 .2-.1 0-.1 0-.1-.2-.1-.4.1-.4.4-.2.6-.4.3-.7z" id="XMLID_7836_"/><path d="M51.6 67.7c-.2.1-.5.3-.7.3-.4.1-.6-.1-.5-.5h.1c.1.2.2.4.5.2.1 0 .3-.1.6 0z" id="XMLID_7835_"/><path d="M53 79.2c.1.2.1.7.5.2 0 .2.3.5-.1.5-.4-.1-.6-.4-.4-.7z" id="XMLID_7834_"/><path d="M54 77.2c0 .3.5.3.4.5 0 .1-.3.2-.4.1-.2-.2-.1-.4 0-.6z" id="XMLID_7833_"/><path d="M59.8 76.1c.3.2.4.5.2.7-.2.3-.3 0-.4-.2.4 0 .3-.2.2-.5z" id="XMLID_7832_"/><path d="M53.5 79.3c-.2-.3 0-.5.1-.8.2.4.3.7.4.9-.2.2-.2-.8-.5-.1z" id="XMLID_7831_"/><path d="M59.3 77.1c-.1-.3-.3-.5-.3-.9.4.3.3.6.3.9z" id="XMLID_7830_"/><path d="M55.1 77.8c-.1-.1-.1-.3-.2-.5.2.1.3.2.2.5z" id="XMLID_7829_"/><path d="M54.7 77.9c.1 0 .2-.1.3-.1 0 .1 0 .2-.1.2 0 0-.1 0-.2-.1z" id="XMLID_7828_"/><path d="M58.1 75.4c-.1-.1-.2-.1-.3-.3.2 0 .3.1.3.3z" id="XMLID_7827_"/><path d="M53.6 77c.1.1.1.3 0 .4-.1-.1-.2-.2 0-.4z" id="XMLID_7826_"/><path d="M53.6 77.4c0 .1-.1.1-.1.2 0-.1-.1-.3.1-.2z" id="XMLID_7825_"/><path d="M58.1 75.4c.1-.2.2-.1.2 0-.1.1-.1.1-.2 0z" id="XMLID_7824_"/><path d="M53.3 77.8c0-.1.1-.1.1-.2.1.1.2.2-.1.2z" id="XMLID_7823_"/><path d="M58.6 75.4c-.1.2-.2.1-.2 0 0 .1.1.1.2 0 0 .1 0 0 0 0z" id="XMLID_7822_"/><path d="M53 79.2V79h.1c0 .1 0 .1-.1.2z" id="XMLID_7821_"/><path d="M51.3 68.9c-.1 0-.2 0 0 0-.1-.1 0-.1.1-.2-.1.1-.1.2-.1.2z" id="XMLID_7820_"/><path d="M57.8 75.1h-.2V75c.1.1.2.1.2.1z" id="XMLID_7819_"/><path d="M54.1 79.4c.1-.1.2 0 .2.1-.1 0-.2 0-.2-.1z" id="XMLID_7818_"/><path d="M54.1 77v-.2h.1s0 .1-.1.2z" id="XMLID_7817_"/><path d="M54.1 77c0 .1 0 .2-.1.2 0-.1 0-.2.1-.2z" id="XMLID_7816_"/><path d="M57.6 75.5h-.2v-.1c.1.1.2.1.2.1 0 .1 0 0 0 0z" id="XMLID_7815_"/><path d="M59.2 77.3c0-.1 0-.2.1-.2 0 .1 0 .2-.1.2z" id="XMLID_7814_"/></g><g id="XMLID_7696_"><path d="M69.9 58.5c.2-.2.6-.4 1-.5.6-.2 1-.3 1.4-.2.3.1.5.3.7.6.2.4 0 .9-.4 1.2.5-.1 1.1 0 1.4.7.1.4.1.7 0 1-.2.4-.7.7-1.4 1-.4.2-.7.3-.9.3l-1.8-4.1zm1.2 1.4l.5-.2c.6-.3.8-.7.7-1.1-.2-.5-.7-.5-1.3-.3-.3.1-.4.2-.5.2l.6 1.4zm.9 2c.1 0 .3-.1.5-.2.6-.2 1.1-.7.8-1.3-.2-.6-.9-.6-1.5-.3l-.5.2.7 1.6z" id="XMLID_7809_"/><path d="M77.5 59.2c.1.3.2.6.4.8l-.6.2-.2-.5c-.1.3-.3.8-.8 1s-1.2.2-1.6-.8l-.7-1.7.6-.2.7 1.6c.2.6.6.9 1.1.6.4-.2.6-.5.6-.8 0-.1 0-.2-.1-.3l-.9-1.9.6-.2.9 2.2z" id="XMLID_7807_"/><path d="M77.9 57.4c-.1-.3-.2-.6-.4-.8l.5-.2.2.5c0-.3.3-.8.8-1 .4-.2 1.2-.2 1.7.8l.7 1.8-.6.2-.7-1.7c-.2-.5-.6-.8-1.1-.6-.4.2-.6.5-.6.9 0 .1 0 .2.1.3l.7 1.8-.6.2-.7-2.2z" id="XMLID_7805_"/><path d="M83.4 52.6l1.5 3.6c.1.3.2.6.3.8l-.5.2-.2-.5c0 .4-.3.8-.9 1-.8.3-1.6 0-2-.9-.4-1 0-1.9.8-2.2.5-.2.9-.1 1.2.1l-.7-1.8.5-.3zm.5 2.8c0-.1-.1-.2-.1-.2-.2-.3-.7-.5-1.1-.3-.6.2-.8.9-.5 1.5.2.6.8 1 1.4.7.4-.2.7-.5.6-1 0-.1 0-.2-.1-.2l-.2-.5z" id="XMLID_7802_"/><path d="M86 55c.3.7.9.8 1.5.6.4-.2.6-.3.8-.5l.3.3c-.2.2-.5.4-1 .6-1 .4-1.8.1-2.2-.8-.4-.9-.1-1.8.9-2.2 1-.4 1.7.3 1.9.8 0 .1.1.2.1.3L86 55zm1.5-1.1c-.1-.3-.5-.8-1.2-.5-.6.2-.6.9-.5 1.2l1.7-.7z" id="XMLID_7799_"/><path d="M89.2 54.6c.2 0 .6 0 .9-.1.4-.2.5-.5.4-.7-.1-.3-.3-.3-.8-.3-.7 0-1.1-.1-1.2-.5-.2-.5.1-1 .8-1.3.3-.1.6-.2.9-.1v.5c-.2 0-.4 0-.7.1-.3.1-.5.4-.4.6s.3.3.8.2c.6 0 1 .1 1.2.5.2.5-.1 1.1-.8 1.4-.4.1-.7.2-1 .2l-.1-.5z" id="XMLID_7797_"/><path d="M91.3 51.9c-.1-.3-.2-.6-.4-.8l.5-.2.2.5c.1-.4.3-.7.8-1 .4-.2.9-.1 1.2.2 0-.2.1-.4.2-.5.1-.2.3-.4.6-.5.4-.2 1.2-.2 1.6.8l.7 1.7-.6.2-.7-1.7c-.2-.6-.6-.8-1.1-.6-.3.1-.5.5-.5.8 0 .1 0 .2.1.3l.8 1.8-.6.2-.7-1.8c-.2-.5-.6-.7-1-.5s-.5.5-.5.8c0 .1 0 .2.1.3l.7 1.8-.6.2-.8-2z" id="XMLID_7795_"/><path d="M96.8 47.7c.1.2 0 .4-.2.5s-.4 0-.5-.2 0-.4.2-.5c.2-.1.4 0 .5.2zm.9 4.1l-1.2-3 .6-.2 1.2 3-.6.2z" id="XMLID_7792_"/><path d="M98.4 49c-.1-.3-.2-.6-.4-.8l.5-.2.2.5c0-.3.3-.8.8-1 .4-.2 1.2-.2 1.7.8l.7 1.8-.6.2-.7-1.7c-.2-.5-.6-.8-1.1-.6-.4.2-.6.5-.6.9 0 .1 0 .2.1.3l.7 1.8-.6.2-.7-2.2z" id="XMLID_7790_"/><path d="M102 45.5c.1.2 0 .4-.2.5s-.4 0-.5-.2 0-.4.2-.5c.2 0 .4 0 .5.2zm.9 4.1l-1.2-3 .6-.2 1.2 3-.6.2z" id="XMLID_7787_"/><path d="M104.2 48.4c.2 0 .6 0 .9-.1.4-.2.5-.5.4-.7-.1-.3-.3-.3-.8-.3-.7 0-1.1-.1-1.2-.5-.2-.5.1-1 .8-1.3.3-.1.6-.2.9-.1v.5c-.2 0-.4 0-.7.1-.3.1-.5.4-.4.6s.3.3.8.2c.6 0 1 .1 1.2.5.2.5-.1 1.1-.8 1.4-.4.1-.7.2-1 .2l-.1-.5z" id="XMLID_7785_"/><path d="M106.3 43.8l.4.9.8-.3.2.4-.8.3.7 1.6c.2.4.4.5.7.4.2-.1.3-.1.3-.2l.2.4c-.1.1-.3.2-.5.3-.3.1-.5.1-.7 0s-.4-.3-.5-.7l-.7-1.6-.5.2-.2-.4.5-.2-.3-.7.4-.4z" id="XMLID_7783_"/><path d="M109 45.5c.3.7.9.8 1.5.6.4-.2.6-.3.8-.5l.3.3c-.2.2-.5.4-1 .6-1 .4-1.8.1-2.2-.8-.4-.9-.1-1.8.9-2.2 1-.4 1.7.3 1.9.8 0 .1.1.2.1.3l-2.3.9zm1.6-1.1c-.1-.3-.5-.8-1.2-.5-.6.2-.6.9-.5 1.2l1.7-.7z" id="XMLID_7780_"/><path d="M111.8 43.6c-.1-.3-.3-.6-.4-.9l.5-.2.3.6c0-.5.2-.9.6-1 .1 0 .1 0 .2-.1l.2.5c-.1 0-.1 0-.2.1-.4.2-.6.6-.5 1 0 .1 0 .2.1.3l.7 1.6-.6.2-.9-2.1z" id="XMLID_7778_"/><path d="M113.9 40.6c.1.2 0 .4-.2.5s-.4 0-.5-.2 0-.4.2-.5c.2 0 .4 0 .5.2zm.9 4.1l-1.2-3 .6-.2 1.2 3-.6.2z" id="XMLID_7775_"/><path d="M118.7 42.1c.1.3.2.6.4.8l-.5.2-.2-.5c-.1.3-.3.8-.8 1s-1.2.2-1.6-.8l-.7-1.7.6-.2.7 1.6c.2.6.6.9 1.1.6.4-.2.6-.5.6-.8 0-.1 0-.2-.1-.3l-.7-1.8.6-.2.6 2.1z" id="XMLID_7773_"/><path d="M119.1 40.4c-.1-.3-.2-.6-.4-.8l.5-.2.2.5c.1-.4.3-.7.8-1 .4-.2.9-.1 1.2.2 0-.2.1-.4.2-.5.1-.2.3-.4.6-.5.4-.2 1.2-.2 1.6.8l.7 1.7-.6.2-.6-1.6c-.2-.6-.6-.8-1.1-.6-.3.1-.5.5-.5.8 0 .1 0 .2.1.3l.8 1.8-.6.2-.7-1.8c-.2-.5-.6-.7-1-.5s-.5.5-.5.8c0 .1 0 .2.1.3l.7 1.8-.6.2-.9-2.1z" id="XMLID_7771_"/><path d="M75.5 64.4L77 68c.1.3.2.6.3.8l-.5.2-.2-.5c0 .4-.3.8-.9 1-.8.3-1.6 0-2-.9-.4-1 0-1.9.8-2.2.5-.2.9-.1 1.2.1l-.7-1.8.5-.3zm.5 2.8c0-.1-.1-.2-.1-.2-.2-.3-.7-.5-1.1-.3-.6.2-.8.9-.5 1.5.2.6.8 1 1.4.7.4-.2.7-.5.6-1 0-.1 0-.2-.1-.2l-.2-.5z" id="XMLID_7768_"/><path d="M78 66.8c.3.7.9.8 1.5.6.4-.2.6-.3.8-.5l.3.3c-.2.2-.5.4-1 .6-1 .4-1.8.1-2.2-.8-.4-.9-.1-1.8.9-2.2 1-.4 1.7.3 1.9.8 0 .1.1.2.1.3l-2.3.9zm1.6-1.1c-.1-.3-.5-.8-1.2-.5-.6.2-.6.9-.5 1.2l1.7-.7z" id="XMLID_7765_"/><path d="M80.8 64.9c-.1-.3-.3-.6-.4-.9l.5-.2.3.6c0-.5.2-.9.6-1 .1 0 .1 0 .2-.1l.2.5c-.1 0-.1 0-.2.1-.4.2-.6.6-.5 1 0 .1 0 .2.1.3l.7 1.6-.6.2-.9-2.1z" id="XMLID_7763_"/><path d="M84.4 61l.6-.2 1.1 2.8c.5 1.1 0 1.7-.8 2-.2.1-.5.2-.7.2l-.1-.5c.1 0 .3 0 .5-.1.5-.2.7-.6.4-1.4l-1-2.8z" id="XMLID_7761_"/><path d="M90 62.6c.1.3.2.6.4.8l-.5.2-.2-.5c-.1.3-.3.8-.8 1s-1.2.2-1.6-.8l-.7-1.7.6-.2.7 1.6c.2.6.6.9 1.1.6.4-.2.6-.5.6-.8 0-.1 0-.2-.1-.3l-.7-1.8.6-.2.6 2.1z" id="XMLID_7759_"/><path d="M91 62.5c.2 0 .6 0 .9-.1.4-.2.5-.5.4-.7-.1-.3-.3-.3-.8-.3-.7 0-1.1-.1-1.2-.5-.2-.5.1-1 .8-1.3.3-.1.6-.2.9-.1v.5c-.2 0-.4 0-.7.1-.3.1-.5.4-.4.6s.3.3.8.2c.6 0 1 .1 1.2.5.2.5-.1 1.1-.8 1.4-.4.1-.7.2-1 .2l-.1-.5z" id="XMLID_7757_"/><path d="M93.1 57.8l.4.9.8-.3.2.4-.8.3.7 1.6c.2.4.4.5.7.4.2-.1.3-.1.3-.2l.2.4c-.1.1-.3.2-.5.3-.3.1-.5.1-.7 0s-.4-.3-.5-.7l-.7-1.6-.5.2-.2-.4.5-.2-.3-.7.4-.4z" id="XMLID_7755_"/><path d="M95.2 56.9c.1.2 0 .4-.2.5s-.4 0-.5-.2 0-.4.2-.5.4 0 .5.2zm.9 4.1l-1.2-3 .6-.2 1.2 3-.6.2z" id="XMLID_7752_"/><path d="M97.2 60.2l.7-2.3c.1-.2.1-.4.2-.6l-1.7.7-.2-.4 2.5-1 .1.3-.7 2.3c-.1.2-.1.4-.2.6l1.9-.8.2.4-2.6 1.1-.2-.3z" id="XMLID_7750_"/><path d="M104.3 56.7c.1.3.2.6.4.8l-.5.2-.2-.5c-.1.3-.3.8-.8 1s-1.2.2-1.6-.8l-.7-1.7.6-.2.7 1.6c.2.6.6.9 1.1.6.4-.2.6-.5.6-.8 0-.1 0-.2-.1-.3l-.7-1.8.6-.2.6 2.1z" id="XMLID_7748_"/><path d="M104.7 54.9c-.1-.3-.2-.6-.4-.8l.5-.2.2.5c0-.3.3-.8.8-1 .4-.2 1.2-.2 1.7.8l.7 1.8-.6.2-.7-1.7c-.2-.5-.6-.8-1.1-.6-.4.2-.6.5-.6.9 0 .1 0 .2.1.3l.7 1.8-.6.2-.7-2.2z" id="XMLID_7746_"/><path d="M110.3 50.1l1.5 3.6c.1.3.2.6.3.8l-.5.2-.2-.5c0 .4-.3.8-.9 1-.8.3-1.6 0-2-.9-.4-1 0-1.9.8-2.2.5-.2.9-.1 1.2.1l-.7-1.8.5-.3zm.5 2.8c0-.1-.1-.2-.1-.2-.2-.3-.7-.5-1.1-.3-.6.2-.8.9-.5 1.5.2.6.8 1 1.4.7.4-.2.7-.5.6-1 0-.1 0-.2-.1-.2l-.2-.5z" id="XMLID_7743_"/><path d="M77.6 77.2l-1.1-2.6-.5.2-.2-.4.5-.2-.1-.1c-.2-.4-.2-.8-.1-1.2.1-.3.4-.5.7-.6.2-.1.4-.1.5-.1l.1.4c-.1 0-.2 0-.4.1-.5.2-.5.7-.3 1.1l.1.2.8-.3.2.4-.8.3 1.1 2.6-.5.2z" id="XMLID_7741_"/><path d="M81.9 74.5c.1.3.2.6.4.8l-.5.2-.2-.5c-.1.3-.3.8-.8 1s-1.2.2-1.6-.8l-.7-1.7.6-.2.7 1.6c.2.6.6.9 1.1.6.4-.2.6-.5.6-.8 0-.1 0-.2-.1-.3l-.7-1.8.6-.2.6 2.1zm-3.5-2c-.1-.2 0-.4.2-.5s.4 0 .5.2 0 .4-.2.4c-.3.1-.5 0-.5-.1zm1.2-.6c-.1-.2 0-.4.2-.4s.4 0 .5.2 0 .4-.2.4c-.2.1-.4 0-.5-.2z" id="XMLID_7737_"/><path d="M82.3 72.9c-.1-.3-.3-.6-.4-.9l.5-.2.3.6c0-.5.2-.9.6-1 .1 0 .1 0 .2-.1l.2.5c-.1 0-.1 0-.2.1-.4.2-.6.6-.5 1 0 .1 0 .2.1.3l.7 1.6-.6.2-.9-2.1z" id="XMLID_7735_"/><path d="M87.5 73.1l-3.2-3.5.6-.3 1.5 1.7c.4.5.8.9 1.1 1.3-.1-.5-.1-1.1-.1-1.7l-.1-2.4.6-.3.1 4.8-.5.4z" id="XMLID_7733_"/><path d="M89.8 70.6c.3.7.9.8 1.5.6.4-.2.6-.3.8-.5l.3.3c-.2.2-.5.4-1 .6-1 .4-1.8.1-2.2-.8-.4-.9-.1-1.8.9-2.2 1-.4 1.7.3 1.9.8 0 .1.1.2.1.3l-2.3.9zm1.5-1.1c-.1-.3-.5-.8-1.2-.5-.6.2-.6.9-.5 1.2l1.7-.7z" id="XMLID_7730_"/><path d="M92.5 68.7c-.1-.3-.3-.6-.4-.9l.5-.2.3.6c0-.5.2-.9.6-1 .1 0 .1 0 .2-.1l.2.5c-.1 0-.1 0-.2.1-.4.2-.6.6-.5 1 0 .1 0 .2.1.3l.7 1.6-.6.2-.9-2.1z" id="XMLID_7728_"/><path d="M95.5 69.8c-.1-.2-.2-.5-.3-.8l-1.5-3.6.6-.2.8 1.9c.1-.4.4-.8.9-1 .8-.3 1.6 0 2 1 .4 1.1-.1 1.9-.8 2.2-.5.2-.9.2-1.3-.1l.2.5-.6.1zm.1-1.4c0 .1.1.1.1.2.3.3.7.4 1.1.3.6-.3.8-.9.5-1.5-.2-.6-.8-1-1.4-.7-.4.2-.7.6-.6 1 0 .1 0 .1.1.2l.2.5z" id="XMLID_7725_"/><path d="M98.5 66.2c-.1-.3-.3-.6-.4-.9l.5-.2.3.6c0-.5.2-.9.6-1 .1 0 .1 0 .2-.1l.2.5c-.1 0-.1 0-.2.1-.4.2-.6.6-.5 1 0 .1 0 .2.1.3l.7 1.6-.6.2-.9-2.1z" id="XMLID_7723_"/><path d="M103.2 66.6l-.2-.4c-.1.3-.3.7-.8.8-.7.3-1.2 0-1.3-.4-.3-.7.2-1.4 1.5-1.9v-.1c-.1-.2-.4-.7-1-.4-.3.1-.6.3-.7.6l-.3-.3c.2-.3.5-.5.9-.7 1-.4 1.5.1 1.7.7l.5 1.1c.1.3.2.5.3.7l-.6.3zm-.7-1.4c-.6.2-1.3.7-1.1 1.2.1.3.5.4.8.3.4-.2.6-.5.6-.8v-.2l-.3-.5z" id="XMLID_7720_"/><path d="M107 64.1c.1.3.2.6.4.8l-.5.2-.2-.5c-.1.3-.3.8-.8 1s-1.2.2-1.6-.8l-.7-1.7.6-.2.7 1.6c.2.6.6.9 1.1.6.4-.2.6-.5.6-.8 0-.1 0-.2-.1-.3l-.7-1.8.6-.2.6 2.1z" id="XMLID_7718_"/><path d="M110.5 63.5c-.1.1-.4.4-.9.6-1 .4-1.9.1-2.2-.9-.4-.9 0-1.9 1.1-2.3.3-.1.7-.2.9-.2v.5c-.2 0-.4 0-.7.1-.7.3-.9 1-.7 1.6.3.7.9.9 1.6.6.3-.1.5-.3.7-.4l.2.4z" id="XMLID_7716_"/><path d="M109.5 59l.6-.2.8 1.8c0-.2.1-.4.3-.6.1-.2.3-.3.5-.4.4-.2 1.2-.2 1.6.8l.7 1.8-.6.2-.7-1.7c-.2-.5-.6-.8-1.1-.6-.4.2-.6.5-.6.9 0 .1 0 .2.1.3l.7 1.8-.6.2-1.7-4.3z" id="XMLID_7714_"/><path d="M114.7 60.3c.3.7.9.8 1.5.6.4-.2.6-.3.8-.5l.3.3c-.2.2-.5.4-1 .6-1 .4-1.8.1-2.2-.8-.4-.9-.1-1.8.9-2.2 1-.4 1.7.3 1.9.8 0 .1.1.2.1.3l-2.3.9zm1.6-1.1c-.1-.3-.5-.8-1.2-.5-.6.2-.6.9-.5 1.2l1.7-.7z" id="XMLID_7711_"/><path d="M117.4 58.4c-.1-.3-.3-.6-.4-.9l.5-.2.3.6c0-.5.2-.9.6-1 .1 0 .1 0 .2-.1l.2.5c-.1 0-.1 0-.2.1-.4.2-.6.6-.5 1 0 .1 0 .2.1.3l.7 1.6-.6.2-.9-2.1z" id="XMLID_7709_"/><path d="M120.1 59c.2 0 .6 0 .9-.1.4-.2.5-.5.4-.7-.1-.3-.3-.3-.8-.3-.7 0-1.1-.1-1.2-.5-.2-.5.1-1 .8-1.3.3-.1.6-.2.9-.1v.5c-.2 0-.4 0-.7.1s-.5.4-.4.6.3.3.8.2c.6 0 1 .1 1.2.5.2.5-.1 1.1-.8 1.4-.4.1-.7.2-1 .2l-.1-.5z" id="XMLID_7707_"/><path d="M125.3 57.4c-.1.1-.4.4-.9.6-1 .4-1.9.1-2.2-.9-.4-.9 0-1.9 1.1-2.3.3-.1.7-.2.9-.2v.5c-.2 0-.4 0-.7.1-.7.3-.9 1-.7 1.6.3.7.9.9 1.6.6.3-.1.5-.3.7-.4l.2.4z" id="XMLID_7705_"/><path d="M124.3 52.9l.6-.2.8 1.8c0-.2.1-.4.3-.6.1-.2.3-.3.5-.4.4-.2 1.2-.2 1.6.8l.7 1.8-.6.2-.7-1.7c-.2-.5-.6-.8-1.1-.6-.4.2-.6.5-.6.9 0 .1 0 .2.1.3l.7 1.8-.6.2-1.7-4.3z" id="XMLID_7703_"/><path d="M132.1 53.8c.1.3.2.6.4.8l-.5.2-.2-.5c-.1.3-.3.8-.8 1s-1.2.2-1.6-.8l-.7-1.7.6-.2.7 1.6c.2.6.6.9 1.1.6.4-.2.6-.5.6-.8 0-.1 0-.2-.1-.3l-.7-1.8.6-.2.6 2.1z" id="XMLID_7701_"/><path d="M132.5 50.1l.4.9.8-.3.2.4-.8.3.7 1.6c.2.4.4.5.7.4.2-.1.3-.1.3-.2l.2.4c-.1.1-.3.2-.5.3-.3.1-.5.1-.7 0s-.4-.3-.5-.7l-.7-1.6-.5.2-.2-.4.4-.2-.3-.7.5-.4z" id="XMLID_7699_"/><path d="M135.1 53.1l.7-2.3c.1-.2.1-.4.2-.6l-1.7.7-.2-.4 2.5-1 .1.3-.7 2.3c-.1.2-.1.4-.2.6l1.9-.8.2.4-2.6 1.1-.2-.3z" id="XMLID_7697_"/></g></svg>