<?xml version="1.0" encoding="UTF-8"?> <svg xmlns="http://www.w3.org/2000/svg" id="Layer_1" x="0" y="0" viewBox="0 0 240.7 183.2" xml:space="preserve"><style>.st0{fill:#343434}.st2{fill:#010202}</style><g id="XMLID_1_"><g id="XMLID_490_"><g id="XMLID_3_"><g id="XMLID_472_"><g id="XMLID_582_"><g id="XMLID_583_"><path class="st0" d="M46.9 16.4l-1.3-9.8v-.2c-.1-1.2-1.1-2.1-2.3-2.1H41V2.2h1.2c1.5-.1 3.1-.2 4.1 1.1.8 1 1.3 2.2 1.5 3.5l1 7.1.4 2.4-2.3.1zM46 6.6l1.2 9.5 1.6-.1-.3-2-1-7.1c-.2-1.2-.7-2.4-1.4-3.3-.9-1.2-2.4-1.1-3.9-1h-.9V4h2c1.4 0 2.6 1.1 2.6 2.4.1.1.1.1.1.2z" id="XMLID_584_"></path></g></g></g></g><g id="XMLID_5_"><g id="XMLID_469_"><g id="XMLID_575_"><g id="XMLID_576_"><path class="st0" d="M33.1 9.8H24V6.4h9.1c.9 0 1.7.8 1.7 1.7s-.7 1.7-1.7 1.7zm-8.7-.3h8.7c.8 0 1.4-.6 1.4-1.4s-.6-1.4-1.4-1.4h-8.7v2.8z" id="XMLID_577_"></path></g></g></g></g><g id="XMLID_100_"><g id="XMLID_468_"><g id="XMLID_570_"><g id="XMLID_571_"><path class="st0" d="M28.6 16.6l-1.9-.7L29 9.6l.3.1-2.2 6 1.3.5 2.4-6.6.3.1z" id="XMLID_489_"></path></g></g></g></g><g id="XMLID_6_"><g id="XMLID_465_"><g id="XMLID_563_"><g id="XMLID_564_"><path class="st0" d="M37.1 18.4c-1.2 0-2.2-1-2.2-2.2 0-1.2 1-2.2 2.2-2.2 1.2 0 2.2 1 2.2 2.2 0 1.2-1 2.2-2.2 2.2zm0-4c-1 0-1.8.8-1.8 1.8s.8 1.8 1.8 1.8 1.8-.8 1.8-1.8-.8-1.8-1.8-1.8z" id="XMLID_565_"></path></g></g></g></g><g id="XMLID_45_"><g id="XMLID_464_"><g id="XMLID_558_"><g id="XMLID_559_"><path class="st0" d="M29 17.8h7v.3h-7z" id="XMLID_488_"></path></g></g></g></g><g id="XMLID_98_"><g id="XMLID_463_"><g id="XMLID_553_"><g id="XMLID_554_"><path class="st0" d="M28.9 15.2h6.4v.3h-6.4z" id="XMLID_487_"></path></g></g></g></g><g id="XMLID_29_"><g id="XMLID_462_"><g id="XMLID_548_"><g id="XMLID_549_"><path class="st0" d="M39.3 19.3h-1.5v-.4H39v-1h-.5v-.3h.8z" id="XMLID_486_"></path></g></g></g></g><g id="XMLID_94_"><g id="XMLID_461_"><g id="XMLID_543_"><g id="XMLID_544_"><path class="st0" d="M38 21.2h-2.1V18h.3v2.8h1.5v-2.7h.3z" id="XMLID_485_"></path></g></g></g></g><g id="XMLID_14_"><g id="XMLID_11_"><g id="XMLID_460_"><g id="XMLID_538_"><g id="XMLID_539_"><path class="st0" d="M48.1 19c-1.3 0-2.3-1-2.3-2.3 0-.8.4-1.5 1-1.9l.2.2c-.5.4-.9 1-.9 1.6 0 1.1.9 2 2 2s2-.9 2-2c0-.9-.6-1.7-1.5-1.9l.1-.3c1 .3 1.7 1.2 1.7 2.2.1 1.3-1 2.4-2.3 2.4z" id="XMLID_484_"></path></g></g></g></g><g id="XMLID_15_"><g id="XMLID_459_"><g id="XMLID_533_"><g id="XMLID_534_"><path class="st0" d="M48.1 22.8c-3.4 0-6.2-2.8-6.2-6.2 0-2.7 1.8-5.1 4.4-5.9l.1.3c-2.5.8-4.2 3-4.2 5.6 0 3.2 2.6 5.9 5.9 5.9 3.2 0 5.9-2.6 5.9-5.9 0-3.2-2.6-5.9-5.8-5.9v-.3c3.4 0 6.2 2.8 6.2 6.2-.1 3.5-2.9 6.2-6.3 6.2z" id="XMLID_483_"></path></g></g></g></g></g><g id="XMLID_93_"><g id="XMLID_458_"><g id="XMLID_527_"><g id="XMLID_528_"><path class="st0" d="M27.3 19C26 19 25 18 25 16.7c0-1.3 1-2.3 2.3-2.3h.1v.3c-1.1 0-2 .9-2 2s.9 2 2 2c.6 0 1.2-.3 1.6-.8.3-.4.4-.8.4-1.2 0-.4-.1-.9-.4-1.2l-.1-.1.2-.2.1.1c.3.4.5.9.5 1.4 0 .5-.2 1-.5 1.4-.5.5-1.1.9-1.9.9z" id="XMLID_482_"></path></g></g></g></g><g id="XMLID_101_"><g id="XMLID_457_"><g id="XMLID_521_"><g id="XMLID_523_"><path class="st0" d="M27.3 22.8c-3.4 0-6.2-2.8-6.2-6.2 0-3.4 2.8-6.2 6.2-6.2.5 0 1 .1 1.4.2h.2l-1.4 3.9-.3-.1 1.3-3.5c-.4-.1-.8-.1-1.2-.1-3.2 0-5.9 2.6-5.9 5.9 0 3.2 2.6 5.9 5.9 5.9 2.7 0 5.1-1.9 5.7-4.6.1-.4.1-.8.1-1.3 0-.4 0-.9-.1-1.3-.3-1.5-1.3-2.9-2.7-3.7L29 15.3l-.3-.1 1.4-4 .2.1c1.5.9 2.6 2.3 3 4 .1.4.1.9.1 1.3s0 .9-.1 1.3c-.6 2.9-3.1 4.9-6 4.9z" id="XMLID_481_"></path></g></g></g></g><g id="XMLID_99_"><g id="XMLID_456_"><g id="XMLID_516_"><g id="XMLID_517_"><path class="st0" d="M37.9 14.5l-.2-.2c2-1.9 7.4-7.2 8.1-7.8l.2.2c-.7.6-6.1 5.9-8.1 7.8z" id="XMLID_480_"></path></g></g></g></g><g id="XMLID_20_"><g id="XMLID_455_"><g id="XMLID_511_"><g id="XMLID_512_"><path transform="rotate(40.762 42.5 12.983)" class="st0" d="M42.3 7.5h.3v11.1h-.3z" id="XMLID_479_"></path></g></g></g></g><g id="XMLID_102_"><g id="XMLID_454_"><g id="XMLID_506_"><g id="XMLID_507_"><path class="st0" d="M35.2 15.5l-.1-.1L31 9.7l.3-.1 4.1 5.7z" id="XMLID_478_"></path></g></g></g></g><g id="XMLID_97_"><g id="XMLID_453_"><g id="XMLID_501_"><g id="XMLID_502_"><path transform="rotate(55.612 35.008 11.967)" class="st0" d="M32.2 11.8h5.7v.3h-5.7z" id="XMLID_477_"></path></g></g></g></g><g id="XMLID_46_"><g id="XMLID_475_"><path class="st0" d="M47.4 5.5h-.2v-.3h.1c.9 0 1.6-.7 1.6-1.6S48.2 2 47.3 2c-.7 0-1.2.4-1.5 1l-.3-.1c.3-.7 1-1.2 1.8-1.2 1 0 1.9.9 1.9 1.9s-.7 1.9-1.8 1.9z" id="XMLID_476_"></path></g></g></g><g id="XMLID_182_"><g id="XMLID_137_"><g id="XMLID_452_"><path class="st0" d="M195.1 20.2l-.3-.3 1.9-1.8h13.5v.4h-13.4z" id="XMLID_627_"></path></g></g><g id="XMLID_136_"><g id="XMLID_451_"><path class="st0" d="M190 20.2l-1.7-1.7h-3.4v-.4h3.5l1.9 1.8z" id="XMLID_626_"></path></g></g><g id="XMLID_135_"><g id="XMLID_450_"><path class="st0" d="M179.9 20.2l-.3-.3 1.8-1.8h3.6v.4h-3.4z" id="XMLID_624_"></path></g></g><g id="XMLID_134_"><g id="XMLID_449_"><path class="st0" d="M225.7 21.6H223v-.4h2.3v-5.5c0-.2 0-.3-.1-.5l-2.1-5.6c-.2-.5-.7-.9-1.3-.9h-8.4c-.4 0-.7.1-1 .4l-1.7 2.5c-.3.3-.4.6-.4 1v5.5h5.5c.8 0 1.5.4 1.8 1.1l1.1 2h1.7v.4h-2l-1.2-2.2c-.3-.5-.9-.9-1.5-.9H210v-5.9c0-.5.2-.9.5-1.2l1.7-2.5c.3-.3.8-.5 1.2-.5h8.4c.7 0 1.4.5 1.6 1.2l2.1 5.6c.1.2.1.4.1.6v5.8z" id="XMLID_618_"></path></g></g><g id="XMLID_133_"><g id="XMLID_446_"><path class="st0" d="M222.3 15.5H218v-5.4h2.9c.4 0 .8.3 1 .6l1.4 3.3c.1.3.1.7-.1 1-.3.3-.6.5-.9.5zm-4-.4h3.9c.2 0 .4-.1.5-.3.1-.2.1-.4.1-.6l-1.4-3.3c-.1-.2-.3-.4-.6-.4h-2.5v4.6z" id="XMLID_803_"></path></g></g><g id="XMLID_132_"><g id="XMLID_443_"><path class="st0" d="M216.3 16.9h-2.9v-6.8h2.9v6.8zm-2.6-.4h2.2v-6h-2.2v6z" id="XMLID_798_"></path></g></g><g id="XMLID_131_"><g id="XMLID_442_"><path class="st0" d="M213.5 11.7h2.6v.4h-2.6z" id="XMLID_614_"></path></g></g><g id="XMLID_130_"><g id="XMLID_439_"><path class="st0" d="M210.4 16.9h-32V6.5h32v10.4zm-31.6-.4H210V6.9h-31.2v9.6z" id="XMLID_790_"></path></g></g><g id="XMLID_129_"><g id="XMLID_436_"><path class="st0" d="M198.8 22.5c-.8 0-1.5-.7-1.5-1.5s.7-1.5 1.5-1.5 1.5.7 1.5 1.5-.7 1.5-1.5 1.5zm0-2.7c-.6 0-1.1.5-1.1 1.1 0 .6.5 1.1 1.1 1.1s1.1-.5 1.1-1.1c0-.6-.5-1.1-1.1-1.1z" id="XMLID_785_"></path></g></g><g id="XMLID_128_"><g id="XMLID_780_"><circle class="st0" cx="198.8" cy="20.9" r=".5" id="XMLID_613_"></circle></g></g><g id="XMLID_127_"><g id="XMLID_433_"><path class="st0" d="M202.4 22.5c-.8 0-1.5-.7-1.5-1.5s.7-1.5 1.5-1.5 1.5.7 1.5 1.5-.7 1.5-1.5 1.5zm0-2.7c-.6 0-1.1.5-1.1 1.1 0 .6.5 1.1 1.1 1.1.6 0 1.1-.5 1.1-1.1 0-.6-.5-1.1-1.1-1.1z" id="XMLID_776_"></path></g></g><g id="XMLID_126_"><g id="XMLID_771_"><circle class="st0" cx="202.4" cy="20.9" r=".5" id="XMLID_612_"></circle></g></g><g id="XMLID_125_"><g id="XMLID_430_"><path class="st0" d="M183.2 22.5c-.8 0-1.5-.7-1.5-1.5s.7-1.5 1.5-1.5 1.5.7 1.5 1.5-.7 1.5-1.5 1.5zm0-2.7c-.6 0-1.1.5-1.1 1.1 0 .6.5 1.1 1.1 1.1.6 0 1.1-.5 1.1-1.1 0-.6-.5-1.1-1.1-1.1z" id="XMLID_766_"></path></g></g><g id="XMLID_124_"><g id="XMLID_761_"><circle class="st0" cx="183.2" cy="20.9" r=".5" id="XMLID_606_"></circle></g></g><g id="XMLID_123_"><g id="XMLID_426_"><path class="st0" d="M186.8 22.5c-.8 0-1.5-.7-1.5-1.5s.7-1.5 1.5-1.5 1.5.7 1.5 1.5-.7 1.5-1.5 1.5zm0-2.7c-.6 0-1.1.5-1.1 1.1 0 .6.5 1.1 1.1 1.1s1.1-.5 1.1-1.1c0-.6-.5-1.1-1.1-1.1z" id="XMLID_756_"></path></g></g><g id="XMLID_122_"><g id="XMLID_750_"><circle class="st0" cx="186.8" cy="20.9" r=".5" id="XMLID_602_"></circle></g></g><g id="XMLID_121_"><g id="XMLID_419_"><path class="st0" d="M221.8 22.5c-.8 0-1.5-.7-1.5-1.5s.7-1.5 1.5-1.5 1.5.7 1.5 1.5-.7 1.5-1.5 1.5zm0-2.7c-.6 0-1.1.5-1.1 1.1 0 .6.5 1.1 1.1 1.1s1.1-.5 1.1-1.1c0-.6-.5-1.1-1.1-1.1z" id="XMLID_744_"></path></g></g><g id="XMLID_120_"><g id="XMLID_739_"><circle class="st0" cx="221.8" cy="20.9" r=".5" id="XMLID_601_"></circle></g></g><g id="XMLID_119_"><g id="XMLID_416_"><path class="st0" d="M215.7 21.5h-2c-.3 0-.6-.1-.8-.4h-1.5v-1.3h1.5c.2-.2.5-.4.8-.4h2c.6 0 1 .5 1 1 0 .6-.4 1.1-1 1.1zm-3.9-.8h1.3l.1.1c.1.2.3.3.5.3h2c.3 0 .6-.3.6-.6s-.3-.6-.6-.6h-2c-.2 0-.4.1-.5.3l-.1.1h-1.3v.4z" id="XMLID_695_"></path></g></g><g id="XMLID_118_"><g id="XMLID_415_"><path class="st0" d="M211.4 19.3h.4v2.2h-.4z" id="XMLID_595_"></path></g></g></g><g id="XMLID_66_"><g id="XMLID_522_"><g id="XMLID_412_"><path class="st0" d="M132.8 48.3H95.3V37.6h37.5v10.7zm-37-.4h36.6V38H95.8v9.9z" id="XMLID_633_"></path></g></g><g id="XMLID_26_"><g id="XMLID_411_"><path class="st0" d="M143.8 50h-.4v-4c0-.2 0-.5-.1-.7l-1.9-5.9c-.3-.8-1-1.3-1.8-1.3h-5.3v12h-.4V37.6h5.7c1 0 1.9.7 2.2 1.6l1.9 5.9c.1.3.1.6.1.9v4z" id="XMLID_542_"></path></g></g><g id="XMLID_55_"><g id="XMLID_408_"><path class="st0" d="M143.8 53.3h-2.6l-.1-.1c-.5-1.1-1.8-1.8-3.2-1.8-1.4 0-2.7.7-3.2 1.8l-.1.1h-25l-.1-.1c-1.4-1.2-3.4-1.9-5.7-1.9-2.3 0-4.3.7-5.7 1.9l-.1.1h-2.9v-3.5h48.5v3.5zm-2.3-.4h1.8v-2.6H95.8v2.6h2.3c1.4-1.2 3.6-2 5.9-2 2.3 0 4.5.7 5.9 2h24.5c.6-1.2 2-2 3.5-2 1.7 0 3 .8 3.6 2z" id="XMLID_625_"></path></g></g><g id="XMLID_4_"><g id="XMLID_405_"><path class="st0" d="M135 45.5l-.3-6.2h4.5c1 0 1.8.6 2.1 1.5l.9 2.8c.1.4.1.8-.2 1.1-.2.3-.6.5-1 .5l-6 .3zm.1-5.7l.3 5.3 5.8-.2c.3 0 .5-.1.6-.3.1-.2.2-.5.1-.7l-.9-2.8c-.2-.7-.9-1.2-1.7-1.2h-4.2z" id="XMLID_620_"></path></g></g><g id="XMLID_81_"><g id="XMLID_402_"><path class="st0" d="M101.3 56.9c-1.2 0-2.2-1-2.2-2.2 0-1.2 1-2.2 2.2-2.2s2.2 1 2.2 2.2c0 1.2-1 2.2-2.2 2.2zm0-4.1c-1 0-1.8.8-1.8 1.8s.8 1.8 1.8 1.8 1.8-.8 1.8-1.8-.8-1.8-1.8-1.8z" id="XMLID_615_"></path></g></g><g id="XMLID_82_"><g id="XMLID_399_"><path class="st0" d="M106.6 56.9c-1.2 0-2.2-1-2.2-2.2 0-1.2 1-2.2 2.2-2.2s2.2 1 2.2 2.2c0 1.2-1 2.2-2.2 2.2zm0-4.1c-1 0-1.8.8-1.8 1.8s.8 1.8 1.8 1.8 1.8-.8 1.8-1.8-.8-1.8-1.8-1.8z" id="XMLID_610_"></path></g></g><g id="XMLID_80_"><g id="XMLID_396_"><path class="st0" d="M137.8 56.9c-1.2 0-2.2-1-2.2-2.2 0-1.2 1-2.2 2.2-2.2s2.2 1 2.2 2.2c0 1.2-1 2.2-2.2 2.2zm0-4.1c-1 0-1.8.8-1.8 1.8s.8 1.8 1.8 1.8 1.8-.8 1.8-1.8-.8-1.8-1.8-1.8z" id="XMLID_605_"></path></g></g></g><g id="XMLID_76_"><g id="XMLID_376_"><g id="XMLID_389_"><path class="st0" d="M112.7 174.8h-17v-7.2h17v7.2zm-16.6-.4h16.2V168H96.1v6.4z" id="XMLID_751_"></path></g></g><g id="XMLID_378_"><g id="XMLID_386_"><path class="st0" d="M131.5 174.8h-17v-7.2h17v7.2zm-16.6-.4h16.2V168h-16.2v6.4z" id="XMLID_745_"></path></g></g><g id="XMLID_394_"><g id="XMLID_385_"><path class="st0" d="M138.2 175.9h-.4v-1.8c0-.1 0-.2-.1-.3l-1.4-3.8c-.1-.3-.5-.6-.8-.6h-3.3v6.5h-.4V169h3.7c.5 0 1 .3 1.2.8l1.4 3.8c.1.1.1.3.1.5v1.8z" id="XMLID_167_"></path></g></g><g id="XMLID_379_"><g id="XMLID_374_"><path class="st0" d="M136.4 173.4h-3.7v-3.5h2.7c.2 0 .4.1.5.3l1 2.5c.1.2 0 .3-.1.5-.1.1-.2.2-.4.2zm-3.4-.4h3.3c.1 0 .1 0 .1-.1v-.1l-1-2.5-.1-.1H133v2.8z" id="XMLID_698_"></path></g></g><g id="XMLID_423_"><g id="XMLID_369_"><path class="st0" d="M138.2 178.6h-1.3l-.1-.1c-.4-.7-1.3-1.1-2.3-1.1-1 0-1.8.4-2.3 1.1l-.1.1h-10.7l-.1-.1c-.4-.7-1.3-1.1-2.3-1.1-1 0-1.8.4-2.3 1.1l-.1.1h-2.1v-2.9H138v2.9zm-1.1-.4h.7v-2h-22.7v2h1.4c.5-.8 1.5-1.2 2.6-1.2s2 .5 2.6 1.2H132c.5-.8 1.5-1.2 2.6-1.2 1 0 2 .4 2.5 1.2z" id="XMLID_689_"></path></g></g><g id="XMLID_427_"><g id="XMLID_366_"><path class="st0" d="M113 178.6h-2.3l-.1-.1c-.4-.7-1.3-1.1-2.3-1.1s-1.8.4-2.3 1.1l-.1.1h-3.5l-.1-.1c-.4-.7-1.3-1.1-2.3-1.1-1 0-1.8.4-2.3 1.1l-.1.1h-2.1v-2.9H113v2.9zm-2.2-.4h1.7v-2H96.1v2h1.5c.5-.8 1.5-1.2 2.6-1.2s2 .5 2.6 1.2h3.1c.5-.8 1.5-1.2 2.6-1.2s1.8.4 2.3 1.2z" id="XMLID_632_"></path></g></g><g id="XMLID_377_"><g id="XMLID_363_"><path class="st0" d="M134.6 181.1c-.9 0-1.7-.8-1.7-1.7s.8-1.7 1.7-1.7 1.7.8 1.7 1.7-.8 1.7-1.7 1.7zm0-3c-.7 0-1.3.6-1.3 1.3 0 .7.6 1.3 1.3 1.3s1.3-.6 1.3-1.3c0-.7-.6-1.3-1.3-1.3z" id="XMLID_621_"></path></g></g><g id="XMLID_422_"><g id="XMLID_360_"><path class="st0" d="M119.1 181.1c-.9 0-1.7-.8-1.7-1.7s.8-1.7 1.7-1.7c.9 0 1.7.8 1.7 1.7s-.8 1.7-1.7 1.7zm0-3c-.7 0-1.3.6-1.3 1.3 0 .7.6 1.3 1.3 1.3.7 0 1.3-.6 1.3-1.3 0-.7-.6-1.3-1.3-1.3z" id="XMLID_607_"></path></g></g><g id="XMLID_424_"><g id="XMLID_357_"><path class="st0" d="M108.3 181.1c-.9 0-1.7-.8-1.7-1.7s.8-1.7 1.7-1.7 1.7.8 1.7 1.7-.7 1.7-1.7 1.7zm0-3c-.7 0-1.3.6-1.3 1.3 0 .7.6 1.3 1.3 1.3s1.3-.6 1.3-1.3c0-.7-.5-1.3-1.3-1.3z" id="XMLID_594_"></path></g></g><g id="XMLID_425_"><g id="XMLID_353_"><path class="st0" d="M100.1 181.1c-.9 0-1.7-.8-1.7-1.7s.8-1.7 1.7-1.7c.9 0 1.7.8 1.7 1.7s-.7 1.7-1.7 1.7zm0-3c-.7 0-1.3.6-1.3 1.3 0 .7.6 1.3 1.3 1.3.7 0 1.3-.6 1.3-1.3 0-.7-.6-1.3-1.3-1.3z" id="XMLID_574_"></path></g></g></g><g id="XMLID_39_"><g id="XMLID_350_"><path class="st0" d="M122.8 13.3h-26V2.8h26v10.5zm-25.6-.5h25.1V3.2H97.2v9.6z" id="XMLID_599_"></path></g><g id="XMLID_349_"><path class="st0" d="M134 15.1h-.4v-3.9-.3l-2.1-6.8c-.2-.5-.6-.9-1.2-.9h-6.1V15h-.4V3c0-.1.1-.2.2-.2h6.3c.7 0 1.4.5 1.6 1.2l2.1 6.8c0 .1.1.3.1.4v3.9z" id="XMLID_520_"></path></g><g id="XMLID_346_"><path class="st0" d="M131.1 10.6h-6c-.1 0-.2-.1-.2-.2v-6c0-.1.1-.2.2-.2h4.5c.4 0 .8.3.9.7l1.5 4.5c.1.3.1.6-.1.9-.2.2-.5.3-.8.3zm-5.8-.4h5.8c.2 0 .3-.1.4-.2.1-.1.1-.3.1-.5L130.1 5c-.1-.2-.3-.4-.5-.4h-4.3v5.6z" id="XMLID_590_"></path></g><g id="XMLID_343_"><path class="st0" d="M134 19.9h-2.1v-.2c-.4-1.9-2.1-3.2-4.2-3.2s-3.8 1.4-4.2 3.2v.2h-16v-.2c-.4-1.9-2.1-3.2-4.2-3.2s-3.8 1.4-4.2 3.2v.2h-2.2v-5H134v5zm-1.8-.5h1.3v-4.2H97.2v4.2h1.4c.5-2 2.4-3.4 4.6-3.4 2.2 0 4.1 1.4 4.6 3.4h15.3c.5-2 2.4-3.4 4.6-3.4 2.2 0 4.1 1.4 4.5 3.4z" id="XMLID_581_"></path></g><g id="XMLID_340_"><path class="st0" d="M103.2 22.4c-1.4 0-2.5-1.1-2.5-2.5s1.1-2.5 2.5-2.5 2.5 1.1 2.5 2.5-1.1 2.5-2.5 2.5zm0-4.6c-1.2 0-2.1.9-2.1 2.1 0 1.2.9 2.1 2.1 2.1 1.2 0 2.1-.9 2.1-2.1 0-1.2-1-2.1-2.1-2.1z" id="XMLID_569_"></path></g><g id="XMLID_337_"><path class="st0" d="M127.6 22.4c-1.4 0-2.5-1.1-2.5-2.5s1.1-2.5 2.5-2.5 2.5 1.1 2.5 2.5-1.1 2.5-2.5 2.5zm0-4.6c-1.2 0-2.1.9-2.1 2.1 0 1.2.9 2.1 2.1 2.1s2.1-.9 2.1-2.1c0-1.2-.9-2.1-2.1-2.1z" id="XMLID_555_"></path></g></g><g id="XMLID_355_"><g id="XMLID_249_"><g id="XMLID_334_"><path class="st0" d="M130.7 146.6h-5.6c-.3 0-.5-.2-.7-.4-.1-.3-.1-.6.1-.8l1.6-1.8c.1-.1.3-.2.5-.3l4.1-.3c.2 0 .4.1.5.2.1.1.2.3.2.5v2.1c0 .5-.3.8-.7.8zm0-3.1l-4.1.3c-.1 0-.1 0-.2.1l-1.6 1.8c-.1.1-.1.2 0 .3 0 .1.1.2.2.2h5.6c.2 0 .3-.1.3-.3v-2.1c0-.1 0-.1-.1-.2 0 0 0-.1-.1-.1z" id="XMLID_699_"></path></g></g><g id="XMLID_252_"><g id="XMLID_329_"><path class="st0" d="M140.3 146.6h-7.7c-.4 0-.8-.3-.8-.7v-2.1c0-.2.1-.4.2-.5.2-.1.4-.2.6-.2l5.7.3c.2 0 .4.1.5.2l2.1 1.8c.2.2.3.5.2.8-.2.2-.5.4-.8.4zm-7.7-3.1c-.1 0-.2 0-.3.1 0 0-.1.1-.1.2v2.1c0 .2.2.3.3.3h7.7c.2 0 .3-.1.3-.2s0-.2-.1-.3l-2.1-1.8c-.1-.1-.1-.1-.2-.1l-5.5-.3z" id="XMLID_693_"></path></g></g><g id="XMLID_295_"><g id="XMLID_326_"><path class="st0" d="M147.3 151.9h-.2c-.3 0-.6-.2-.7-.5-.5-1.5-1.8-2.5-3.3-2.5s-2.8 1-3.3 2.5c-.1.3-.4.5-.7.5h-8.5c-.3 0-.6-.2-.7-.5-.5-1.5-1.8-2.5-3.3-2.5-1.5 0-2.8 1-3.3 2.5-.1.3-.4.5-.7.5-.4 0-.7-.3-.7-.7v-2.5c0-1.6.7-3.2 1.9-4.2l2.2-2c.3-.3.8-.5 1.2-.5h11c.4 0 .8.2 1.1.4l2.7 2.7c.3.3.8.5 1.3.5h4.1c.4 0 .7.3.7.7v4.8c0 .5-.4.8-.8.8zm-4.2-3.4c1.6 0 3.2 1.1 3.7 2.8 0 .1.2.2.3.2h.2c.2 0 .3-.1.3-.3v-4.8c0-.2-.1-.3-.3-.3h-4.1c-.6 0-1.2-.2-1.6-.7l-2.7-2.7c-.2-.2-.5-.3-.7-.3h-11c-.3 0-.7.1-.9.4l-2.2 2c-1.1 1-1.8 2.4-1.8 3.9v2.5c0 .2.1.3.3.3.1 0 .2-.1.3-.2.6-1.7 2.1-2.8 3.7-2.8s3.2 1.1 3.7 2.8c0 .1.2.2.3.2h8.5c.1 0 .2-.1.3-.2.6-1.7 2.1-2.8 3.7-2.8z" id="XMLID_638_"></path></g></g><g id="XMLID_250_"><g id="XMLID_323_"><path class="st0" d="M126.7 154.9c-1.4 0-2.5-1.1-2.5-2.5s1.1-2.5 2.5-2.5 2.5 1.1 2.5 2.5-1.2 2.5-2.5 2.5zm0-4.5c-1.1 0-2 .9-2 2s.9 2 2 2 2-.9 2-2-.9-2-2-2z" id="XMLID_630_"></path></g></g><g id="XMLID_330_"><g id="XMLID_320_"><path class="st0" d="M114.9 154.9c-1.4 0-2.5-1.1-2.5-2.5s1.1-2.5 2.5-2.5 2.5 1.1 2.5 2.5-1.1 2.5-2.5 2.5zm0-4.5c-1.1 0-2 .9-2 2s.9 2 2 2 2-.9 2-2c.1-1.1-.9-2-2-2z" id="XMLID_619_"></path></g></g><g id="XMLID_331_"><g id="XMLID_317_"><path class="st0" d="M100.4 154.9c-1.4 0-2.5-1.1-2.5-2.5s1.1-2.5 2.5-2.5 2.5 1.1 2.5 2.5-1.2 2.5-2.5 2.5zm0-4.5c-1.1 0-2 .9-2 2s.9 2 2 2 2-.9 2-2-.9-2-2-2z" id="XMLID_608_"></path></g></g><g id="XMLID_281_"><g id="XMLID_313_"><path class="st0" d="M143.2 154.9c-1.4 0-2.5-1.1-2.5-2.5s1.1-2.5 2.5-2.5 2.5 1.1 2.5 2.5-1.2 2.5-2.5 2.5zm0-4.5c-1.1 0-2 .9-2 2s.9 2 2 2 2-.9 2-2-.9-2-2-2z" id="XMLID_600_"></path></g></g><g id="XMLID_294_"><g id="XMLID_311_"><g id="XMLID_309_"><path class="st0" d="M118.4 146.2H97.6c-.1 0-.2-.1-.2-.2v-4.6c0-.1.1-.2.2-.2h20.8c.1 0 .2.1.2.2v4.6c0 .1-.1.2-.2.2zm-20.6-.5h20.4v-4.2H97.8v4.2z" id="XMLID_587_"></path></g></g><g id="XMLID_315_"><g id="XMLID_298_"><path class="st0" d="M119.6 151.8h-.8c-.1 0-.2-.1-.2-.2 0-1.7-1.6-3-3.6-3s-3.6 1.3-3.6 3c0 .1-.1.2-.2.2H104c-.1 0-.2-.1-.2-.2 0-1.7-1.4-3-3.3-3s-3.3 1.3-3.3 3c0 .1-.1.2-.2.2h-.9c-.1 0-.2-.1-.2-.2v-12.1c0-.1.1-.2.2-.2h23.5c.1 0 .2.1.2.2v12.1c0 .1-.1.2-.2.2zm-.6-.4h.3v-11.7h-23v11.7h.4c.1-1.9 1.7-3.3 3.7-3.3s3.6 1.4 3.7 3.3h6.7c.1-1.9 1.8-3.3 4.1-3.3s4 1.4 4.1 3.3z" id="XMLID_561_"></path></g></g></g></g><g id="XMLID_383_"><g id="XMLID_293_"><path class="st0" d="M37.1 169.7h-8.2c-.4 0-.7-.2-.9-.6-.2-.3-.1-.7.1-1l2.3-2.7c.2-.2.4-.3.7-.3l5.9-.4c.3 0 .5.1.7.3.2.2.3.4.3.7v3c0 .6-.4 1-.9 1zm0-4.4s-.1 0 0 0l-6 .4c-.1 0-.3.1-.3.2l-2.3 2.7c-.1.1-.1.3-.1.5.1.2.2.3.4.3H37c.3 0 .5-.2.5-.5v-3c0-.1-.1-.3-.1-.3-.1-.3-.2-.3-.3-.3z" id="XMLID_573_"></path></g></g><g id="XMLID_382_"><g id="XMLID_290_"><path class="st0" d="M50.2 169.7H39c-.6 0-1.1-.4-1.1-1v-3c0-.2.1-.5.3-.7.2-.2.5-.3.8-.3l8.2.4c.3 0 .5.1.7.3l3 2.7c.3.3.4.6.3 1-.2.4-.6.6-1 .6zM39 165.3c-.2 0-.3.1-.4.2-.1.1-.1.2-.1.3v3c0 .3.3.5.6.5h11.2c.3 0 .5-.2.5-.3.1-.2 0-.3-.1-.5l-3-2.7c-.1-.1-.2-.1-.4-.1l-8.3-.4z" id="XMLID_562_"></path></g></g><g id="XMLID_381_"><g id="XMLID_287_"><path class="st0" d="M60.3 177.4h-.2c-.4 0-.8-.3-.9-.7-.8-2.2-2.7-3.6-4.9-3.6s-4.1 1.4-4.9 3.6c-.1.4-.5.7-.9.7H36.2c-.4 0-.8-.3-.9-.7-.8-2.2-2.7-3.6-4.9-3.6s-4.1 1.4-4.9 3.6c-.1.4-.5.7-.9.7-.6 0-1-.5-1-1v-3.7c0-2.3 1-4.5 2.7-6.1l3.2-2.9c.5-.4 1.1-.7 1.7-.7h16c.6 0 1.1.2 1.5.6l3.9 3.9c.5.5 1.2.8 1.9.8h5.9c.6 0 1 .5 1 1v7c-.1.6-.5 1.1-1.1 1.1zm-6.1-4.8c2.4 0 4.5 1.6 5.3 4 .1.2.3.4.5.4h.2c.3 0 .5-.2.5-.5v-7c0-.3-.2-.5-.5-.5h-5.9c-.9 0-1.7-.3-2.3-.9l-3.9-3.9c-.3-.3-.7-.5-1.1-.5H31c-.5 0-1 .2-1.4.5l-3.2 2.9c-1.6 1.4-2.6 3.5-2.6 5.7v3.7c0 .3.2.5.5.5.2 0 .4-.1.5-.4.8-2.4 3-4 5.3-4s4.5 1.6 5.3 4c.1.2.3.4.5.4h12.2c.2 0 .4-.1.5-.4 1.1-2.4 3.3-4 5.6-4z" id="XMLID_551_"></path></g></g><g id="XMLID_380_"><g id="XMLID_277_"><path class="st0" d="M30.3 181.7c-1.9 0-3.5-1.6-3.5-3.5s1.6-3.5 3.5-3.5 3.5 1.6 3.5 3.5c0 2-1.6 3.5-3.5 3.5zm0-6.4c-1.7 0-3 1.3-3 3s1.3 3 3 3 3-1.3 3-3-1.4-3-3-3z" id="XMLID_536_"></path></g></g><g id="XMLID_373_"><g id="XMLID_146_"><path class="st0" d="M56.5 181.7c-1.9 0-3.5-1.6-3.5-3.5s1.6-3.5 3.5-3.5 3.5 1.6 3.5 3.5c0 2-1.6 3.5-3.5 3.5zm0-6.4c-1.7 0-3 1.3-3 3s1.3 3 3 3 3-1.3 3-3-1.3-3-3-3z" id="XMLID_524_"></path></g></g><g id="XMLID_514_"><g id="XMLID_148_"><g id="XMLID_278_"><path class="st0" d="M26.9 124.1c-.8 0-1.5-.1-2.3-.4-3.4-1.2-5.1-5-3.8-8.3.7-2 2.4-3.5 4.4-4l.2-1.5c-.5-.6-.5-.8-.5-.8 0-.1 0-.3-.1-.7 0-.2-.2-.3-.3-.3h-1.7c-.4 0-.7-.3-.7-.7 0-.3.2-.5.4-.6l.1-.1c.3-.6 0-1.2-.1-1.3-.1-.2-.4-.6-.4-.8 0-.3.4-1.1 1.4-1.6.2-.1.3-.2.4-.4.1-.2 0-.4-.1-.5l-.1-.1c-.2 0-.6-.2-.7-.9-.1-.8 1.2-1.2 1.7-1.4h.1l1.2-1.6c.2-.2.4-.2.6-.1l1 .7c.1.1.3.1.4 0 .5-.3 1.1-.2 1.5-.1.1 0 .2.1.3.2l1.8 1.7c.1.1.2.3.2.5v1.1l2.9 2h6.7l2.2-2.1-.1-3.7c0-.1 0-.2.1-.3.1-.1.2-.1.3-.1h3c1.3.6 4.3 4.1 4.9 4.8.1.1.1.2.1.2v3.4c0 .1 0 .2-.1.3-.1.1-.2.1-.3.1h-3.7c-3.1.1-3.6 4.3-4 7.7 0 .3-.1.5-.1.7v.1c-.9 3.4-2.9 3.9-3.1 3.9H34.4c-.1 0-.2-.1-.3-.2-.1-.1-.1-.2-.1-.3.3-1 1.2-4.2.2-5.5-.3-.4-.7-.5-1.2-.5l-1.7.5c1.8 1.8 2.3 4.5 1.5 6.8-.8 2.6-3.2 4.2-5.9 4.2zm-.5-25.9l-1.3 1.7c-.1.1-.2.1-.3.2-.7.2-1.5.5-1.5 1 .1.4.2.6.4.6.1 0 .2.1.3.2.1.2.2.5.1.8-.1.2-.3.4-.5.6-.8.4-1.2 1.1-1.2 1.3 0 .1.1.4.3.6v.1c.1.1.4.8.1 1.6 0 .1-.1.2-.2.2-.1.1-.2.2-.2.3 0 .2.1.3.3.3h1.7c.3 0 .6.2.7.5.1.4.1.7.1.8 0 0 .1.3.5.6.1.1.1.2.1.3l-.2 1.5c0 .2-.1.3-.3.3-1.9.5-3.5 1.9-4.2 3.8-1.2 3.2.4 6.7 3.6 7.9 3.2 1.2 6.7-.4 7.9-3.6.8-2.2.3-4.8-1.4-6.5-.1-.1-.1-.2-.1-.4 0-.1.1-.2.3-.3l1.7-.5h.1c.7 0 1.2.2 1.5.6 1.1 1.4.2 4.8-.1 5.8h6.1c.2 0 2-.5 2.8-3.7 0-.3.1-.5.1-.8.4-3.6.9-8 4.3-8h3.7v-3.4c-.4-.4-3.5-4.1-4.8-4.7H44l.1 3.7c0 .1 0 .2-.1.3l-2.2 2.1c-.1.1-.2.1-.3.1h-6.7c-.1 0-.2 0-.2-.1l-2.9-2c-.1-.1-.2-.2-.2-.4v-1c0-.1 0-.2-.1-.2L29.6 99l-.1-.1c-.2-.1-.9-.2-1.2 0-.2.1-.5.1-.7 0l-1.2-.7c.1 0 .1 0 0 0zm.5 21.6c-.3 0-.7-.1-1-.2-.9-.4-1.3-1.4-1.1-2.4.1-.6.4-1 .9-1.4.7-.5 1.2-1.1 1.4-1.8l2-5.3c.2-.5.8-.8 1.3-.6.5.2.8.8.6 1.3l-1.9 5.2c-.3.8-.3 1.6-.1 2.3.1.5.1.9 0 1.4-.2.6-.7 1-1.2 1.3-.3.1-.6.2-.9.2zm3.2-11.4c-.3 0-.6.2-.7.5l-2 5.3c-.3.8-.8 1.4-1.6 1.9-.4.3-.7.7-.8 1.1-.2.8.2 1.6 1 2 .5.2 1 .3 1.5.1.5-.2.9-.6 1-1.1.1-.4.2-.8 0-1.2-.2-.8-.2-1.7.1-2.5l1.9-5.2c.1-.4 0-.8-.4-.9.2 0 .1 0 0 0z" id="XMLID_597_"></path></g></g><g id="XMLID_234_"><g id="XMLID_87_"><g id="XMLID_275_"><path class="st0" d="M51.5 124c-2.7 0-5.3-1.7-6.2-4.5-1-3.1.4-6.4 3.3-7.8l.1.3c-2.7 1.3-4.1 4.5-3.1 7.4 1.1 3.2 4.5 5 7.7 3.9s5-4.5 3.9-7.7c-1-2.9-3.9-4.7-6.9-4.1l-.1-.3c3.2-.6 6.3 1.3 7.3 4.4 1.1 3.4-.7 7.1-4.1 8.2-.6.1-1.2.2-1.9.2z" id="XMLID_513_"></path></g></g><g id="XMLID_83_"><g id="XMLID_272_"><path class="st0" d="M51.5 119.7c-.8 0-1.6-.5-2-1.2-.3-.5-.3-1.1-.1-1.6.2-.8.3-1.6 0-2.3l-1.8-5.4c-.1-.3-.1-.5.1-.8.1-.2.3-.4.6-.5.5-.2 1.1.1 1.3.7l1.7 5.3c.3.8.7 1.5 1.3 1.9.4.3.7.7.8 1.1.2.6.1 1.2-.2 1.8-.3.5-.8.9-1.4 1h-.3zm-2.9-11.5h-.2c-.2.1-.3.2-.4.3-.1.2-.1.4 0 .5l1.8 5.4c.3.8.2 1.6 0 2.5-.1.5-.1.9.1 1.4.4.7 1.2 1.1 2 1 .5-.1 1-.4 1.2-.9.3-.5.3-1 .2-1.5-.1-.4-.4-.7-.7-.9-.7-.5-1.2-1.2-1.5-2.1l-1.7-5.3c-.2-.2-.5-.4-.8-.4z" id="XMLID_589_"></path></g></g></g><g id="XMLID_143_"><g id="XMLID_269_"><path class="st0" d="M26.9 119.8c-.3 0-.7-.1-1-.2-.9-.4-1.3-1.4-1.1-2.4.1-.6.4-1 .9-1.4.7-.5 1.2-1.1 1.4-1.8l2-5.3c.2-.5.8-.8 1.3-.6.5.2.8.8.6 1.3l-1.9 5.2c-.3.8-.3 1.6-.1 2.3.1.5.1.9 0 1.4-.2.6-.7 1-1.2 1.3-.3.1-.6.2-.9.2zm3.2-11.4c-.3 0-.6.2-.7.5l-2 5.3c-.3.8-.8 1.4-1.6 1.9-.4.3-.7.7-.8 1.1-.2.8.2 1.6 1 2 .5.2 1 .3 1.5.1.5-.2.9-.6 1-1.1.1-.4.2-.8 0-1.2-.2-.8-.2-1.7.1-2.5l1.9-5.2c.1-.4 0-.8-.4-.9.2 0 .1 0 0 0z" id="XMLID_580_"></path></g></g><g id="XMLID_196_"><g id="XMLID_268_"><path class="st0" d="M53.4 103.5c-.5 0-.8-.2-1-.6h-.9v-.3h1.1l.1.2c.1.2.3.4.5.4h.1c.3 0 .5-.2.6-.4.2-.8.2-2 .1-2.5 0-.1-.1-.2-.2-.3-.1-.1-.2-.1-.3 0-1.1.5-1.4 1.8-1.4 1.8v.1h-1.5v-.3h1.2c.1-.4.5-1.5 1.6-1.9.2-.1.4-.1.6.1.2.1.3.3.3.5.1.6.1 1.8-.1 2.7 0 .2-.4.5-.8.5z" id="XMLID_510_"></path></g></g></g><g id="XMLID_2_"><g id="XMLID_238_"><g id="XMLID_267_"><path class="st0" d="M51.9 88.5c-2.5 0-4.9-1.4-6.1-3.8-1.4-3-.4-6.6 2.4-8.4l.2.3c-2.6 1.7-3.6 5.2-2.3 8 1.5 3.2 5.3 4.5 8.5 3s4.5-5.3 3-8.5c-1.3-2.9-4.6-4.3-7.6-3.4l-.1-.3c3.2-1 6.6.5 8 3.5 1.6 3.3.1 7.3-3.2 8.9-.9.5-1.8.7-2.8.7z" id="XMLID_509_"></path></g></g><g id="XMLID_43_"><g id="XMLID_266_"><path class="st0" d="M27.5 88.5c-.8 0-1.7-.2-2.5-.5-1.7-.7-3-1.9-3.7-3.6-.7-1.6-.7-3.5-.1-5.1 1.2-2.9 4.2-4.7 7.3-4.1l-.1.3c-2.9-.5-5.9 1.1-7 3.9-.4 1.6-.4 3.4.3 4.9.7 1.6 1.9 2.8 3.5 3.4 1.6.6 3.3.6 4.9-.1 1.6-.7 2.8-1.9 3.4-3.5 1.2-2.9 0-6.3-2.7-7.8l.1-.1V76c2.9 1.6 4.1 5.2 2.9 8.3-.7 1.7-1.9 3-3.6 3.7-.9.3-1.8.5-2.7.5z" id="XMLID_505_"></path></g></g><g id="XMLID_21_"><g id="XMLID_259_"><path class="st0" d="M52 84c-.8 0-1.6-.4-2-1.1-.3-.5-.4-1-.3-1.5.2-.8.1-1.6-.3-2.3 0 0-1.6-4-3.5-8.8-1.8-4.5-4.5-5-4.8-5.1h-1.6c-.3 0-.6-.3-.6-.6s.3-.6.6-.6h2.7c2.2 0 4 2.6 5.1 4.8.6 1.2 3.9 8.9 4.1 9.3.4.8.9 1.4 1.6 1.8.4.2.8.6 1 1 .3.6.3 1.2 0 1.8-.2.6-.7 1-1.3 1.2-.3.1-.5.1-.7.1zm-2.3-5.1c.4.8.5 1.6.3 2.5-.1.5 0 .9.2 1.3.4.7 1.5 1.1 2.2.8.5-.2.9-.6 1.1-1.1.2-.5.2-1.1 0-1.6-.2-.4-.5-.7-.8-.9-.8-.4-1.4-1.1-1.8-1.9 0-.1-3.5-8.1-4.1-9.3-1.5-3-3.2-4.7-4.8-4.7h-2.7c-.1 0-.3.1-.3.3 0 .1.1.3.3.3h1.8c.3.1 3.1.7 5 5.3 2 4.9 3.6 8.9 3.6 9z" id="XMLID_556_"></path></g></g><g id="XMLID_22_"><g id="XMLID_255_"><path class="st0" d="M47.6 68h-.4v-.1c0-.1-.5-2.1.3-3 .3-.4.7-.5 1.3-.5h.1v.1s.3 1 .3 1.9c0 .4-.1.8-.4 1.2-.4.3-.8.4-1.2.4zm-.1-.3h.1c.3 0 .7-.1.9-.4.2-.2.4-.6.3-.9 0-.7-.2-1.5-.2-1.7-.4 0-.7.1-.9.4-.6.7-.3 2.2-.2 2.6z" id="XMLID_547_"></path></g></g><g id="XMLID_7_"><g id="XMLID_248_"><path class="st0" d="M38.8 84.1c-.4 0-.8 0-1.2-.1-.7 0-1.4-.1-2.1 0h-.2v-4.6c0-.4 0-.7.2-1 .3-.3.8-.4 1.1-.4h2.7c.6 0 1.6-.2 2.2-1 .3-.3.4-.8.3-1.3-.1-.3-.2-.6-.5-.8-.2-.1-.5-.2-.9-.2-1.2 0-2.4.8-2.8 2v.1h-4.3c-.2 0-.5 0-.7-.1-.2-.1-.3-.2-.5-.4l-1.5-1.5c-.1-.1-.2-.2-.4-.3-.2-.1-.4-.1-.6-.1h-.3c-2.2 0-4.4-.1-6.6-.1h-.2l.1-.2c.1-.2.1-.4.2-.6.3-1.1.7-2.6 1.9-3 .3-.1.7-.1 1-.1h14.8c1 0 2.1-.1 2.6-.9l.2-.3 1.8 4 .6.1V75H45c-.5 2.4-1.1 5.1-2.7 7.2-.5.7-1.1 1.2-1.7 1.5-.5.3-1.1.4-1.8.4zm-2.3-.5c.4 0 .8 0 1.2.1 1 .1 2 .1 2.8-.3.5-.3 1-.7 1.5-1.4 1.6-2.1 2.2-4.8 2.7-7.2v-.1h.4v-.9l-.5-.1-1.5-3.7c-.6.7-1.7.8-2.7.8H25.6c-.3 0-.6 0-.9.1-1 .3-1.4 1.7-1.7 2.8 0 .1-.1.3-.1.4 2.1 0 4.2.1 6.4.1h.3c.2 0 .5 0 .8.1.2.1.3.2.5.4l1.5 1.5c.1.1.2.2.4.3.2.1.4.1.6.1h4.1c.5-1.2 1.8-2.1 3.1-2.1.4 0 .8.1 1.1.3.3.2.6.6.7 1 .1.5 0 1.1-.4 1.5-.5.6-1.4 1-2.4 1.1H37c-.3 0-.7.1-.9.3-.2.2-.2.5-.2.8v4.2c.1 0 .4-.1.6-.1z" id="XMLID_537_"></path></g></g><g id="XMLID_13_"><g id="XMLID_247_"><path class="st0" d="M27.4 83.8c-.2 0-.4 0-.6-.1-.5-.1-1-.5-1.2-1-.3-.5-.3-1-.2-1.5.2-.8.9-1.3 1.7-1.4v.3c-.7.1-1.2.6-1.4 1.2-.1.4-.1.9.1 1.3s.6.7 1 .8c.9.3 1.9-.3 2.1-1.2.2-.7 0-1.4-.6-1.8l.2-.3c.7.5.9 1.4.7 2.2-.1 1-1 1.5-1.8 1.5z" id="XMLID_504_"></path></g></g><g id="XMLID_18_"><g id="XMLID_246_"><path transform="rotate(18.656 28.05 77.148)" class="st0" d="M27.9 74.2h.3v5.9h-.3z" id="XMLID_503_"></path></g></g><g id="XMLID_16_"><g id="XMLID_245_"><path transform="rotate(28.115 29.855 77.81)" class="st0" d="M29.7 75h.3v5.7h-.3z" id="XMLID_500_"></path></g></g></g><g id="XMLID_491_"><g id="XMLID_263_"><g id="XMLID_244_"><path class="st0" d="M51 56.4c-2.4 0-4.7-1.3-5.8-3.6-1.3-2.9-.4-6.3 2.3-8l.2.3c-2.5 1.6-3.4 4.9-2.2 7.6 1.4 3 5 4.3 8 2.9s4.3-5 2.9-8c-1.3-2.7-4.4-4.1-7.3-3.2V44c3-.9 6.3.5 7.6 3.4 1.5 3.2.1 7-3 8.5-.9.3-1.8.5-2.7.5z" id="XMLID_499_"></path></g></g><g id="XMLID_262_"><g id="XMLID_243_"><path class="st0" d="M27.8 56.4c-.8 0-1.6-.1-2.3-.5-1.6-.6-2.8-1.8-3.5-3.4-.7-1.6-.7-3.3-.1-4.9 1.1-2.8 4-4.4 7-3.9l-.1.3c-2.8-.5-5.6 1.1-6.6 3.7-.6 1.5-.6 3.1.1 4.6.6 1.5 1.8 2.6 3.3 3.2 1.5.6 3.1.6 4.6-.1s2.6-1.8 3.2-3.3c1.1-2.8 0-6-2.6-7.5l.1-.1v-.2c2.7 1.5 3.9 4.9 2.8 7.9-.6 1.6-1.8 2.8-3.4 3.5-.8.5-1.7.7-2.5.7z" id="XMLID_498_"></path></g></g><g id="XMLID_261_"><g id="XMLID_237_"><path class="st0" d="M51 52.2c-.7 0-1.5-.4-1.9-1-.3-.4-.4-1-.3-1.5.1-.8.1-1.6-.3-2.2 0 0-1.5-3.8-3.4-8.4-1.8-4.2-4.3-4.8-4.6-4.8H39c-.3 0-.6-.3-.6-.6s.3-.6.6-.6h2.6c1.7 0 3.3 1.6 4.9 4.6.6 1.1 3.7 8.5 3.9 8.8.4.8.9 1.3 1.5 1.7.4.2.7.6.9 1 .3.5.3 1.2 0 1.7-.2.6-.7 1-1.3 1.2-.1 0-.3.1-.5.1zm-2.1-4.9c.3.7.4 1.6.3 2.4-.1.4 0 .9.2 1.3.4.7 1.4 1 2.1.8.5-.2.9-.5 1.1-1 .2-.5.2-1 0-1.5-.2-.4-.4-.6-.8-.8-.7-.4-1.3-1-1.7-1.8 0-.1-3.3-7.7-3.9-8.8-1.4-2.9-3.1-4.4-4.6-4.4H39c-.1 0-.3.1-.3.3 0 .1.1.3.3.3h1.6c.3.1 3 .6 4.8 5 2 4.3 3.4 8.1 3.5 8.2z" id="XMLID_540_"></path></g></g><g id="XMLID_260_"><g id="XMLID_233_"><path class="st0" d="M46.5 37h-.3v-.1c0-.1-.5-2 .2-2.9.3-.3.7-.5 1.2-.5h.1v.1s.2.9.3 1.8c0 .4-.1.8-.4 1.1-.3.3-.7.5-1.1.5zm-.1-.4h.1c.3 0 .6-.1.8-.4.2-.2.3-.5.3-.9 0-.7-.2-1.4-.2-1.7-.4 0-.6.1-.8.4-.5.8-.3 2.2-.2 2.6z" id="XMLID_531_"></path></g></g><g id="XMLID_258_"><g id="XMLID_232_"><path class="st0" d="M27.6 52c-.2 0-.4 0-.5-.1-.5-.1-.9-.5-1.2-.9-.2-.5-.3-1-.2-1.5.2-.7.8-1.3 1.6-1.4v.3c-.6.1-1.2.5-1.3 1.2-.1.4-.1.9.1 1.2.2.4.6.7 1 .8.9.2 1.8-.2 2-1.1.2-.6 0-1.3-.6-1.7l.2-.2c.6.5.9 1.3.7 2.1-.2.7-1 1.3-1.8 1.3z" id="XMLID_497_"></path></g></g><g id="XMLID_106_"><g id="XMLID_219_"><path transform="rotate(18.656 28.221 45.744)" class="st0" d="M28.1 43.1h.3v5.4h-.3z" id="XMLID_496_"></path></g></g><g id="XMLID_107_"><g id="XMLID_218_"><path class="st0" d="M28.8 48.7l-.2-.1 2.5-4.8.5-.7.2.1-.4.7z" id="XMLID_495_"></path></g></g><g id="XMLID_9_"><g id="XMLID_215_"><path class="st0" d="M39.5 50.4h-3.9c-.3 0-.6-.3-.6-.6l-.1-2.2c0-.1 0-.3.1-.4.1-.1.2-.2.4-.2l4.3-.2c.1 0 .3-.1.4-.2.6-.7 1.5-1.8 1.5-3.1v-.1c-.1-.1-.4-.3-1.7-.2-2.1.2-14.3.2-14.8.2h-1.8c-.2 0-.4-.1-.5-.3-.1-.2 0-.4.1-.5l1.3-1.2c.3-.3.7-.4 1-.4h13.9c.1 0 .3 0 .4-.1l1.9-1.6c.4-.3.9-.3 1.2.1.8.9 2.1 2.5 1.6 3.8-.8 2.1-1.6 4.2-1.9 4.6l-.1.1c-.6 1-1.7 2.5-2.7 2.5zm2.5-6.8c0 1.6-1.2 2.9-1.6 3.3-.2.2-.4.3-.6.3l-4.3.2c-.1 0-.1 0-.2.1s-.1.1-.1.2l.1 2.2c0 .2.2.3.3.3h3.9c.6 0 1.5-.8 2.6-2.5 0-.1.1-.1.1-.1.3-.4 1.4-3.4 1.8-4.5.4-1.2-.9-2.8-1.5-3.5-.2-.2-.5-.2-.8-.1L39.8 41c-.2.1-.4.2-.6.2H25.3c-.3 0-.6.1-.8.3l-1.3 1.2c-.1.1-.1.2 0 .2 0 0 .1.1.2.1h1.8c.1 0 12.7.1 14.8-.2 1.1-.1 1.7 0 2 .3v.5z" id="XMLID_508_"></path></g></g></g><g id="XMLID_206_"><g id="XMLID_12_"><g id="XMLID_212_"><path class="st0" d="M121.4 85.5h-11.8v-.1s-1-4.1-4.5-4.1-4 4.1-4 4.1v.1h-2.6c-.7 0-1.2-.6-1.2-1.2V70.6H130c.4 0 .7.3.7.7 0 .4-.3.7-.7.7h-.5l.8 5.8c.4.1 1.6.4 1.6 1.5v4.6c0 .3-.2.6-.4.8-.3.2-.6.2-.9.1-.2-.1-.4-.3-.5-.5-.3-.9-1.4-3-4.3-3-3.6 0-4.3 4-4.3 4.1v.1h-.1zm-11.5-.3h11.4c.2-.7 1.1-4.3 4.6-4.3 3.1 0 4.3 2.2 4.6 3.2.1.2.2.3.3.4.2.1.4.1.6-.1.2-.1.3-.3.3-.5v-4.6c0-1-1.5-1.2-1.5-1.2h-.1l-.9-6.4h.9c.2 0 .4-.2.4-.4s-.2-.4-.4-.4H97.5v13.3c0 .5.4.9.9.9h2.3c.1-.8 1-4.3 4.3-4.3 3.4.1 4.7 3.7 4.9 4.4z" id="XMLID_775_"></path></g></g><g id="XMLID_159_"><g id="XMLID_154_"><g id="XMLID_209_"><path class="st0" d="M105.2 89.3c-1.9 0-3.5-1.6-3.5-3.5s1.6-3.5 3.5-3.5 3.5 1.6 3.5 3.5-1.6 3.5-3.5 3.5zm0-6.7c-1.8 0-3.2 1.4-3.2 3.2 0 1.8 1.4 3.2 3.2 3.2 1.8 0 3.2-1.4 3.2-3.2 0-1.8-1.5-3.2-3.2-3.2z" id="XMLID_770_"></path></g></g><g id="XMLID_158_"><g id="XMLID_205_"><path class="st0" d="M105.2 87.9c-1.2 0-2.2-1-2.2-2.2 0-1.2 1-2.2 2.2-2.2 1.2 0 2.2 1 2.2 2.2 0 1.3-1 2.2-2.2 2.2zm0-4c-1 0-1.8.8-1.8 1.8s.8 1.8 1.8 1.8 1.8-.8 1.8-1.8-.8-1.8-1.8-1.8z" id="XMLID_765_"></path></g></g></g><g id="XMLID_161_"><g id="XMLID_163_"><g id="XMLID_202_"><path class="st0" d="M126.1 89.3c-1.9 0-3.5-1.6-3.5-3.5s1.6-3.5 3.5-3.5 3.5 1.6 3.5 3.5-1.6 3.5-3.5 3.5zm0-6.7c-1.8 0-3.2 1.4-3.2 3.2 0 1.8 1.4 3.2 3.2 3.2 1.8 0 3.2-1.4 3.2-3.2 0-1.8-1.5-3.2-3.2-3.2z" id="XMLID_759_"></path></g></g><g id="XMLID_162_"><g id="XMLID_199_"><path class="st0" d="M126.1 87.9c-1.2 0-2.2-1-2.2-2.2 0-1.2 1-2.2 2.2-2.2 1.2 0 2.2 1 2.2 2.2 0 1.3-1 2.2-2.2 2.2zm0-4c-1 0-1.8.8-1.8 1.8s.8 1.8 1.8 1.8 1.8-.8 1.8-1.8-.8-1.8-1.8-1.8z" id="XMLID_754_"></path></g></g></g><g id="XMLID_153_"><g id="XMLID_194_"><path class="st0" d="M105.1 79.4h-6c-.3 0-.6-.3-.6-.6V73c0-.3.3-.6.6-.6h5.3c.3 0 .6.2.6.5l.6 5.8c0 .2 0 .3-.2.5 0 .2-.1.2-.3.2zm-6-6.7c-.2 0-.3.1-.3.3v5.8c0 .2.1.3.3.3h6c.1 0 .2 0 .2-.1.1-.1.1-.1.1-.2l-.6-5.8c0-.1-.1-.3-.3-.3h-5.4z" id="XMLID_748_"></path></g></g><g id="XMLID_188_"><g id="XMLID_189_"><path class="st0" d="M113 79.4h-5.5c-.3 0-.6-.2-.6-.5l-.8-5.8c0-.2 0-.4.1-.5.1-.1.3-.2.5-.2h5.6c.3 0 .6.2.6.5l.7 5.8c0 .2 0 .3-.2.5 0 .2-.2.2-.4.2zm-6.3-6.7c-.1 0-.2 0-.2.1s-.1.1-.1.2l.8 5.8c0 .1.1.2.3.2h5.5c.1 0 .2 0 .2-.1.1-.1.1-.1.1-.2l-.7-5.8c0-.1-.1-.3-.3-.3h-5.6z" id="XMLID_743_"></path></g></g><g id="XMLID_190_"><g id="XMLID_185_"><path class="st0" d="M120.8 79.4h-5.5c-.3 0-.6-.2-.6-.5l-.8-5.8c0-.2 0-.4.1-.5.1-.1.3-.2.5-.2h5.6c.3 0 .6.2.6.5l.7 5.8c0 .2 0 .3-.2.5 0 .2-.2.2-.4.2zm-6.3-6.7c-.1 0-.2 0-.2.1s-.1.1-.1.2l.8 5.8c0 .1.1.2.3.2h5.5c.1 0 .2 0 .2-.1.1-.1.1-.1.1-.2l-.7-5.8c0-.1-.1-.3-.3-.3h-5.6z" id="XMLID_702_"></path></g></g><g id="XMLID_191_"><g id="XMLID_181_"><path class="st0" d="M128.5 79.4H123c-.3 0-.6-.2-.6-.5l-.8-5.8c0-.2 0-.4.1-.5.1-.1.3-.2.5-.2h5.6c.3 0 .6.2.6.5l.7 5.8c0 .2 0 .3-.2.5 0 .2-.2.2-.4.2zm-6.2-6.7c-.1 0-.2 0-.2.1s-.1.1-.1.2l.8 5.8c0 .1.1.2.3.2h5.5c.1 0 .2 0 .2-.1.1-.1.1-.1.1-.2l-.7-5.8c0-.1-.1-.3-.3-.3h-5.6z" id="XMLID_697_"></path></g></g></g><g id="XMLID_631_"><g id="XMLID_220_"><g id="XMLID_231_"><g id="XMLID_178_"><g id="XMLID_832_"><path class="st0" d="M217.6 50.7h-8.8v-.1c0-.1-.8-3-3.3-3s-2.9 3-2.9 3v.2h-2c-.5 0-1-.4-1-1V39.5H224c.3 0 .6.3.6.6s-.3.6-.6.6h-.3l.6 4.1c.3.1 1.2.3 1.2 1.2v3.4c0 .2-.1.5-.3.6-.2.1-.5.2-.7.1-.2-.1-.4-.2-.4-.4-.2-.7-1-2.2-3.1-2.2-2.6 0-3.1 2.9-3.1 3v.2h-.3zm-8.5-.4h8.3c.1-.7.9-3.2 3.4-3.2 2.4 0 3.3 1.8 3.5 2.4 0 .1.1.2.2.2h.4c.1-.1.2-.2.2-.3V46c0-.7-1-.8-1-.8h-.1v-.1l-.7-4.7h.7c.1 0 .2-.1.2-.2s-.1-.2-.2-.2h-24v9.8c0 .3.3.6.6.6h1.7c.1-.7.8-3.2 3.3-3.2 2.4-.1 3.3 2.5 3.5 3.1z" id="XMLID_833_"></path></g></g></g><g id="XMLID_228_"><g id="XMLID_230_"><g id="XMLID_172_"><g id="XMLID_826_"><path class="st0" d="M205.6 53.5c-1.5 0-2.7-1.2-2.7-2.7s1.2-2.7 2.7-2.7 2.7 1.2 2.7 2.7-1.2 2.7-2.7 2.7zm0-5c-1.3 0-2.3 1-2.3 2.3 0 1.3 1 2.3 2.3 2.3 1.3 0 2.3-1 2.3-2.3 0-1.3-1-2.3-2.3-2.3z" id="XMLID_827_"></path></g></g></g><g id="XMLID_229_"><g id="XMLID_169_"><g id="XMLID_820_"><path class="st0" d="M205.6 52.5c-.9 0-1.7-.8-1.7-1.7s.8-1.7 1.7-1.7 1.7.8 1.7 1.7-.8 1.7-1.7 1.7zm0-3c-.7 0-1.3.6-1.3 1.3 0 .7.6 1.3 1.3 1.3.7 0 1.3-.6 1.3-1.3 0-.7-.6-1.3-1.3-1.3z" id="XMLID_821_"></path></g></g></g></g><g id="XMLID_225_"><g id="XMLID_227_"><g id="XMLID_165_"><g id="XMLID_813_"><path class="st0" d="M221.1 53.5c-1.5 0-2.7-1.2-2.7-2.7s1.2-2.7 2.7-2.7c1.5 0 2.7 1.2 2.7 2.7s-1.2 2.7-2.7 2.7zm0-5c-1.3 0-2.3 1-2.3 2.3 0 1.3 1 2.3 2.3 2.3 1.3 0 2.3-1 2.3-2.3 0-1.3-1-2.3-2.3-2.3z" id="XMLID_814_"></path></g></g></g><g id="XMLID_226_"><g id="XMLID_157_"><g id="XMLID_807_"><path class="st0" d="M221.1 52.5c-.9 0-1.7-.8-1.7-1.7s.8-1.7 1.7-1.7c.9 0 1.7.8 1.7 1.7s-.8 1.7-1.7 1.7zm0-3c-.7 0-1.3.6-1.3 1.3 0 .7.6 1.3 1.3 1.3.7 0 1.3-.6 1.3-1.3 0-.7-.6-1.3-1.3-1.3z" id="XMLID_808_"></path></g></g></g></g><g id="XMLID_224_"><g id="XMLID_150_"><g id="XMLID_799_"><path class="st0" d="M205.6 46.2h-4.4c-.3 0-.5-.2-.5-.5v-4.3c0-.3.2-.5.5-.5h3.9c.3 0 .5.2.5.5l.5 4.3c0 .1 0 .3-.1.4-.2 0-.3.1-.4.1zm-4.5-5c-.1 0-.2.1-.2.2v4.3c0 .1.1.2.2.2h4.5v-.1l-.5-4.3c0-.1-.1-.1-.1-.1h-3.9z" id="XMLID_800_"></path></g></g></g><g id="XMLID_223_"><g id="XMLID_144_"><g id="XMLID_792_"><path class="st0" d="M211.4 46.2h-4.1c-.3 0-.5-.2-.5-.4l-.6-4.3c0-.1 0-.3.1-.4.1-.1.2-.2.4-.2h4.1c.3 0 .5.2.5.5l.5 4.3c0 .1 0 .3-.1.4 0 0-.1.1-.3.1zm-4.6-5c-.1 0-.1 0-.1.1v.1l.6 4.3c0 .1.1.1.1.1h4.1s.1 0 .1-.1v-.1l-.5-4.3c0-.1-.1-.1-.1-.1h-4.2z" id="XMLID_793_"></path></g></g></g><g id="XMLID_222_"><g id="XMLID_140_"><g id="XMLID_783_"><path class="st0" d="M217.2 46.2h-4.1c-.3 0-.5-.2-.5-.4l-.6-4.3c0-.1 0-.3.1-.4.1-.1.2-.2.4-.2h4.1c.3 0 .5.2.5.5l.5 4.3c0 .1 0 .3-.1.4 0 0-.1.1-.3.1zm-4.6-5c-.1 0-.1 0-.1.1v.1l.6 4.3c0 .1.1.1.1.1h4.1s.1 0 .1-.1v-.1l-.5-4.3c0-.1-.1-.1-.1-.1h-4.2z" id="XMLID_786_"></path></g></g></g><g id="XMLID_221_"><g id="XMLID_117_"><g id="XMLID_774_"><path class="st0" d="M222.9 46.2h-4.1c-.3 0-.5-.2-.5-.4l-.6-4.3c0-.1 0-.3.1-.4.1-.1.2-.2.4-.2h4.1c.3 0 .5.2.5.5l.5 4.3c0 .1 0 .3-.1.4 0 0-.1.1-.3.1zm-4.6-5c-.1 0-.1 0-.1.1v.1l.6 4.3c0 .1.1.1.1.1h4.1s.1 0 .1-.1v-.1l-.5-4.3c0-.1-.1-.1-.1-.1h-4.2z" id="XMLID_777_"></path></g></g></g></g><g id="XMLID_395_"><g id="XMLID_114_"><g id="XMLID_763_"><path class="st0" d="M193.6 53.4c-1 0-1.8-.8-1.8-1.8s.8-1.8 1.8-1.8 1.8.8 1.8 1.8-.8 1.8-1.8 1.8zm0-3.3c-.8 0-1.5.7-1.5 1.5s.7 1.5 1.5 1.5 1.5-.7 1.5-1.5-.7-1.5-1.5-1.5z" id="XMLID_764_"></path></g></g></g><g id="XMLID_393_"><path class="st0" d="M182.9 53.4c-1 0-1.8-.8-1.8-1.8s.8-1.8 1.8-1.8 1.8.8 1.8 1.8-.8 1.8-1.8 1.8zm0-3.3c-.8 0-1.5.7-1.5 1.5s.7 1.5 1.5 1.5 1.5-.7 1.5-1.5-.7-1.5-1.5-1.5z" id="XMLID_637_"></path></g><g id="XMLID_390_"><g id="XMLID_111_"><g id="XMLID_746_"><path class="st0" d="M197 51.1h-.6c-.1 0-.2-.1-.2-.2 0-1.3-1.1-2.2-2.7-2.2-1.5 0-2.7 1-2.7 2.2 0 .1-.1.2-.2.2h-5.3c-.1 0-.2-.1-.2-.2 0-1.3-1-2.2-2.4-2.2s-2.4 1-2.4 2.2c0 .1-.1.2-.2.2h-.6c-.1 0-.2-.1-.2-.2V42c0-.1.1-.2.2-.2H197c.1 0 .2.1.2.2v8.9c0 .1-.1.2-.2.2zm-.4-.3h.2v-8.5h-16.9v8.5h.3c.1-1.4 1.2-2.4 2.8-2.4 1.5 0 2.7 1 2.8 2.4h4.9c.1-1.4 1.4-2.4 3-2.4 1.6-.1 2.8 1 2.9 2.4z" id="XMLID_747_"></path></g></g></g><g id="XMLID_239_"><g id="XMLID_110_"><g id="XMLID_701_"><path class="st0" d="M179.7 46.9H197v.4h-17.3z" id="XMLID_636_"></path></g></g></g></g><g id="XMLID_692_"><g id="XMLID_85_"><g id="XMLID_860_"><path class="st0" d="M239 79.2l-.2-.2c-.2-.2-.3-.4-.3-.6l-.8-3.8v-.1h.1c.2 0 .4-.1.5-.3.1-.2 0-.4-.1-.5l-.4-.4c-.1-.1-.2-.1-.3-.1l-36.9-.2v11.5h2.7V84c0-1.5 1.3-2.8 2.8-2.8h6.4c1.5 0 2.7 1.2 2.8 2.7v.7h16.5v-.2c0-.1.5-2.9 3.2-2.9 2.1 0 2.9 1.8 3.1 2.6.1.3.4.5.7.5.4 0 .7-.3.7-.7v-3.4c0-.6-.2-1-.5-1.3zm.1 4.5c0 .2-.1.3-.3.3-.1 0-.3-.1-.3-.2-.2-.9-1-2.8-3.4-2.8-2.6 0-3.4 2.4-3.6 3.1h-15.8v-.3c-.1-1.7-1.5-3.1-3.2-3.1h-6.4c-1.8 0-3.2 1.4-3.2 3.2v.2H201V73.3l36.5.2h.1l.4.4v.1s0 .1-.1.1-.3.1-.4.2c-.1.1-.1.3-.1.4l.8 3.8c.1.3.2.6.4.8l.2.2c.2.2.3.5.3.8v3.4z" id="XMLID_861_"></path></g></g><g id="XMLID_645_"><g id="XMLID_855_"><path class="st0" d="M207 74.9c-.1-.4-.4-.7-.9-.7h-3.6c-.5 0-.9.4-.9.9v3.6c0 .5.4.9.9.9h4.2c.3 0 .5-.1.7-.3.2-.2.2-.4.2-.7l-.6-3.7zm.1 4.1c-.1.1-.2.2-.4.2h-4.2c-.3 0-.5-.2-.5-.5v-3.6c0-.3.2-.5.5-.5h3.6c.2 0 .4.2.5.4l.6 3.6c0 .1 0 .3-.1.4z" id="XMLID_856_"></path></g></g><g id="XMLID_648_"><g id="XMLID_850_"><path class="st0" d="M212.6 74.9c-.1-.4-.4-.7-.9-.7h-3.1c-.2 0-.5.1-.6.3-.2.2-.2.4-.2.7l.4 3.6c0 .4.4.8.9.8h3.5c.3 0 .5-.1.7-.3.2-.2.2-.5.2-.7l-.9-3.7zm.3 4.1c-.1.1-.2.2-.4.2H209c-.3 0-.5-.2-.5-.4l-.4-3.6c0-.1 0-.3.1-.4.1-.1.2-.2.4-.2h3.1c.2 0 .4.2.5.4l.7 3.6c.1.1.1.2 0 .4z" id="XMLID_851_"></path></g></g><g id="XMLID_651_"><g id="XMLID_845_"><path class="st0" d="M218.6 74.9c-.1-.4-.4-.7-.9-.7h-3.1c-.2 0-.5.1-.6.3-.2.2-.2.4-.2.7l.4 3.6c0 .4.4.8.9.8h3.5c.3 0 .5-.1.7-.3.2-.2.2-.5.2-.7l-.9-3.7zm.2 4.1c-.1.1-.2.2-.4.2H215c-.3 0-.5-.2-.5-.4l-.4-3.6c0-.1 0-.3.1-.4.1-.1.2-.2.4-.2h3.1c.2 0 .4.2.5.4l.7 3.6c0 .1 0 .2-.1.4z" id="XMLID_846_"></path></g></g><g id="XMLID_654_"><g id="XMLID_840_"><path class="st0" d="M224.5 74.9c-.1-.4-.4-.7-.9-.7h-3.1c-.2 0-.5.1-.6.3-.2.2-.2.4-.2.7l.4 3.6c0 .4.4.8.9.8h3.5c.3 0 .5-.1.7-.3.2-.2.2-.5.2-.7l-.9-3.7zm.2 4.1c-.1.1-.2.2-.4.2h-3.5c-.3 0-.5-.2-.5-.4l-.4-3.6c0-.1 0-.3.1-.4.1-.1.2-.2.4-.2h3.1c.2 0 .4.2.5.4l.7 3.6c.1.1.1.2 0 .4z" id="XMLID_841_"></path></g></g><g id="XMLID_657_"><g id="XMLID_835_"><path class="st0" d="M230.4 74.9c-.1-.4-.4-.7-.9-.7h-3.1c-.2 0-.5.1-.6.3-.2.2-.2.4-.2.7l.4 3.6c0 .4.4.8.9.8h3.5c.3 0 .5-.1.7-.3.2-.2.2-.5.2-.7l-.9-3.7zm.2 4.1c-.1.1-.2.2-.4.2h-3.5c-.3 0-.5-.2-.5-.4l-.4-3.6c0-.1 0-.3.1-.4.1-.1.2-.2.4-.2h3.1c.2 0 .4.2.5.4l.7 3.6c.1.1.1.2 0 .4z" id="XMLID_836_"></path></g></g><g id="XMLID_660_"><g id="XMLID_828_"><path class="st0" d="M236.2 74.9c-.1-.4-.4-.7-.9-.7h-3.1c-.2 0-.5.1-.6.3-.2.2-.2.4-.2.7l.4 3.6c0 .4.4.8.9.8h3.5c.3 0 .5-.1.7-.3.2-.2.2-.5.2-.7l-.9-3.7zm.3 4.1c-.1.1-.2.2-.4.2h-3.5c-.3 0-.5-.2-.5-.4l-.4-3.6c0-.1 0-.3.1-.4.1-.1.2-.2.4-.2h3.1c.2 0 .4.2.5.4l.7 3.6c.1.1.1.2 0 .4z" id="XMLID_829_"></path></g></g><g id="XMLID_663_"><g id="XMLID_819_"><path class="st0" d="M206.6 81.8c-1.3 0-2.4 1.1-2.4 2.4 0 1.3 1.1 2.4 2.4 2.4 1.3 0 2.4-1.1 2.4-2.4 0-1.3-1.1-2.4-2.4-2.4zm0 4.5c-1.1 0-2-.9-2-2s.9-2 2-2 2 .9 2 2-.9 2-2 2z" id="XMLID_822_"></path></g></g><g id="XMLID_666_"><g id="XMLID_812_"><path class="st0" d="M206.6 82.7c-.9 0-1.6.7-1.6 1.6s.7 1.6 1.6 1.6c.9 0 1.6-.7 1.6-1.6s-.8-1.6-1.6-1.6zm0 2.7c-.6 0-1.2-.5-1.2-1.2 0-.6.5-1.2 1.2-1.2.6 0 1.2.5 1.2 1.2-.1.7-.6 1.2-1.2 1.2z" id="XMLID_815_"></path></g></g><g id="XMLID_669_"><g id="XMLID_805_"><path class="st0" d="M211.9 81.8c-1.3 0-2.4 1.1-2.4 2.4 0 1.3 1.1 2.4 2.4 2.4 1.3 0 2.4-1.1 2.4-2.4 0-1.3-1-2.4-2.4-2.4zm0 4.5c-1.1 0-2-.9-2-2s.9-2 2-2 2 .9 2 2c.1 1.1-.8 2-2 2z" id="XMLID_806_"></path></g></g><g id="XMLID_672_"><g id="XMLID_796_"><path class="st0" d="M211.9 82.7c-.9 0-1.6.7-1.6 1.6s.7 1.6 1.6 1.6c.9 0 1.6-.7 1.6-1.6s-.7-1.6-1.6-1.6zm0 2.7c-.6 0-1.2-.5-1.2-1.2 0-.6.5-1.2 1.2-1.2.6 0 1.2.5 1.2 1.2s-.5 1.2-1.2 1.2z" id="XMLID_797_"></path></g></g><g id="XMLID_675_"><g id="XMLID_788_"><path class="st0" d="M234.9 81.8c-1.3 0-2.4 1.1-2.4 2.4 0 1.3 1.1 2.4 2.4 2.4 1.3 0 2.4-1.1 2.4-2.4 0-1.3-1-2.4-2.4-2.4zm0 4.5c-1.1 0-2-.9-2-2s.9-2 2-2 2 .9 2 2c.1 1.1-.9 2-2 2z" id="XMLID_789_"></path></g></g><g id="XMLID_678_"><g id="XMLID_778_"><path class="st0" d="M234.9 82.7c-.9 0-1.6.7-1.6 1.6s.7 1.6 1.6 1.6c.9 0 1.6-.7 1.6-1.6s-.7-1.6-1.6-1.6zm0 2.7c-.6 0-1.2-.5-1.2-1.2 0-.6.5-1.2 1.2-1.2s1.2.5 1.2 1.2-.5 1.2-1.2 1.2z" id="XMLID_779_"></path></g></g><g id="XMLID_681_"><g id="XMLID_767_"><path class="st0" d="M194.4 82.5c-1 0-1.9.8-1.9 1.9s.8 1.9 1.9 1.9c1 0 1.9-.8 1.9-1.9s-.8-1.9-1.9-1.9zm0 3.4c-.8 0-1.5-.7-1.5-1.5s.7-1.5 1.5-1.5 1.5.7 1.5 1.5-.6 1.5-1.5 1.5z" id="XMLID_768_"></path></g></g><g id="XMLID_684_"><g id="XMLID_755_"><path class="st0" d="M183.3 82.5c-1 0-1.9.8-1.9 1.9s.8 1.9 1.9 1.9 1.9-.8 1.9-1.9-.8-1.9-1.9-1.9zm0 3.4c-.8 0-1.5-.7-1.5-1.5s.7-1.5 1.5-1.5 1.5.7 1.5 1.5-.6 1.5-1.5 1.5z" id="XMLID_757_"></path></g></g><g id="XMLID_687_"><g id="XMLID_740_"><path class="st0" d="M197.9 73.1H180c-.1 0-.2.1-.2.2v10.4c0 .1.1.2.2.2h.7c.1 0 .2-.1.2-.2 0-1.5 1.1-2.6 2.5-2.6s2.5 1.1 2.5 2.6c0 .1.1.2.2.2h5.4c.1 0 .2-.1.2-.2 0-1.5 1.2-2.6 2.7-2.6s2.7 1.1 2.7 2.6c0 .1.1.2.2.2h.6c.1 0 .2-.1.2-.2V73.3c0-.1 0-.2-.2-.2zm-.1 10.4h-.2c-.1-1.6-1.4-2.8-3.1-2.8-1.7 0-3 1.2-3.1 2.8h-5.1c-.1-1.6-1.3-2.8-2.8-2.8-1.6 0-2.7 1.2-2.8 2.8h-.3v-4h17.5v4zm0-4.4h-17.5v-5.5h17.5v5.5z" id="XMLID_741_"></path></g></g></g><g id="XMLID_42_"><g id="XMLID_736_"><g id="XMLID_690_"><path class="st0" d="M140.4 111.8l-.2-.2c-.2-.2-.3-.4-.4-.7l-.9-4.4v-.1h.1c.2 0 .4-.1.5-.3.1-.2 0-.5-.1-.6l-.4-.4c-.1-.1-.2-.2-.4-.2l-42.3-.2v13.2h3.1v-.6c0-1.8 1.4-3.2 3.2-3.2h7.3c1.7 0 3.1 1.4 3.2 3.1v.7H132v-.2c0-.1.6-3.4 3.7-3.4 2.4 0 3.3 2.1 3.5 2.9.1.4.4.6.8.6s.8-.4.8-.8v-4c.1-.4 0-.9-.4-1.2zm.1 5.1c0 .2-.2.4-.4.4s-.3-.1-.4-.3c-.3-1-1.2-3.3-3.9-3.3-3 0-3.9 2.8-4.1 3.5h-18.1v-.3c-.1-2-1.7-3.5-3.6-3.5h-7.3c-2 0-3.6 1.6-3.6 3.6v.2h-2.2V105l41.9.2h.1l.4.4c.1.1 0 .1 0 .1s0 .1-.1.1c-.2 0-.3.1-.4.2-.1.1-.2.3-.1.5l.9 4.4c.1.3.2.6.5.9l.2.2c.2.2.4.6.4.9v4z" id="XMLID_691_"></path></g></g><g id="XMLID_733_"><g id="XMLID_639_"><path class="st0" d="M103.7 106.8c-.1-.5-.5-.8-1-.8h-4.2c-.6 0-1 .4-1 1v4.1c0 .6.4 1 1 1h4.8c.3 0 .6-.1.8-.3s.3-.5.2-.8l-.6-4.2zm.1 4.7c-.1.1-.3.2-.4.2h-4.8c-.3 0-.6-.3-.6-.6V107c0-.3.3-.6.6-.6h4.2c.3 0 .5.2.6.5l.6 4.1c-.1.2-.1.3-.2.5z" id="XMLID_640_"></path></g></g><g id="XMLID_730_"><g id="XMLID_634_"><path class="st0" d="M110.2 106.8c-.1-.5-.5-.8-1-.8h-3.6c-.3 0-.6.1-.7.3-.2.2-.3.5-.3.8l.4 4.1c.1.5.5.9 1 .9h4c.3 0 .6-.1.8-.4.2-.2.3-.5.2-.8l-.8-4.1zm.3 4.7c-.1.1-.3.2-.4.2h-4c-.3 0-.5-.2-.6-.5l-.4-4.1c0-.2 0-.3.1-.4.1-.1.3-.2.4-.2h3.6c.3 0 .5.2.6.5l.8 4.1c0 .1 0 .2-.1.4z" id="XMLID_635_"></path></g></g><g id="XMLID_727_"><g id="XMLID_628_"><path class="st0" d="M117 106.8c-.1-.5-.5-.8-1-.8h-3.6c-.3 0-.6.1-.7.3-.2.2-.3.5-.3.8l.4 4.1c.1.5.5.9 1 .9h4c.3 0 .6-.1.8-.4.2-.2.3-.5.2-.8l-.8-4.1zm.3 4.7c-.1.1-.3.2-.4.2h-4c-.3 0-.5-.2-.6-.5l-.4-4.1c0-.2 0-.3.1-.4.1-.1.3-.2.4-.2h3.6c.3 0 .5.2.6.5l.8 4.1c0 .1 0 .2-.1.4z" id="XMLID_629_"></path></g></g><g id="XMLID_724_"><g id="XMLID_622_"><path class="st0" d="M123.7 106.8c-.1-.5-.5-.8-1-.8h-3.6c-.3 0-.6.1-.7.3-.2.2-.3.5-.3.8l.4 4.1c.1.5.5.9 1 .9h4c.3 0 .6-.1.8-.4.2-.2.3-.5.2-.8l-.8-4.1zm.3 4.7c-.1.1-.3.2-.4.2h-4c-.3 0-.5-.2-.6-.5l-.4-4.1c0-.2 0-.3.1-.4.1-.1.3-.2.4-.2h3.6c.3 0 .5.2.6.5l.8 4.1c.1.1 0 .2-.1.4z" id="XMLID_623_"></path></g></g><g id="XMLID_721_"><g id="XMLID_616_"><path class="st0" d="M130.5 106.8c-.1-.5-.5-.8-1-.8h-3.6c-.3 0-.6.1-.7.3-.2.2-.3.5-.3.8l.4 4.1c.1.5.5.9 1 .9h4c.3 0 .6-.1.8-.4.2-.2.3-.5.2-.8l-.8-4.1zm.3 4.7c-.1.1-.3.2-.4.2h-4c-.3 0-.5-.2-.6-.5l-.4-4.1c0-.2 0-.3.1-.4.1-.1.3-.2.4-.2h3.6c.3 0 .5.2.6.5l.8 4.1c0 .1 0 .2-.1.4z" id="XMLID_617_"></path></g></g><g id="XMLID_718_"><g id="XMLID_609_"><path class="st0" d="M137.3 106.8c-.1-.5-.5-.8-1-.8h-3.6c-.3 0-.6.1-.7.3-.2.2-.3.5-.3.8l.4 4.1c.1.5.5.9 1 .9h4c.3 0 .6-.1.8-.4.2-.2.3-.5.2-.8l-.8-4.1zm.2 4.7c-.1.1-.3.2-.4.2h-4c-.3 0-.5-.2-.6-.5l-.4-4.1c0-.2 0-.3.1-.4.1-.1.3-.2.4-.2h3.6c.3 0 .5.2.6.5l.8 4.1c.1.1 0 .2-.1.4z" id="XMLID_611_"></path></g></g><g id="XMLID_715_"><g id="XMLID_603_"><path class="st0" d="M103.2 114.8c-1.5 0-2.8 1.2-2.8 2.8s1.2 2.8 2.8 2.8 2.8-1.2 2.8-2.8-1.3-2.8-2.8-2.8zm0 5.1c-1.3 0-2.3-1-2.3-2.3 0-1.3 1-2.3 2.3-2.3 1.3 0 2.3 1 2.3 2.3 0 1.2-1 2.3-2.3 2.3z" id="XMLID_604_"></path></g></g><g id="XMLID_712_"><g id="XMLID_596_"><path class="st0" d="M103.2 115.7c-1 0-1.8.8-1.8 1.8s.8 1.8 1.8 1.8 1.8-.8 1.8-1.8-.8-1.8-1.8-1.8zm0 3.2c-.7 0-1.3-.6-1.3-1.3s.6-1.3 1.3-1.3c.7 0 1.3.6 1.3 1.3s-.6 1.3-1.3 1.3z" id="XMLID_598_"></path></g></g><g id="XMLID_709_"><g id="XMLID_591_"><path class="st0" d="M109.4 114.8c-1.5 0-2.8 1.2-2.8 2.8s1.2 2.8 2.8 2.8 2.8-1.2 2.8-2.8-1.3-2.8-2.8-2.8zm0 5.1c-1.3 0-2.3-1-2.3-2.3 0-1.3 1-2.3 2.3-2.3 1.3 0 2.3 1 2.3 2.3 0 1.2-1 2.3-2.3 2.3z" id="XMLID_592_"></path></g></g><g id="XMLID_706_"><g id="XMLID_579_"><path class="st0" d="M109.4 115.7c-1 0-1.8.8-1.8 1.8s.8 1.8 1.8 1.8 1.8-.8 1.8-1.8-.8-1.8-1.8-1.8zm0 3.2c-.7 0-1.3-.6-1.3-1.3s.6-1.3 1.3-1.3c.7 0 1.3.6 1.3 1.3s-.6 1.3-1.3 1.3z" id="XMLID_585_"></path></g></g><g id="XMLID_703_"><g id="XMLID_566_"><path class="st0" d="M135.7 114.8c-1.5 0-2.8 1.2-2.8 2.8s1.2 2.8 2.8 2.8 2.8-1.2 2.8-2.8-1.2-2.8-2.8-2.8zm0 5.1c-1.3 0-2.3-1-2.3-2.3 0-1.3 1-2.3 2.3-2.3 1.3 0 2.3 1 2.3 2.3.1 1.2-1 2.3-2.3 2.3z" id="XMLID_568_"></path></g></g><g id="XMLID_174_"><g id="XMLID_545_"><path class="st0" d="M135.7 115.7c-1 0-1.8.8-1.8 1.8s.8 1.8 1.8 1.8 1.8-.8 1.8-1.8-.8-1.8-1.8-1.8zm0 3.2c-.7 0-1.3-.6-1.3-1.3s.6-1.3 1.3-1.3c.7 0 1.3.6 1.3 1.3s-.5 1.3-1.3 1.3z" id="XMLID_550_"></path></g></g></g><g id="XMLID_60_"><g id="XMLID_784_"><g id="XMLID_105_"><path class="st0" d="M196.9 148.9h-13.3v-4.5h10.6l2.7 4.5zm-13-.3h12.3l-2.2-3.8h-10v3.8z" id="XMLID_866_"></path></g></g><g id="XMLID_372_"><g id="XMLID_104_"><path class="st0" d="M188.9 144.6h.4v4.2h-.4z" id="XMLID_752_"></path></g></g><g id="XMLID_195_"><g id="XMLID_95_"><path class="st0" d="M218.1 162h-3.4l-.1-.1c-1-1.5-2.6-2.3-4.3-2.3s-3.4.9-4.3 2.3v.1h-10.4v-.2c-.1-4.6-3.8-8.2-8.4-8.2-2.2 0-4.4.9-5.9 2.5l-.3.3v-14.3h13.9l5.3 10h16.3l1.6 9.9zm-3.1-.3h2.7l-1.7-9.1h-16.2l-5.3-10h-13.3v13c1.6-1.5 3.7-2.3 5.9-2.3 2.3 0 4.5.9 6.1 2.5 1.6 1.6 2.5 3.6 2.6 5.9h9.8c1-1.5 2.7-2.4 4.6-2.4s3.7.8 4.8 2.4z" id="XMLID_854_"></path></g></g><g id="XMLID_156_"><g id="XMLID_90_"><path class="st0" d="M187.1 168.6c-3.6 0-6.5-2.9-6.5-6.5s2.9-6.5 6.5-6.5 6.5 2.9 6.5 6.5-2.9 6.5-6.5 6.5zm0-12.7c-3.4 0-6.2 2.8-6.2 6.2s2.8 6.2 6.2 6.2 6.2-2.8 6.2-6.2-2.8-6.2-6.2-6.2z" id="XMLID_844_"></path></g></g><g id="XMLID_240_"><g id="XMLID_86_"><path class="st0" d="M210.6 168.5c-2 0-3.7-1.6-3.7-3.7 0-2 1.6-3.7 3.7-3.7 2 0 3.7 1.6 3.7 3.7-.1 2-1.7 3.7-3.7 3.7zm0-7c-1.8 0-3.3 1.5-3.3 3.3s1.5 3.3 3.3 3.3c1.8 0 3.3-1.5 3.3-3.3s-1.5-3.3-3.3-3.3z" id="XMLID_837_"></path></g></g><g id="XMLID_24_"><g id="XMLID_79_"><path class="st0" d="M181.1 155.1h-1.7v-2.2h1.7v.4h-1.3v1.4h1.3z" id="XMLID_749_"></path></g></g><g id="XMLID_17_"><g id="XMLID_75_"><path class="st0" d="M187.1 166c-2.2 0-3.9-1.8-3.9-3.9 0-2.2 1.8-3.9 3.9-3.9 2.2 0 3.9 1.8 3.9 3.9 0 2.2-1.8 3.9-3.9 3.9zm0-7.5c-2 0-3.6 1.6-3.6 3.6s1.6 3.6 3.6 3.6 3.6-1.6 3.6-3.6-1.7-3.6-3.6-3.6z" id="XMLID_811_"></path></g></g><g id="XMLID_19_"><g id="XMLID_72_"><path class="st0" d="M210.6 166.7c-1.1 0-1.9-.9-1.9-1.9 0-1.1.9-1.9 1.9-1.9 1.1 0 1.9.9 1.9 1.9 0 1.1-.9 1.9-1.9 1.9zm0-3.5c-.9 0-1.6.7-1.6 1.6s.7 1.6 1.6 1.6c.9 0 1.6-.7 1.6-1.6s-.8-1.6-1.6-1.6z" id="XMLID_795_"></path></g></g><g id="XMLID_28_"><g id="XMLID_71_"><path class="st0" d="M212 152.4h-.4v-9.9h-1.8v9.9h-.4v-10.3h2.6z" id="XMLID_742_"></path></g></g><g id="XMLID_30_"><g id="XMLID_70_"><path class="st0" d="M207.1 152.4h-.4v-3.5h-1.6v3.5h-.4v-3.8h2.4z" id="XMLID_700_"></path></g></g></g><g id="XMLID_155_"><g id="XMLID_308_"><g id="XMLID_67_"><path class="st0" d="M196.1 112.4h-13V108h10.4l2.6 4.4zm-12.6-.3h12.1l-2.2-3.8h-9.9v3.8z" id="XMLID_847_"></path></g></g><g id="XMLID_307_"><g id="XMLID_65_"><path class="st0" d="M188.4 108.2h.3v4.1h-.3z" id="XMLID_696_"></path></g></g><g id="XMLID_306_"><g id="XMLID_61_"><path class="st0" d="M211.2 125.3h-3.3v-.1c-.9-1.4-2.5-2.3-4.3-2.3s-3.3.9-4.3 2.3v.1H195v-.2c-.1-4.5-3.7-8.1-8.3-8.1-2.2 0-4.3.9-5.8 2.4l-.3.3v-13.9h13.6l5.1 9.8h10.1l1.8 9.7zm-3.1-.4h2.7l-1.6-9h-10l-5.1-9.8H181V119c1.6-1.5 3.6-2.2 5.8-2.2 2.3 0 4.4.9 6 2.4 1.6 1.5 2.5 3.6 2.6 5.8h3.8c1-1.5 2.7-2.4 4.5-2.4s3.4.8 4.4 2.3z" id="XMLID_831_"></path></g></g><g id="XMLID_305_"><g id="XMLID_57_"><path class="st0" d="M186.6 131.7c-3.5 0-6.4-2.9-6.4-6.4 0-3.5 2.9-6.4 6.4-6.4 3.5 0 6.4 2.9 6.4 6.4 0 3.6-2.9 6.4-6.4 6.4zm0-12.4c-3.3 0-6.1 2.7-6.1 6.1 0 3.3 2.7 6.1 6.1 6.1s6.1-2.7 6.1-6.1c-.1-3.4-2.8-6.1-6.1-6.1z" id="XMLID_818_"></path></g></g><g id="XMLID_304_"><g id="XMLID_53_"><path class="st0" d="M203.7 131.4c-2 0-3.6-1.6-3.6-3.6s1.6-3.6 3.6-3.6 3.6 1.6 3.6 3.6-1.6 3.6-3.6 3.6zm0-6.8c-1.8 0-3.2 1.4-3.2 3.2s1.4 3.2 3.2 3.2c1.8 0 3.2-1.4 3.2-3.2s-1.4-3.2-3.2-3.2z" id="XMLID_809_"></path></g></g><g id="XMLID_303_"><g id="XMLID_52_"><path class="st0" d="M180.8 118.4h-1.6v-2.1h1.6v.3h-1.3v1.5h1.3z" id="XMLID_518_"></path></g></g><g id="XMLID_302_"><g id="XMLID_49_"><path class="st0" d="M186.6 129.2c-2.1 0-3.8-1.7-3.8-3.8 0-2.1 1.7-3.8 3.8-3.8 2.1 0 3.8 1.7 3.8 3.8 0 2.1-1.7 3.8-3.8 3.8zm0-7.4c-1.9 0-3.5 1.6-3.5 3.5s1.6 3.5 3.5 3.5 3.5-1.6 3.5-3.5-1.6-3.5-3.5-3.5z" id="XMLID_782_"></path></g></g><g id="XMLID_301_"><g id="XMLID_44_"><path class="st0" d="M203.7 129.7c-1 0-1.9-.8-1.9-1.9s.8-1.9 1.9-1.9c1 0 1.9.8 1.9 1.9s-.8 1.9-1.9 1.9zm0-3.4c-.9 0-1.6.7-1.6 1.6 0 .9.7 1.6 1.6 1.6.9 0 1.6-.7 1.6-1.6 0-.9-.7-1.6-1.6-1.6z" id="XMLID_762_"></path></g></g><g id="XMLID_282_"><g id="XMLID_40_"><path class="st0" d="M204.7 115.9h-.4v-3.3h-1.5v3.3h-.4v-3.7h2.3z" id="XMLID_41_"></path></g></g></g><g id="XMLID_8_"><g id="XMLID_1307_"><g id="XMLID_38_"><path class="st0" d="M53 141.2l-3.9-6.8h-9.3v-.4h9.5l4 7z" id="XMLID_567_"></path></g></g><g id="XMLID_1339_"><g id="XMLID_35_"><path class="st0" d="M22.8 148.5s-.1 0-.1-.1l-.1-.1v-14.1c0-.1.1-.2.2-.2h16.9c.1 0 .2.1.2.2v6.7h19.5c.1 0 .2.1.2.2l.7 5.7c0 .3-.1.6-.3.9-.2.2-.5.4-.8.4-.5 0-1-.3-1.1-.8-.5-1.7-2-2.9-3.8-2.9-2.1 0-3.8 1.6-3.9 3.7 0 .1-.1.2-.2.2l-16 .2c-.1 0-.2-.1-.2-.2-.1-2.1-1.8-3.8-3.9-3.8-2.2 0-3.9 1.8-4 3.9 0 .1-.1.2-.2.2l-3.1-.1zm.2-14.1v13.7h2.8c.1-2.3 2-4.1 4.3-4.1s4.2 1.7 4.3 4l15.7-.2c.2-2.2 2.1-3.8 4.3-3.8 2 0 3.7 1.3 4.2 3.2.1.3.4.5.7.5.2 0 .4-.1.6-.3.1-.2.2-.4.2-.6l-.7-5.6H39.8c-.1 0-.2-.1-.2-.2v-6.7H23z" id="XMLID_557_"></path></g></g><g id="XMLID_1308_"><g id="XMLID_32_"><path class="st0" d="M30.1 150.7c-1.5 0-2.7-1.2-2.7-2.7 0-1.5 1.2-2.7 2.7-2.7 1.5 0 2.7 1.2 2.7 2.7 0 1.5-1.2 2.7-2.7 2.7zm0-5c-1.3 0-2.3 1.1-2.3 2.3 0 1.3 1.1 2.3 2.3 2.3 1.3 0 2.3-1.1 2.3-2.3.1-1.3-1-2.3-2.3-2.3z" id="XMLID_546_"></path></g></g><g id="XMLID_1313_"><g id="XMLID_25_"><path class="st0" d="M54.4 150.7c-1.5 0-2.7-1.2-2.7-2.7 0-1.5 1.2-2.7 2.7-2.7 1.5 0 2.7 1.2 2.7 2.7 0 1.5-1.2 2.7-2.7 2.7zm0-5c-1.3 0-2.3 1.1-2.3 2.3 0 1.3 1.1 2.3 2.3 2.3 1.3 0 2.3-1.1 2.3-2.3 0-1.3-1-2.3-2.3-2.3z" id="XMLID_535_"></path></g></g><g id="XMLID_1312_"><g id="XMLID_27_"><path class="st0" d="M48.5 139.2h-6.2c-.5 0-.9-.4-.9-.9v-3.2h4.8c.2 0 .5.1.6.3l2.3 2.3c.3.3.3.6.2 1-.1.3-.4.5-.8.5zm-6.8-3.7v2.9c0 .3.2.5.5.5h6.2c.3 0 .4-.2.5-.3.1-.2.1-.4-.1-.6l-2.3-2.3c-.1-.1-.2-.2-.4-.2h-4.4z" id="XMLID_519_"></path></g></g></g><g id="XMLID_23_"><path id="XMLID_907_" class="st2" d="M3.4 17.2l-.7 2.1h-.8l2.2-6.6h1l2.2 6.6h-.8l-.7-2.1H3.4zm2.2-.7L5 14.6l-.3-1.2-.3 1.2-.6 1.9h1.8z"></path><path id="XMLID_910_" class="st2" d="M13.9 16.4c0-.9-.1-2-.1-2.8-.2.8-.5 1.6-.8 2.5l-1.2 3.2h-.6L10 16.1c-.3-.9-.6-1.8-.8-2.6 0 .8-.1 1.9-.1 2.9l-.2 2.8h-.8l.5-6.6h1.1l1.1 3.2c.3.8.5 1.5.7 2.2.2-.7.4-1.4.7-2.2l1.2-3.2h1.1l.4 6.6H14l-.1-2.8z"></path></g><g id="XMLID_529_"><path id="XMLID_902_" class="st2" d="M3.4 52.2l-.7 2.1h-.8l2.2-6.6h1l2.2 6.6h-.8l-.7-2.1H3.4zm2.2-.6L5 49.7l-.3-1.2-.3 1.2-.6 1.9h1.8z"></path><path id="XMLID_905_" class="st2" d="M9.9 48.7l-1.1.6-.2-.7 1.4-.7h.7v6.4h-.8v-5.6z"></path></g><g id="XMLID_530_"><path id="XMLID_897_" class="st2" d="M3.4 82l-.7 2.1h-.8l2.2-6.6h1l2.2 6.6h-.8L5.8 82H3.4zm2.2-.7L5 79.4l-.3-1.2-.3 1.2-.6 1.9h1.8z"></path><path id="XMLID_900_" class="st2" d="M8 84.1v-.5l.7-.7c1.6-1.5 2.4-2.4 2.4-3.3 0-.6-.3-1.2-1.3-1.2-.6 0-1.1.3-1.3.5l-.3-.6c.4-.4 1.1-.6 1.8-.6 1.4 0 1.9.9 1.9 1.8 0 1.2-.9 2.1-2.2 3.4l-.5.5h2.9v.7H8z"></path></g><g id="XMLID_532_"><path id="XMLID_894_" class="st2" d="M3.4 116.1l-.7 2.1h-.8l2.2-6.6h1l2.2 6.6h-.8l-.7-2.1H3.4zm2.2-.7l-.6-1.9-.3-1.2-.3 1.2-.6 1.9h1.8z"></path></g><g id="XMLID_541_"><path id="XMLID_888_" class="st2" d="M2.4 142c.4-.1 1-.1 1.6-.1.9 0 1.4.1 1.8.5.3.3.5.6.5 1.2s-.4 1.2-1.1 1.4c.6.2 1.4.7 1.4 1.7 0 .6-.2 1-.6 1.3-.5.4-1.2.6-2.3.6-.6 0-1 0-1.3-.1V142zm.8 2.7H4c.9 0 1.4-.5 1.4-1.1 0-.8-.6-1.1-1.4-1.1-.4 0-.6 0-.8.1v2.1zm0 3.1h.7c.9 0 1.7-.3 1.7-1.3 0-.9-.8-1.3-1.7-1.3h-.7v2.6z"></path><path id="XMLID_892_" class="st2" d="M9.2 142.9l-1.1.6-.2-.7 1.4-.7h.7v6.4h-.8v-5.6z"></path></g><g id="XMLID_552_"><path id="XMLID_884_" class="st2" d="M2.4 171.8c.4-.1 1-.1 1.6-.1.9 0 1.4.1 1.8.5.3.3.5.6.5 1.2s-.4 1.2-1.1 1.4c.6.2 1.4.7 1.4 1.7 0 .6-.2 1-.6 1.3-.5.4-1.2.6-2.3.6-.6 0-1 0-1.3-.1v-6.5zm.8 2.6H4c.9 0 1.4-.5 1.4-1.1 0-.8-.6-1.1-1.4-1.1-.4 0-.6 0-.8.1v2.1zm0 3.2h.7c.9 0 1.7-.3 1.7-1.3 0-.9-.8-1.3-1.7-1.3h-.7v2.6z"></path></g><g id="XMLID_588_"><path id="XMLID_880_" class="st2" d="M82.1 19c-.3.2-.9.3-1.7.3-1.9 0-3.3-1.2-3.3-3.3 0-2.1 1.4-3.5 3.4-3.5.8 0 1.3.2 1.6.3l-.2.7c-.3-.2-.8-.3-1.3-.3-1.5 0-2.6 1-2.6 2.7 0 1.6.9 2.7 2.5 2.7.5 0 1-.1 1.4-.3l.2.7z"></path><path id="XMLID_882_" class="st2" d="M84.7 13.7l-1.1.6-.2-.7 1.4-.7h.7v6.4h-.8v-5.6z"></path></g><g id="XMLID_586_"><path id="XMLID_878_" class="st2" d="M82.1 54.1c-.3.2-.9.3-1.7.3-1.9 0-3.3-1.2-3.3-3.3 0-2.1 1.4-3.5 3.4-3.5.8 0 1.3.2 1.6.3l-.2.7c-.3-.2-.8-.3-1.3-.3-1.5 0-2.6 1-2.6 2.7 0 1.6.9 2.7 2.5 2.7.5 0 1-.1 1.4-.3l.2.7z"></path></g><g id="XMLID_578_"><path id="XMLID_873_" class="st2" d="M77.5 77.6c.5-.1 1.1-.1 1.8-.1 1.2 0 2.1.3 2.7.8.6.5.9 1.3.9 2.4 0 1.1-.3 2-.9 2.6-.6.6-1.6.9-2.9.9-.6 0-1.1 0-1.5-.1v-6.5zm.9 5.8h.9c1.8 0 2.8-1 2.8-2.8 0-1.6-.9-2.5-2.7-2.5-.4 0-.8 0-1 .1v5.2z"></path><path id="XMLID_876_" class="st2" d="M85.6 78.5l-1.1.6-.2-.7 1.4-.7h.7v6.4h-.8v-5.6z"></path></g><g id="XMLID_572_"><path id="XMLID_870_" class="st2" d="M77.5 110.8c.5-.1 1.1-.1 1.8-.1 1.2 0 2.1.3 2.7.8.6.5.9 1.3.9 2.4 0 1.1-.3 2-.9 2.6-.6.6-1.6.9-2.9.9-.6 0-1.1 0-1.5-.1v-6.5zm.9 5.9h.9c1.8 0 2.8-1 2.8-2.8 0-1.6-.9-2.5-2.7-2.5-.4 0-.8 0-1 .1v5.2z"></path></g><g id="XMLID_560_"><path id="XMLID_863_" class="st2" d="M77.5 142c.4-.1 1-.1 1.6-.1.9 0 1.4.1 1.8.5.3.3.5.6.5 1.2s-.4 1.2-1.1 1.4c.6.2 1.4.7 1.4 1.7 0 .6-.2 1-.6 1.3-.5.4-1.2.6-2.3.6-.6 0-1 0-1.3-.1V142zm.9 2.7h.8c.9 0 1.4-.5 1.4-1.1 0-.8-.6-1.1-1.4-1.1-.4 0-.6 0-.8.1v2.1zm0 3.1h.7c.9 0 1.7-.3 1.7-1.3 0-.9-.8-1.3-1.7-1.3h-.7v2.6z"></path><path id="XMLID_868_" class="st2" d="M86.2 145.4h-2.6v2.4h2.9v.7h-3.7v-6.6h3.6v.7h-2.7v2.1h2.6v.7z"></path></g><g id="XMLID_781_"><path id="XMLID_857_" class="st2" d="M166.4 19c-.3.2-.9.3-1.7.3-1.9 0-3.3-1.2-3.3-3.3 0-2.1 1.4-3.5 3.4-3.5.8 0 1.3.2 1.6.3l-.2.7c-.3-.2-.8-.3-1.3-.3-1.5 0-2.6 1-2.6 2.7 0 1.6.9 2.7 2.5 2.7.5 0 1-.1 1.4-.3l.2.7z"></path><path id="XMLID_859_" class="st2" d="M170.9 16.2h-2.6v2.4h2.9v.7h-3.7v-6.6h3.6v.7h-2.7v2.1h2.6v.7z"></path></g><g id="XMLID_773_"><path id="XMLID_839_" class="st2" d="M156.2 47.8c.5-.1 1.1-.1 1.8-.1 1.2 0 2.1.3 2.7.8.6.5.9 1.3.9 2.4 0 1.1-.3 2-.9 2.6-.6.6-1.6.9-2.9.9-.6 0-1.1 0-1.5-.1v-6.5zm.8 5.8h.9c1.8 0 2.8-1 2.8-2.8 0-1.6-.9-2.5-2.7-2.5-.4 0-.8 0-1 .1v5.2z"></path><path id="XMLID_848_" class="st2" d="M164.3 48.7l-1.1.6-.2-.7 1.4-.7h.7v6.4h-.8v-5.6z"></path><path id="XMLID_852_" class="st2" d="M171.1 51.2h-2.6v2.4h2.9v.7h-3.7v-6.6h3.6v.7h-2.7v2.1h2.6v.7z"></path></g><g id="XMLID_772_"><path id="XMLID_824_" class="st2" d="M161.8 77.6c.5-.1 1.1-.1 1.8-.1 1.2 0 2.1.3 2.7.8.6.5.9 1.3.9 2.4 0 1.1-.3 2-.9 2.6-.6.6-1.6.9-2.9.9-.6 0-1.1 0-1.5-.1v-6.5zm.8 5.8h.9c1.8 0 2.8-1 2.8-2.8 0-1.6-.9-2.5-2.7-2.5-.4 0-.8 0-1 .1v5.2z"></path><path id="XMLID_834_" class="st2" d="M171.7 81h-2.6v2.4h2.9v.7h-3.7v-6.6h3.6v.7h-2.7v2.1h2.6v.7z"></path></g><g id="XMLID_769_"><path id="XMLID_817_" class="st2" d="M164.5 117.2h.8l-1.1 5.9h2.7l-.1.7h-3.5l1.2-6.6z"></path></g><g id="XMLID_760_"><path id="XMLID_810_" class="st2" d="M165.5 152.7h-1.9l.1-.7h4.7l-.1.7h-1.9l-1.1 5.9h-.8l1-5.9z"></path></g><g id="XMLID_593_"><path id="XMLID_758_" class="st2" d="M82.1 178c-.3.2-.9.3-1.7.3-1.9 0-3.3-1.2-3.3-3.3 0-2.1 1.4-3.5 3.4-3.5.8 0 1.3.2 1.6.3l-.2.7c-.3-.2-.8-.3-1.3-.3-1.5 0-2.6 1-2.6 2.7 0 1.6.9 2.7 2.5 2.7.5 0 1-.1 1.4-.3l.2.7z"></path><path id="XMLID_794_" class="st2" d="M84.7 172.7l-1.1.6-.2-.7 1.4-.7h.7v6.4h-.8v-5.6z"></path><path id="XMLID_802_" class="st2" d="M91.6 175.2H89v2.4h2.9v.7h-3.7v-6.6h3.6v.7H89v2.1h2.6v.7z"></path></g><path class="st0" d="M151.4 1.7v184.4" id="XMLID_694_"></path><path class="st0" d="M65.4 1.7v184.4" id="XMLID_787_"></path></g></svg> 