<?xml version="1.0" encoding="UTF-8"?> <!-- Generator: Adobe Illustrator 19.0.0, SVG Export Plug-In . SVG Version: 6.00 Build 0) --> <svg xmlns="http://www.w3.org/2000/svg" xmlns:xlink="http://www.w3.org/1999/xlink" id="Layer_1" x="0px" y="0px" viewBox="0 0 224.8 228.6" style="enable-background:new 0 0 224.8 228.6;" xml:space="preserve"> <style type="text/css"> .st0{fill:none;} .st1{fill:#E30613;} .st2{fill:#FFFFFF;} .st3{fill:#333333;} </style> <g id="XMLID_942_"> <line id="XMLID_943_" class="st0" x1="53.3" y1="16.3" x2="52.9" y2="15.3"></line> </g> <path id="XMLID_1132_" class="st1" d="M119.3,107.7c-22.8-22.8-22.8-59.8,0-82.6s59.8-22.8,82.6,0c22.8,22.8,22.8,59.8,0,82.6 S142.1,130.5,119.3,107.7z"></path> <path id="XMLID_1131_" class="st2" d="M130.2,96.8c-16.7-16.7-16.7-44,0-60.7s44-16.7,60.7,0c16.7,16.7,16.7,44,0,60.7 S147,113.5,130.2,96.8z"></path> <path id="XMLID_1133_" class="st1" d="M135.8,91.2c-13.7-13.7-13.7-35.9,0-49.6s35.9-13.7,49.6,0c13.7,13.7,13.7,35.9,0,49.6 C171.7,104.9,149.5,104.9,135.8,91.2z"></path> <path id="XMLID_9_" class="st3" d="M13.1,227c-2.6,0-5.1-1-7.1-2.9L4.9,223C3,221.1,2,218.6,2,215.9s1-5.2,2.9-7.1l55-55 c-1.5-3-0.9-6.6,1.4-9l3.2-3.2l3.8,3.8l20.4-20.4c8.1-8.1,11-19.8,7.6-30.5c-7.9-24.3-0.1-54.4,18.8-73.4 c12.1-12.1,28.3-18.8,45.4-18.8S193.9,8.9,206,21c12.1,12.1,18.8,28.3,18.8,45.4s-6.7,33.3-18.8,45.4 c-18.3,18.3-47.7,26.3-71.5,19.5c-10.3-3-21.6,0-29.5,7.9l-21.4,21.4l3.8,3.8l-3.2,3.2c-2.4,2.4-6.1,2.9-9,1.4l-55,55 C18.2,226,15.6,227,13.1,227z M64.6,144.3l-1.8,1.8c-1.9,1.9-2.2,5-0.8,7.2l0.4,0.7L6.3,210.2c-1.5,1.5-2.4,3.5-2.4,5.7 s0.8,4.2,2.4,5.7l1.1,1.1c3.1,3.1,8.2,3.1,11.4,0l56.1-56.1l0.7,0.4c2.3,1.5,5.3,1.2,7.2-0.8l1.8-1.8l-3.8-3.8l22.8-22.8 c8.3-8.3,20.4-11.6,31.4-8.4c23.1,6.7,51.7-1.1,69.5-19c11.8-11.8,18.2-27.4,18.2-44s-6.5-32.2-18.2-44s-27.4-18.2-44-18.2 s-32.2,6.5-44,18.2C98.5,40.5,90.8,70.5,98.3,93.8c3.7,11.4,0.6,23.9-8,32.5l-21.9,21.9L64.6,144.3z"></path> <rect id="XMLID_8_" x="32.7" y="151.2" transform="matrix(0.7071 0.7071 -0.7071 0.7071 141.9668 31.2643)" class="st3" width="1" height="71.5"></rect> <rect id="XMLID_7_" x="34.2" y="152.7" transform="matrix(0.7071 0.7071 -0.7071 0.7071 143.3937 30.673)" class="st3" width="1" height="71.5"></rect> <rect id="XMLID_6_" x="35.6" y="154.1" transform="matrix(0.7071 0.7071 -0.7071 0.7071 144.8214 30.0818)" class="st3" width="1" height="71.5"></rect> <rect id="XMLID_5_" x="37" y="155.5" transform="matrix(0.7071 0.7071 -0.7071 0.7071 146.2487 29.4904)" class="st3" width="1" height="71.5"></rect> <rect id="XMLID_4_" x="38.5" y="157" transform="matrix(0.7071 0.7071 -0.7071 0.7071 147.6759 28.8992)" class="st3" width="1" height="71.5"></rect> <rect id="XMLID_3_" x="39.9" y="158.4" transform="matrix(0.7071 0.7071 -0.7071 0.7071 149.1036 28.308)" class="st3" width="1" height="71.5"></rect> <rect id="XMLID_2_" x="41.3" y="159.8" transform="matrix(0.7071 0.7071 -0.7071 0.7071 150.5308 27.7168)" class="st3" width="1" height="71.5"></rect> <g id="XMLID_1393_"> <g id="XMLID_1425_"> <path id="XMLID_1442_" class="st2" d="M113.3,73.7c0.2,0.5,0.5,1.1,0.9,1.8c0.4,1,0.5,1.7,0.3,2.3c-0.2,0.5-0.6,1-1.2,1.3 c-0.6,0.3-1.2,0.3-1.8,0.1c-0.7-0.3-1.4-1.1-1.8-2.1c-0.1-0.3-0.2-0.6-0.3-0.9c-1.2,0.4-1.7,0.6-2.9,1.1c-0.2-0.4-0.2-0.7-0.4-1.1 C108.9,75.2,110.4,74.7,113.3,73.7z M110.1,76c0,0.2,0.1,0.5,0.3,0.9c0.5,1.2,1.4,1.8,2.4,1.4c0.9-0.4,1.1-1.3,0.7-2.4 c-0.2-0.4-0.3-0.8-0.4-0.9C111.8,75.3,111.3,75.5,110.1,76z"></path> <path id="XMLID_1439_" class="st2" d="M118.6,91.6c-2.2,1.5-4.4,0.8-5.7-1.1c-1.3-2-0.7-4.2,1.4-5.3c2.2-1.2,4.3-0.5,5.5,1.3 C121,88.3,120.5,90.3,118.6,91.6z M114.9,86.2c-1.4,0.8-2.2,2.4-1.2,3.9c1,1.5,2.8,1.6,4.2,0.6c1.3-0.9,2.1-2.4,1.2-3.9 C118.2,85.3,116.4,85.3,114.9,86.2z"></path> <path id="XMLID_1437_" class="st2" d="M125.4,94.1c0.3,0.3,0.4,0.5,0.7,0.8c-2.1,1.8-3.1,2.7-5.2,4.5c1,1.1,1.5,1.7,2.6,2.7 c-0.2,0.2-0.4,0.3-0.6,0.6c-1.4-1.4-2.1-2.1-3.4-3.6C121.9,97.1,123.1,96.1,125.4,94.1z"></path> <path id="XMLID_1434_" class="st2" d="M133.5,101.9c-2,2.3-3,3.5-5,5.9c-0.4-0.3-0.5-0.4-0.9-0.7c2-2.3,3-3.5,5-5.8 C133,101.5,133.2,101.6,133.5,101.9z"></path> <path id="XMLID_1432_" class="st2" d="M134.2,111.2c3.1-0.9,4.5-1.5,7.4-2.7c0,0,0,0,0,0c-1.4-0.8-2.1-1.3-3.5-2.2 c0.2-0.3,0.3-0.4,0.5-0.7c1.8,1.2,2.7,1.8,4.6,2.8c-0.1,0.2-0.2,0.3-0.3,0.5c-2.8,1.3-4.3,1.8-7.3,2.8c0,0,0,0,0,0 c1.7,1.1,2.5,1.6,4.3,2.5c-0.2,0.3-0.2,0.4-0.4,0.7c-2.3-1.3-3.4-2-5.6-3.4C134,111.5,134,111.4,134.2,111.2z"></path> <path id="XMLID_1429_" class="st2" d="M151,116.5c-1.3-0.5-1.9-0.7-3.1-1.2c-0.4,1-0.7,1.5-1.1,2.5c1.4,0.6,2.2,0.9,3.6,1.4 c-0.1,0.3-0.2,0.5-0.3,0.8c-1.9-0.7-2.9-1.1-4.7-1.9c1.3-2.8,1.9-4.2,3.2-6.9c1.6,0.7,2.4,1,4.1,1.6c-0.1,0.3-0.2,0.5-0.3,0.8 c-1.3-0.5-1.9-0.7-3.1-1.2c-0.4,0.9-0.6,1.3-1,2.2c1.2,0.5,1.8,0.8,3.1,1.2C151.2,116,151.1,116.2,151,116.5z"></path> <path id="XMLID_1426_" class="st2" d="M158.7,114.6c0.4,0.1,0.6,0.2,1,0.3c-0.7,2.6-1,3.9-1.7,6.6c1.5,0.4,2.3,0.5,3.8,0.8 c-0.1,0.3-0.1,0.5-0.2,0.8c-2-0.4-3-0.6-5-1.1C157.5,119,157.9,117.6,158.7,114.6z"></path> </g> </g> <g id="XMLID_1311_"> <g id="XMLID_1345_"> <path id="XMLID_1367_" class="st2" d="M174.3,12.3c-0.4,1.6-0.6,2.3-1.1,3.9c2.1,0.6,3.2,0.9,5.3,1.7c0.6-1.5,0.9-2.3,1.5-3.8 c0.6,0.2,0.9,0.4,1.5,0.6c-1.5,3.6-2.3,5.3-3.8,8.9c-0.5-0.2-0.7-0.3-1.2-0.5c0.7-1.7,1-2.5,1.7-4.2c-2-0.8-3-1.1-5.1-1.7 c-0.5,1.7-0.7,2.6-1.2,4.4c-0.5-0.1-0.8-0.2-1.3-0.3c0.9-3.8,1.4-5.6,2.3-9.4C173.4,12.1,173.7,12.1,174.3,12.3z"></path> <path id="XMLID_1361_" class="st2" d="M187.9,25.9c-1.1,0.7-1.6,1.1-2.6,1.9c-0.4-0.3-0.7-0.4-1.1-0.7c3.2-2.5,4.9-3.7,8.5-5.9 c0.6,0.4,0.9,0.7,1.5,1.1c-1.1,4.1-1.8,6-3.4,9.8c-0.4-0.4-0.6-0.6-1-0.9c0.5-1.2,0.7-1.8,1.1-3C189.8,27.2,189.2,26.8,187.9,25.9 z M191.3,27.2c0.4-1.1,0.5-1.7,0.9-2.9c0.2-0.7,0.4-1.2,0.6-1.8c0,0,0,0,0,0c-0.5,0.4-1,0.7-1.5,1c-1,0.6-1.5,1-2.5,1.6 C189.8,26,190.3,26.4,191.3,27.2z"></path> <path id="XMLID_1359_" class="st2" d="M203.4,31.4c0.4,0.5,0.6,0.7,1,1.2c-2.7,2.1-4.1,3.1-6.9,5.2c1.1,1.4,1.6,2.1,2.5,3.6 c-0.4,0.2-0.5,0.3-0.9,0.6c-1.2-1.9-1.8-2.8-3.2-4.5C198.8,35,200.3,33.8,203.4,31.4z"></path> <path id="XMLID_1356_" class="st2" d="M210.6,45.7c-0.6-1.4-0.9-2-1.5-3.3c0.4-0.2,0.6-0.3,1-0.5c1.6,3.3,2.3,5,3.3,8.5 c-0.4,0.1-0.6,0.2-1,0.3c-0.4-1.4-0.7-2.1-1.2-3.5c-3.2,1.2-4.8,1.8-8,3c-0.2-0.5-0.3-0.7-0.5-1.2C205.9,47.7,207.5,47,210.6,45.7 z"></path> </g> </g> </svg> 