<?xml version="1.0" encoding="UTF-8"?> <svg xmlns="http://www.w3.org/2000/svg" id="Layer_1" x="0" y="0" viewBox="-304 180.3 233 235" xml:space="preserve"><style>.st1{fill:#e30613}.st2{fill:#fff}.st3{fill:#333}</style><g id="XMLID_942_"><path fill="none" d="M-247.6 199.4l-.3-1.1" id="XMLID_943_"></path></g><path class="st1" d="M-181.6 290.8c-22.8-22.8-22.8-59.8 0-82.6s59.8-22.8 82.6 0 22.8 59.8 0 82.6-59.8 22.8-82.6 0z" id="XMLID_1132_"></path><path class="st2" d="M-170.6 279.9c-16.7-16.7-16.7-44 0-60.7s44-16.7 60.7 0 16.7 44 0 60.7-44 16.7-60.7 0z" id="XMLID_1131_"></path><path class="st1" d="M-165.1 274.3c-13.7-13.7-13.7-35.9 0-49.6s35.9-13.7 49.6 0 13.7 35.9 0 49.6c-13.6 13.7-35.9 13.7-49.6 0z" id="XMLID_1133_"></path><g id="XMLID_1212_"><path id="XMLID_9_" class="st3" d="M-287.8 410.1c-2.6 0-5.1-1-7.1-2.9l-1.1-1.1c-1.9-1.9-2.9-4.4-2.9-7.1s1-5.2 2.9-7.1l55-55c-1.5-3-.9-6.6 1.4-9l3.2-3.2 3.8 3.8 20.4-20.4c8.1-8.1 11-19.8 7.6-30.5-7.9-24.3-.1-54.4 18.8-73.4 12.1-12.1 28.3-18.8 45.4-18.8s33.3 6.7 45.4 18.8 18.8 28.3 18.8 45.4-6.7 33.3-18.8 45.4c-18.3 18.3-47.7 26.3-71.5 19.5-10.3-3-21.6 0-29.5 7.9l-21.4 21.4 3.8 3.8-3.2 3.2c-2.4 2.4-6.1 2.9-9 1.4l-55 55c-1.8 1.9-4.3 2.9-7 2.9zm51.5-82.7l-1.8 1.8c-1.9 1.9-2.2 5-.8 7.2l.4.7-56.1 56.1c-1.5 1.5-2.4 3.5-2.4 5.7s.8 4.2 2.4 5.7l1.1 1.1c3.1 3.1 8.2 3.1 11.4 0l56.1-56.1.7.4c2.3 1.5 5.3 1.2 7.2-.8l1.8-1.8-3.8-3.8 22.8-22.8c8.3-8.3 20.4-11.6 31.4-8.4 23.1 6.7 51.7-1.1 69.5-19 11.8-11.8 18.2-27.4 18.2-44s-6.5-32.2-18.2-44-27.4-18.2-44-18.2-32.2 6.5-44 18.2c-18.1 18.1-25.8 48.1-18.3 71.3 3.7 11.4.6 23.9-8 32.5l-21.8 22-3.8-3.8z"></path></g><g id="XMLID_1228_"><path id="XMLID_8_" transform="rotate(-134.999 -267.513 370.058)" class="st3" d="M-268 334.3h1v71.5h-1z"></path></g><g id="XMLID_1229_"><path id="XMLID_7_" transform="rotate(-134.999 -266.027 371.49)" class="st3" d="M-266.5 335.7h1v71.5h-1z"></path></g><g id="XMLID_1230_"><path id="XMLID_6_" transform="rotate(-134.999 -264.752 372.993)" class="st3" d="M-265.3 337.2h1v71.5h-1z"></path></g><g id="XMLID_1231_"><path id="XMLID_5_" transform="rotate(-134.999 -263.224 374.384)" class="st3" d="M-263.7 338.6h1v71.5h-1z"></path></g><g id="XMLID_1232_"><path id="XMLID_4_" transform="rotate(-134.999 -261.738 375.816)" class="st3" d="M-262.2 340.1h1v71.5h-1z"></path></g><g id="XMLID_1233_"><path id="XMLID_3_" transform="rotate(-134.999 -260.321 377.177)" class="st3" d="M-260.8 341.4h1v71.5h-1z"></path></g><g id="XMLID_1234_"><path id="XMLID_2_" transform="rotate(-134.999 -259.047 378.68)" class="st3" d="M-259.5 342.9h1v71.5h-1z"></path></g><g id="XMLID_1311_"><g id="XMLID_1345_"><path class="st2" d="M-126.4 195.4c-.4 1.6-.6 2.3-1.1 3.9 2.1.6 3.2.9 5.3 1.7.6-1.5.9-2.3 1.5-3.8.6.2.9.4 1.5.6-1.5 3.6-2.3 5.3-3.8 8.9-.5-.2-.7-.3-1.2-.5.7-1.7 1-2.5 1.7-4.2-2-.8-3-1.1-5.1-1.7-.5 1.7-.7 2.6-1.2 4.4-.5-.1-.8-.2-1.3-.3.9-3.8 1.4-5.6 2.3-9.4.4.1.7.2 1.4.4z" id="XMLID_1367_"></path><path class="st2" d="M-112.8 209c-1.1.7-1.6 1.1-2.6 1.9-.4-.3-.7-.4-1.1-.7 3.2-2.5 4.9-3.7 8.5-5.9.6.4.9.7 1.5 1.1-1.1 4.1-1.8 6-3.4 9.8-.4-.4-.6-.6-1-.9.5-1.2.7-1.8 1.1-3-1.3-1-1.9-1.5-3-2.3zm3.4 1.3c.4-1.1.5-1.7.9-2.9.2-.7.4-1.2.6-1.8-.5.4-1 .7-1.5 1-1 .6-1.5 1-2.5 1.6.8.9 1.3 1.3 2.5 2.1z" id="XMLID_1361_"></path><path class="st2" d="M-97.4 214.4c.4.5.6.7 1 1.2-2.7 2.1-4.1 3.1-6.9 5.2 1.1 1.4 1.6 2.1 2.5 3.6-.4.2-.5.3-.9.6-1.2-1.9-1.8-2.8-3.2-4.5 3-2.5 4.5-3.7 7.5-6.1z" id="XMLID_1359_"></path><path class="st2" d="M-90.2 228.8c-.6-1.4-.9-2-1.5-3.3l1-.5c1.6 3.3 2.3 5 3.3 8.5-.4.1-.6.2-1 .3-.4-1.4-.7-2.1-1.2-3.5l-8 3c-.2-.5-.3-.7-.5-1.2 3.2-1.4 4.8-2 7.9-3.3z" id="XMLID_1356_"></path></g></g><g id="XMLID_296_"><g id="XMLID_342_"><path class="st2" d="M-184.3 266.4c.4.4.9 1 1.4 1.8.7 1 1 1.8.9 2.5 0 .7-.4 1.3-1 1.7-.7.5-1.4.6-2.1.5-1-.2-1.9-.9-2.6-1.9-.2-.3-.4-.6-.5-.9-1.3.7-1.9 1.1-3.2 1.8-.3-.4-.4-.7-.7-1.1 3.2-1.6 4.8-2.5 7.8-4.4zm-3.1 3.3c.1.3.3.6.5.9.9 1.2 2 1.6 3.1.9 1-.7.9-1.7.2-2.8-.3-.4-.6-.7-.7-.9-1.3.8-1.8 1.1-3.1 1.9z" id="XMLID_606_"></path><path class="st2" d="M-176.6 282.3c-2.4 2.1-5.4 1.5-7.2-.4-1.9-2-1.5-4.5.8-6.1 2.4-1.7 5-1.4 6.8.4 1.8 1.8 1.8 4.3-.4 6.1zm-5.5-5.6c-1.6 1.1-2.3 3-.8 4.6s3.7 1.4 5.3 0c1.4-1.2 2.1-3.1.6-4.6-1.4-1.5-3.4-1.2-5.1 0z" id="XMLID_597_"></path><path class="st2" d="M-170.8 281.4c.4.3.6.5 1 .8-2.3 2.3-3.5 3.5-6 5.6 1.4 1.2 2.1 1.8 3.6 2.9l-.7.7c-1.9-1.5-2.9-2.3-4.7-3.8 3-2.3 4.2-3.6 6.8-6.2z" id="XMLID_595_"></path><path class="st2" d="M-162.8 287.4c-2.3 2.8-3.6 4.2-6.2 6.9-.5-.3-.7-.5-1.2-.8 2.7-2.6 3.9-4 6.3-6.8.5.3.8.4 1.1.7z" id="XMLID_593_"></path><path class="st2" d="M-165.4 295.8c4.2-.9 6.2-1.5 10.1-2.9-1.9-1-2.9-1.5-4.7-2.6.2-.3.4-.5.6-.8 2.4 1.4 3.7 2.1 6.3 3.3-.2.2-.2.4-.4.6-3.8 1.5-5.8 2.1-10 3.1 2.2 1.3 3.3 1.9 5.6 3-.3.3-.4.5-.6.8-3-1.5-4.5-2.3-7.3-4.1 0-.1.2-.2.4-.4z" id="XMLID_543_"></path><path class="st2" d="M-147.3 300.5c-1.7-.6-2.5-.9-4.2-1.6-.8 1.1-1.1 1.7-1.9 2.8 1.9.8 2.8 1.2 4.7 1.9-.2.3-.3.5-.6.9-2.5-.9-3.8-1.4-6.2-2.5 2.3-3.1 3.3-4.6 5.3-7.8 2.2.9 3.3 1.3 5.5 2.1-.2.4-.3.5-.5.9-1.7-.6-2.6-.9-4.3-1.6-.6 1-.9 1.5-1.6 2.5 1.6.7 2.4 1 4.1 1.6.1.3-.1.5-.3.8z" id="XMLID_357_"></path><path class="st2" d="M-139.4 297.9c-1.7 3.4-2.6 5.1-4.6 8.4l-1.5-.5c2-3.3 3-4.9 4.7-8.3.7.1.9.2 1.4.4z" id="XMLID_343_"></path></g></g></svg> 