<?xml version="1.0" encoding="UTF-8"?>
<svg xmlns="http://www.w3.org/2000/svg" xmlns:xlink="http://www.w3.org/1999/xlink" width="499pt" height="439pt" viewBox="0 0 499 439" version="1.1">
<g id="surface1">
<path style=" stroke:none;fill-rule:nonzero;fill:rgb(100%,100%,100%);fill-opacity:1;" d="M 249.542969 0.292969 C 255.074219 0.292969 260.609375 2.410156 264.832031 6.636719 C 266.214844 8.019531 267.367188 9.550781 268.296875 11.171875 L 279.523438 30.464844 L 279.578125 30.464844 L 495.421875 405.179688 C 495.464844 405.25 495.496094 405.320312 495.535156 405.394531 C 496.632812 407.160156 497.492188 409.113281 498.058594 411.226562 C 501.148438 422.777344 494.304688 434.648438 482.769531 437.742188 C 480.867188 438.257812 478.953125 438.488281 477.074219 438.480469 L 21.914062 438.480469 C 9.972656 438.480469 0.296875 428.789062 0.296875 416.828125 C 0.296875 412.917969 1.335938 409.246094 3.152344 406.078125 C 3.167969 406.054688 3.179688 406.03125 3.191406 406.003906 L 227.332031 16.265625 C 230.179688 11.351562 231.496094 9.402344 234.257812 6.636719 C 238.480469 2.410156 244.011719 0.292969 249.542969 0.292969 Z M 249.542969 0.292969 "/>
<path style=" stroke:none;fill-rule:nonzero;fill:rgb(75.686275%,7.058824%,10.980392%);fill-opacity:1;" d="M 249.542969 5.71875 C 254.789062 5.679688 260.554688 8.367188 263.375 13.394531 L 491.144531 408.648438 C 492.460938 411.339844 493.011719 413.679688 493.027344 416.355469 C 493.027344 421.148438 490.910156 425.695312 487.25 428.777344 C 484.023438 431.28125 480.964844 432.582031 476.851562 432.582031 L 21.8125 432.582031 C 19.035156 432.609375 16.253906 431.941406 13.726562 430.273438 C 8.976562 427.398438 6.066406 422.246094 6.0625 416.683594 C 6.195312 413.808594 6.902344 410.78125 8.179688 408.648438 L 235.820312 13.328125 C 235.839844 13.292969 235.863281 13.257812 235.886719 13.226562 C 235.910156 13.191406 235.929688 13.15625 235.953125 13.117188 C 236.761719 11.824219 237.777344 10.679688 238.929688 9.699219 C 241.574219 7.40625 244.882812 6.03125 248.375 5.78125 C 248.765625 5.746094 249.15625 5.722656 249.542969 5.71875 Z M 476.851562 432.582031 L 477.972656 432.582031 L 476.828125 432.582031 Z M 249.78125 84.058594 L 76.203125 385.378906 L 423.601562 385.378906 Z M 249.78125 84.058594 "/>
<path style=" stroke:none;fill-rule:nonzero;fill:rgb(0%,0%,0%);fill-opacity:1;" d="M 249.542969 0 C 255.152344 0 260.761719 2.144531 265.035156 6.429688 C 266.441406 7.832031 267.609375 9.382812 268.550781 11.027344 L 279.695312 30.171875 L 279.746094 30.171875 L 495.675781 405.03125 C 495.722656 405.117188 495.757812 405.191406 495.792969 405.253906 C 496.902344 407.039062 497.769531 409.015625 498.34375 411.148438 C 501.472656 422.855469 494.535156 434.890625 482.847656 438.027344 C 480.917969 438.546875 478.976562 438.785156 477.074219 438.777344 L 21.914062 438.777344 C 9.816406 438.777344 0 428.945312 0 416.828125 C 0 412.863281 1.058594 409.144531 2.898438 405.933594 C 2.90625 405.917969 2.917969 405.894531 2.933594 405.859375 L 227.074219 16.121094 C 229.925781 11.203125 231.269531 9.214844 234.046875 6.429688 C 238.324219 2.144531 243.933594 0 249.539062 0 Z M 249.542969 0.292969 C 244.011719 0.292969 238.480469 2.410156 234.257812 6.636719 C 231.496094 9.402344 230.179688 11.351562 227.332031 16.265625 L 3.191406 406.003906 C 3.179688 406.03125 3.167969 406.054688 3.152344 406.078125 C 1.335938 409.246094 0.296875 412.917969 0.296875 416.828125 C 0.296875 428.789062 9.972656 438.480469 21.914062 438.480469 L 477.074219 438.480469 C 478.953125 438.488281 480.867188 438.257812 482.769531 437.742188 C 494.304688 434.648438 501.148438 422.777344 498.058594 411.226562 C 497.492188 409.113281 496.632812 407.160156 495.535156 405.394531 C 495.496094 405.320312 495.464844 405.25 495.421875 405.179688 L 279.578125 30.464844 L 279.523438 30.464844 L 268.296875 11.171875 C 267.367188 9.550781 266.214844 8.019531 264.832031 6.636719 C 260.609375 2.410156 255.078125 0.292969 249.542969 0.292969 Z M 249.542969 0.292969 "/>
<path style=" stroke:none;fill-rule:nonzero;fill:rgb(0%,0%,0%);fill-opacity:1;" d="M 230.058594 318.996094 L 223.328125 307.832031 C 218.296875 310.277344 212.226562 308.160156 209.785156 303.105469 C 209.773438 303.09375 209.761719 303.085938 209.761719 303.0625 L 205.714844 294.617188 L 239.195312 303.753906 L 240.308594 299.648438 C 259.855469 307.707031 280.773438 311.859375 301.914062 311.890625 C 305.777344 324.207031 315.265625 333.949219 327.460938 338.140625 L 338.972656 342.101562 C 345.246094 344.238281 350.710938 348.28125 354.632812 353.628906 L 363.132812 365.238281 C 367.121094 370.714844 372.734375 374.789062 379.164062 376.90625 L 377.132812 364.648438 C 373.769531 365.070312 370.496094 363.363281 368.925781 360.355469 L 355.835938 335.25 L 347.664062 329.480469 C 337.6875 324.289062 332.550781 312.917969 335.246094 301.992188 L 336.324219 297.574219 C 337.1875 294.082031 335.652344 290.441406 332.550781 288.632812 L 322.492188 282.722656 C 320.832031 281.753906 319.074219 280.984375 317.234375 280.421875 L 262.253906 263.757812 C 251.75 260.585938 243.558594 252.3125 240.488281 241.746094 L 233.089844 216.402344 C 238.46875 216.402344 243.5 213.726562 246.527344 209.289062 L 230.058594 208.277344 L 250.695312 196.460938 C 256.683594 193.03125 260.523438 186.796875 260.898438 179.898438 C 260.9375 179.113281 260.332031 178.453125 259.546875 178.40625 C 258.875 178.375 258.261719 178.820312 258.105469 179.480469 L 257.84375 180.457031 C 256.683594 184.988281 253.636719 188.789062 249.480469 190.90625 L 248.308594 191.507812 C 247.707031 191.816406 246.980469 191.566406 246.671875 190.972656 C 246.539062 190.714844 246.5 190.417969 246.570312 190.132812 L 248.488281 182.140625 C 248.640625 181.492188 248.238281 180.832031 247.582031 180.675781 C 247.035156 180.539062 246.46875 180.808594 246.21875 181.308594 L 239.605469 194.59375 C 239.023438 195.765625 238.082031 196.710938 236.910156 197.300781 L 234.125 198.726562 C 233.523438 199.03125 232.785156 198.792969 232.476562 198.191406 C 232.351562 197.941406 232.304688 197.644531 232.390625 197.359375 L 235.296875 185.191406 C 235.457031 184.53125 235.058594 183.871094 234.398438 183.722656 C 233.855469 183.585938 233.273438 183.851562 233.023438 184.359375 L 225.808594 198.871094 C 224.070312 202.367188 220.964844 204.996094 217.238281 206.132812 L 193.558594 213.351562 L 193.558594 220.453125 L 214.855469 226.566406 L 221.148438 274.4375 C 221.773438 279.308594 223.863281 283.847656 227.136719 287.515625 L 196.054688 282.460938 C 194.40625 282.210938 192.839844 283.328125 192.566406 284.988281 C 192.464844 285.671875 192.589844 286.34375 192.910156 286.957031 L 204.171875 307.46875 C 207.355469 313.25 213.160156 317.140625 219.726562 317.871094 "/>
</g>
</svg>
