<?xml version="1.0" encoding="UTF-8"?>
<svg xmlns="http://www.w3.org/2000/svg" xmlns:xlink="http://www.w3.org/1999/xlink" width="499pt" height="439pt" viewBox="0 0 499 439" version="1.1">
<g id="surface1">
<path style=" stroke:none;fill-rule:nonzero;fill:rgb(100%,100%,100%);fill-opacity:1;" d="M 249.542969 0.296875 C 255.074219 0.296875 260.609375 2.410156 264.832031 6.636719 C 266.214844 8.019531 267.367188 9.550781 268.296875 11.175781 L 279.523438 30.464844 L 279.578125 30.464844 L 495.421875 405.179688 C 495.460938 405.25 495.496094 405.320312 495.535156 405.394531 C 496.628906 407.160156 497.488281 409.113281 498.0625 411.226562 C 501.148438 422.777344 494.304688 434.648438 482.769531 437.742188 C 480.867188 438.257812 478.953125 438.488281 477.078125 438.480469 L 21.910156 438.480469 C 9.972656 438.480469 0.296875 428.789062 0.296875 416.828125 C 0.296875 412.921875 1.335938 409.246094 3.15625 406.078125 C 3.167969 406.050781 3.183594 406.03125 3.191406 406.003906 L 227.335938 16.265625 C 230.179688 11.351562 231.496094 9.402344 234.257812 6.636719 C 238.480469 2.410156 244.015625 0.296875 249.542969 0.296875 Z M 249.542969 0.296875 "/>
<path style=" stroke:none;fill-rule:nonzero;fill:rgb(75.686275%,7.058824%,10.980392%);fill-opacity:1;" d="M 249.542969 5.71875 C 254.789062 5.683594 260.550781 8.367188 263.375 13.390625 L 491.144531 408.648438 C 492.460938 411.339844 493.011719 413.679688 493.027344 416.355469 C 493.027344 421.148438 490.910156 425.691406 487.25 428.78125 C 484.019531 431.28125 480.964844 432.582031 476.851562 432.582031 L 21.8125 432.582031 C 19.035156 432.609375 16.253906 431.941406 13.726562 430.273438 C 8.976562 427.398438 6.066406 422.246094 6.058594 416.683594 C 6.195312 413.808594 6.902344 410.78125 8.179688 408.648438 L 235.820312 13.328125 C 235.839844 13.292969 235.863281 13.257812 235.886719 13.222656 C 235.910156 13.191406 235.933594 13.160156 235.957031 13.117188 C 236.757812 11.824219 237.773438 10.679688 238.933594 9.703125 C 241.574219 7.40625 244.886719 6.03125 248.375 5.785156 C 248.765625 5.742188 249.15625 5.722656 249.542969 5.71875 Z M 476.851562 432.582031 L 477.972656 432.582031 L 476.828125 432.582031 Z M 249.777344 84.0625 L 76.203125 385.378906 L 423.601562 385.378906 Z M 249.777344 84.0625 "/>
<path style=" stroke:none;fill-rule:nonzero;fill:rgb(0%,0%,0%);fill-opacity:1;" d="M 249.542969 0 C 255.15625 0 260.761719 2.140625 265.039062 6.433594 C 266.441406 7.832031 267.609375 9.386719 268.550781 11.027344 L 279.695312 30.167969 L 279.746094 30.167969 L 495.675781 405.03125 C 495.726562 405.117188 495.761719 405.191406 495.792969 405.253906 C 496.902344 407.039062 497.769531 409.015625 498.34375 411.152344 C 501.472656 422.855469 494.535156 434.890625 482.847656 438.027344 C 480.917969 438.546875 478.980469 438.78125 477.078125 438.777344 L 21.910156 438.777344 C 9.816406 438.777344 0 428.949219 0 416.828125 C 0 412.867188 1.058594 409.148438 2.898438 405.933594 C 2.910156 405.921875 2.917969 405.894531 2.933594 405.863281 L 227.074219 16.117188 C 229.925781 11.203125 231.265625 9.214844 234.046875 6.433594 C 238.324219 2.140625 243.933594 0 249.539062 0 Z M 249.542969 0.296875 C 244.015625 0.296875 238.480469 2.410156 234.257812 6.636719 C 231.496094 9.402344 230.179688 11.351562 227.335938 16.265625 L 3.195312 406.003906 C 3.183594 406.03125 3.167969 406.050781 3.15625 406.078125 C 1.335938 409.246094 0.296875 412.921875 0.296875 416.828125 C 0.296875 428.789062 9.972656 438.480469 21.910156 438.480469 L 477.078125 438.480469 C 478.953125 438.488281 480.867188 438.257812 482.769531 437.742188 C 494.304688 434.648438 501.148438 422.777344 498.0625 411.226562 C 497.492188 409.113281 496.628906 407.160156 495.535156 405.394531 C 495.496094 405.320312 495.460938 405.25 495.421875 405.179688 L 279.578125 30.464844 L 279.523438 30.464844 L 268.296875 11.175781 C 267.367188 9.550781 266.214844 8.019531 264.832031 6.636719 C 260.609375 2.410156 255.078125 0.296875 249.542969 0.296875 Z M 249.542969 0.296875 "/>
<path style=" stroke:none;fill-rule:evenodd;fill:rgb(0%,0%,0%);fill-opacity:1;" d="M 344.402344 284.398438 C 343.4375 281.957031 325.84375 264.476562 315.699219 255.203125 L 333.34375 246.164062 L 310.113281 246.125 L 303.183594 253.519531 L 297.089844 247.453125 C 294.691406 249.761719 294.710938 255.21875 297 261.09375 L 266.691406 265.261719 L 167.6875 265.199219 C 165.601562 266.339844 160.210938 265.324219 157.75 275.886719 L 157.699219 316.316406 L 154.691406 320.082031 C 156.324219 324.917969 157.847656 329.894531 159.933594 334.160156 C 162.0625 330.367188 163.617188 325.273438 163.9375 318.335938 L 164 275.121094 C 165.957031 272.148438 168.261719 270.304688 171.65625 271.894531 C 170.242188 274.296875 168.992188 276.78125 169.125 280.015625 L 169.078125 372.035156 L 180.390625 372.082031 C 174.886719 358.210938 178.34375 344.390625 189.234375 331.605469 L 206.558594 372.109375 L 217.308594 372.109375 C 213.628906 366.101562 209.351562 361.0625 208.546875 350.445312 C 208.71875 339.855469 210.121094 330.109375 216.753906 323.953125 L 248.855469 329.570312 L 245.484375 372.066406 L 256.394531 372.097656 C 252.382812 359.5625 256.730469 343.898438 264.402344 334.925781 L 269.269531 372.109375 L 280.578125 372.082031 C 265.230469 332.511719 288.605469 312.816406 305.792969 292.296875 L 336.355469 292.265625 C 340.277344 291.300781 342.511719 288.074219 344.402344 284.398438 Z M 344.402344 284.398438 "/>
</g>
</svg>
