<svg version="1.1" id="Layer_1" xmlns="http://www.w3.org/2000/svg" x="0" y="0" viewBox="0 0 161.1 246.4" xml:space="preserve"><style>.st1{fill:#fff}.st2{fill:#333}</style><g id="Parken_Auto"><g id="XMLID_1466_"><path id="XMLID_3413_" d="M145.2 157.6H16c-6.9 0-12.5-5.6-12.5-12.5V15.9C3.5 9 9.1 3.4 16 3.4h129.1c6.9 0 12.5 5.6 12.5 12.5V145c.1 7-5.5 12.6-12.4 12.6z" fill="#15488a"/><path id="XMLID_3414_" class="st1" d="M142 158.8H19.2c-9.3 0-16.9-7.6-16.9-16.9V19.1c0-9.3 7.6-16.9 16.9-16.9h122.9c9.3 0 16.9 7.6 16.9 16.9V142c-.1 9.2-7.7 16.8-17 16.8zM19.2 4.7c-7.9 0-14.4 6.4-14.4 14.4V142c0 7.9 6.4 14.4 14.4 14.4h122.9c7.9 0 14.4-6.4 14.4-14.4V19.1c0-7.9-6.4-14.4-14.4-14.4H19.2z"/></g><g id="XMLID_1467_"><g id="XMLID_1468_"><path id="XMLID_1469_" class="st1" d="M49.5 31.6c6.3-1 14.5-1.9 25-1.9 12.9 0 22.3 3 28.3 8.4 5.5 4.8 8.8 12.1 8.8 21.1 0 9.1-2.7 16.3-7.8 21.6-6.9 7.3-18.1 11.1-30.9 11.1-3.9 0-7.5-.1-10.5-.9v40.5h-13V31.6h.1zm13 48.7c2.8.7 6.4 1 10.8 1 15.7 0 25.3-7.6 25.3-21.6 0-13.3-9.4-19.8-23.8-19.8-5.7 0-10 .4-12.3 1v39.4z"/></g></g><path id="XMLID_3409_" class="st1" d="M130.5 243H30.7c-6.3 0-11.3-5.1-11.3-11.3v-50.6c0-6.3 5.1-11.3 11.3-11.3h99.8c6.3 0 11.3 5.1 11.3 11.3v50.6c0 6.2-5 11.3-11.3 11.3z"/><path id="XMLID_3410_" class="st2" d="M127.7 244.2H33.5c-8.5 0-15.4-6.9-15.4-15.4v-45c0-8.5 6.9-15.4 15.4-15.4h94.1c8.5 0 15.4 6.9 15.4 15.4v45c.1 8.5-6.8 15.4-15.3 15.4zm-94.2-73.3c-7.1 0-12.9 5.8-12.9 12.9v45c0 7.1 5.8 12.9 12.9 12.9h94.1c7.1 0 12.9-5.8 12.9-12.9v-45c0-7.1-5.8-12.9-12.9-12.9H33.5z"/><g id="XMLID_1472_"><path id="XMLID_1473_" class="st2" d="M31 203.8v8.4c0 .2 0 .3.1.5l.2.9c0 .2.1.3.2.5l3.3 6.7c.7 1.4 2.1 2.3 3.7 2.3H47.8c.9 4.7 5.1 8.3 10.1 8.3s9.2-3.6 10.1-8.3H95.3c.9 4.7 5.1 8.3 10.1 8.3s9.2-3.6 10.1-8.3h5.5c2.4 0 4.8-1 6.5-2.7s2.7-4 2.7-6.5v-10.4c0-2.9-1.9-5.3-4.7-6l-12.6-3.2-6-9c-1.5-2.3-4.1-3.7-6.9-3.7H69.4c-2.8 0-5.3 1.4-6.9 3.7l-5.9 8.9-20.5 3.4c-2.9.6-5.1 3.2-5.1 6.2zM99.2 221c0-3.4 2.8-6.2 6.2-6.2s6.2 2.8 6.2 6.2-2.8 6.2-6.2 6.2-6.2-2.8-6.2-6.2zm-35.6-19.7c-.4-.7-.3-1.5 0-2.1l5.1-8.3c.4-.6 1-1 1.8-1h28.4c.8 0 1.5.4 1.8 1.1l4.4 8.3c.3.6.3 1.4 0 2-.4.6-1 1-1.8 1H65.4c-.7.1-1.4-.3-1.8-1zM51.7 221c0-3.4 2.8-6.2 6.2-6.2 3.4 0 6.2 2.8 6.2 6.2s-2.8 6.2-6.2 6.2c-3.5 0-6.2-2.8-6.2-6.2z"/></g></g></svg>