<svg version="1.1" id="Layer_1" xmlns="http://www.w3.org/2000/svg" x="0" y="0" viewBox="0 0 144 250" xml:space="preserve"><style>.st1{fill:#fff}</style><g id="Parken_mit_Parkschein"><g id="XMLID_1458_"><path id="XMLID_3451_" d="M128.1 140.8H15.9c-6.9 0-12.5-5.6-12.5-12.5V16C3.4 9.1 9 3.5 15.9 3.5h112.2c6.9 0 12.5 5.6 12.5 12.5v112.2c0 7-5.6 12.6-12.5 12.6z" fill="#15488a"/><path id="XMLID_3452_" class="st1" d="M126.7 141.9H17.3c-8.3 0-15-6.7-15-15V17.4c0-8.3 6.7-15 15-15h109.4c8.3 0 15 6.7 15 15v109.4c0 8.3-6.7 15.1-15 15.1zM17.3 4.6c-7.1 0-12.8 5.7-12.8 12.8v109.4c0 7.1 5.7 12.8 12.8 12.8h109.4c7.1 0 12.8-5.7 12.8-12.8V17.4c0-7.1-5.7-12.8-12.8-12.8H17.3z"/></g><g id="XMLID_1459_"><g id="XMLID_1460_"><path id="XMLID_1461_" class="st1" d="M44.3 28.6c5.6-.9 12.9-1.7 22.3-1.7 11.5 0 19.9 2.7 25.2 7.5 4.9 4.3 7.9 10.8 7.9 18.8 0 8.1-2.4 14.5-6.9 19.2-6.1 6.5-16.1 9.9-27.5 9.9-3.5 0-6.7-.1-9.3-.8v36H44.4l-.1-88.9zm11.6 43.3c2.5.7 5.7.9 9.6.9 14 0 22.6-6.8 22.6-19.2 0-11.9-8.4-17.6-21.2-17.6-5.1 0-8.9.4-10.9.9v35h-.1z"/></g></g><path id="XMLID_1464_" class="st1" d="M115.2 246.5H28.8c-6.3 0-11.3-5.1-11.3-11.3v-74.5c0-6.3 5.1-11.3 11.3-11.3h86.4c6.3 0 11.3 5.1 11.3 11.3v74.5c0 6.2-5.1 11.3-11.3 11.3z"/><path id="XMLID_3448_" d="M113.9 247.6H30.1c-7.6 0-13.7-6.2-13.7-13.7v-72c0-7.6 6.2-13.7 13.7-13.7h83.8c7.6 0 13.7 6.2 13.7 13.7v72c0 7.5-6.1 13.7-13.7 13.7zm-83.8-97.2c-6.3 0-11.5 5.2-11.5 11.5v72c0 6.3 5.2 11.5 11.5 11.5h83.8c6.3 0 11.5-5.2 11.5-11.5v-72c0-6.3-5.2-11.5-11.5-11.5H30.1z" fill="#333"/><g id="XMLID_1465_"><path id="XMLID_3417_" d="M56.6 180.7c0-1.1 0-1.9-.1-2.8h1.6l.1 1.6h.1c.6-1 1.5-1.9 3.2-1.9 1.4 0 2.4.8 2.9 2 .3-.6.7-1 1.1-1.3.6-.5 1.3-.7 2.2-.7 1.3 0 3.3.9 3.3 4.4v6h-1.8v-5.8c0-2-.7-3.1-2.2-3.1-1.1 0-1.9.8-2.2 1.7-.1.3-.1.6-.1.9v6.3H63v-6.1c0-1.6-.7-2.8-2.1-2.8-1.2 0-2 .9-2.3 1.8-.1.3-.1.6-.1.9v6.1h-1.8l-.1-7.2z"/><path id="XMLID_3419_" d="M76.2 175.1c0 .6-.4 1.1-1.2 1.1-.7 0-1.1-.5-1.1-1.1 0-.7.5-1.2 1.2-1.2.7.1 1.1.6 1.1 1.2zm-2.1 13.1V178h1.8v10.2h-1.8z"/><path id="XMLID_3422_" d="M81.3 175.1v2.9h2.6v1.4h-2.6v5.5c0 1.3.4 2 1.4 2 .5 0 .8-.1 1.1-.1l.1 1.4c-.4.1-.9.3-1.6.3-.9 0-1.6-.3-2-.8-.5-.5-.7-1.5-.7-2.6v-5.5H78V178h1.6v-2.4l1.7-.5z"/><path id="XMLID_3424_" d="M26.6 199.4c.9-.1 2-.3 3.5-.3 1.8 0 3.1.4 4 1.2.8.7 1.2 1.7 1.2 3s-.4 2.3-1.1 3c-1 1-2.5 1.6-4.3 1.6-.5 0-1.1 0-1.5-.1v5.7h-1.8v-14.1zm1.8 6.8c.4.1.9.1 1.5.1 2.2 0 3.6-1.1 3.6-3s-1.3-2.8-3.3-2.8c-.8 0-1.4.1-1.7.1l-.1 5.6z"/><path id="XMLID_3427_" d="M42.8 213.4l-.1-1.3h-.1c-.6.8-1.7 1.5-3.1 1.5-2.1 0-3.1-1.5-3.1-2.9 0-2.5 2.2-3.8 6.1-3.8v-.2c0-.8-.2-2.4-2.3-2.4-.9 0-1.9.3-2.6.8l-.4-1.2c.8-.5 2.1-.9 3.3-.9 3.1 0 3.9 2.1 3.9 4.2v3.8c0 .9 0 1.7.2 2.4h-1.8zm-.3-5.2c-2 0-4.3.3-4.3 2.3 0 1.2.8 1.8 1.7 1.8 1.3 0 2.2-.8 2.5-1.7.1-.2.1-.4.1-.6v-1.8z"/><path id="XMLID_3430_" d="M47.3 206.4c0-1.2 0-2.2-.1-3.2h1.6l.1 2h.1c.5-1.4 1.6-2.2 2.8-2.2.2 0 .4 0 .5.1v1.7c-.2 0-.4-.1-.6-.1-1.3 0-2.2 1-2.5 2.4 0 .3-.1.5-.1.9v5.4h-1.8v-7z"/><path id="XMLID_3432_" d="M56 207.9c.3-.4.7-.8.9-1.2l3-3.5h2.2l-3.9 4.2 4.5 6h-2.2l-3.5-4.9-.9 1.1v3.8h-1.8v-14.9h1.8l-.1 9.4z"/><path id="XMLID_3434_" d="M63.8 211.5c.5.4 1.5.7 2.4.7 1.3 0 2-.7 2-1.5 0-.9-.5-1.4-1.9-1.9-1.8-.7-2.7-1.7-2.7-2.9 0-1.6 1.3-3 3.5-3 1 0 1.9.3 2.5.6l-.5 1.3c-.4-.3-1.1-.6-2.1-.6-1.1 0-1.7.6-1.7 1.4 0 .8.6 1.2 1.9 1.7 1.8.7 2.7 1.6 2.7 3.1 0 1.8-1.4 3-3.8 3-1.1 0-2.1-.3-2.9-.7l.6-1.2z"/><path id="XMLID_3436_" d="M79.6 213c-.5.3-1.6.6-2.9.6-3.1 0-5.1-2.1-5.1-5.2s2.1-5.4 5.5-5.4c1.1 0 2.1.3 2.6.5l-.4 1.4c-.4-.3-1.1-.5-2.1-.5-2.3 0-3.6 1.7-3.6 3.8 0 2.4 1.5 3.8 3.5 3.8 1.1 0 1.7-.3 2.3-.5l.2 1.5z"/><path id="XMLID_3438_" d="M81.8 198.4h1.8v6.3c.3-.5.8-1 1.3-1.3s1.2-.5 1.9-.5c1.4 0 3.6.8 3.6 4.4v6.1h-1.9v-5.8c0-1.6-.6-3-2.4-3-1.2 0-2.1.8-2.5 1.8-.1.3-.1.5-.1.9v6.1h-1.8l.1-15z"/><path id="XMLID_3440_" d="M94.5 208.6c0 2.5 1.6 3.5 3.5 3.5 1.3 0 2.1-.2 2.8-.5l.3 1.3c-.7.3-1.8.6-3.4.6-3.1 0-5-2.1-5-5.1 0-3.1 1.8-5.5 4.8-5.5 3.3 0 4.2 2.9 4.2 4.8 0 .4 0 .7-.1.9h-7.1zm5.4-1.3c0-1.2-.5-3-2.6-3-1.9 0-2.7 1.7-2.8 3h5.4z"/><path id="XMLID_3443_" d="M106 200.3c0 .6-.4 1.1-1.2 1.1-.7 0-1.1-.5-1.1-1.1 0-.7.5-1.2 1.2-1.2.7.1 1.1.6 1.1 1.2zm-2 13.1v-10.2h1.8v10.2H104z"/><path id="XMLID_3446_" d="M108.9 205.9c0-1.1 0-1.9-.1-2.8h1.6l.1 1.7c.5-1 1.7-1.9 3.4-1.9 1.4 0 3.6.8 3.6 4.3v6.1h-1.9v-5.9c0-1.6-.6-3-2.4-3-1.2 0-2.2.9-2.5 1.9-.1.2-.1.5-.1.9v6.1h-1.8l.1-7.4z"/></g></g></svg>