<?xml version="1.0" encoding="UTF-8"?>
<svg xmlns="http://www.w3.org/2000/svg" xmlns:xlink="http://www.w3.org/1999/xlink" width="499pt" height="439pt" viewBox="0 0 499 439" version="1.1">
<g id="surface1">
<path style=" stroke:none;fill-rule:nonzero;fill:rgb(100%,100%,100%);fill-opacity:1;" d="M 249.542969 0.292969 C 255.074219 0.292969 260.609375 2.410156 264.832031 6.636719 C 266.214844 8.019531 267.367188 9.550781 268.296875 11.171875 L 279.523438 30.464844 L 279.578125 30.464844 L 495.421875 405.179688 C 495.464844 405.25 495.496094 405.320312 495.535156 405.394531 C 496.632812 407.160156 497.492188 409.113281 498.058594 411.226562 C 501.148438 422.777344 494.304688 434.648438 482.769531 437.742188 C 480.867188 438.257812 478.953125 438.488281 477.074219 438.480469 L 21.914062 438.480469 C 9.972656 438.480469 0.296875 428.789062 0.296875 416.828125 C 0.296875 412.917969 1.335938 409.246094 3.152344 406.078125 C 3.167969 406.054688 3.179688 406.03125 3.191406 406.003906 L 227.332031 16.265625 C 230.179688 11.351562 231.496094 9.402344 234.257812 6.636719 C 238.480469 2.410156 244.011719 0.292969 249.542969 0.292969 Z M 249.542969 0.292969 "/>
<path style=" stroke:none;fill-rule:nonzero;fill:rgb(0%,0%,0%);fill-opacity:1;" d="M 145.703125 282.390625 C 144.476562 282.390625 143.492188 283.371094 143.492188 284.601562 L 143.492188 289.019531 C 143.492188 290.082031 144.226562 290.980469 145.25 291.195312 C 145.355469 291.214844 145.457031 291.242188 145.546875 291.277344 C 146.695312 291.6875 147.300781 292.953125 146.890625 294.101562 L 135.425781 326.246094 C 134.910156 327.691406 134.660156 329.183594 134.660156 330.710938 L 134.660156 353.199219 C 134.660156 355.648438 136.632812 357.632812 139.078125 357.632812 L 165.585938 357.632812 L 165.585938 357.628906 C 165.585938 346.625 174.492188 337.703125 185.464844 337.703125 C 196.457031 337.703125 205.347656 346.625 205.347656 357.628906 L 287.097656 357.628906 C 287.097656 346.625 295.992188 337.703125 306.980469 337.703125 C 317.96875 337.703125 326.871094 346.625 326.871094 357.628906 L 355.589844 357.628906 C 360.46875 357.628906 364.425781 353.664062 364.425781 348.777344 L 364.425781 324.070312 C 364.425781 322.851562 364.257812 321.621094 363.917969 320.421875 L 354.894531 288.804688 C 353.816406 285.007812 350.347656 282.390625 346.402344 282.390625 Z M 154.667969 291.242188 L 172.433594 291.242188 C 174.265625 291.242188 175.753906 292.726562 175.753906 294.558594 L 175.753906 318.898438 C 175.753906 320.734375 174.265625 322.214844 172.433594 322.214844 L 145.988281 322.214844 C 144.160156 322.214844 142.671875 320.734375 142.671875 318.898438 C 142.671875 318.523438 142.734375 318.136719 142.863281 317.785156 L 151.542969 293.441406 C 152.019531 292.121094 153.269531 291.242188 154.667969 291.242188 Z M 184.808594 291.242188 L 201.082031 291.242188 C 202.5625 291.242188 203.871094 292.21875 204.269531 293.648438 L 211.21875 317.988281 C 211.71875 319.746094 210.707031 321.589844 208.941406 322.089844 C 208.644531 322.179688 208.339844 322.214844 208.035156 322.214844 L 184.808594 322.214844 C 182.976562 322.214844 181.5 320.734375 181.5 318.898438 L 181.5 294.558594 C 181.5 292.726562 182.976562 291.242188 184.808594 291.242188 Z M 213.730469 291.242188 L 236 291.242188 C 237.480469 291.242188 238.773438 292.222656 239.183594 293.648438 L 246.121094 317.988281 C 246.632812 319.746094 245.613281 321.589844 243.847656 322.089844 C 243.550781 322.179688 243.242188 322.214844 242.9375 322.214844 L 220.667969 322.214844 C 219.191406 322.214844 217.890625 321.25 217.484375 319.8125 L 210.535156 295.46875 C 210.035156 293.714844 211.058594 291.871094 212.808594 291.367188 C 213.117188 291.289062 213.425781 291.242188 213.730469 291.242188 Z M 248.632812 291.242188 L 270.894531 291.242188 C 272.382812 291.242188 273.691406 292.222656 274.089844 293.648438 L 281.027344 317.988281 C 281.539062 319.746094 280.515625 321.589844 278.753906 322.089844 C 278.457031 322.179688 278.160156 322.214844 277.84375 322.214844 L 255.574219 322.214844 C 254.09375 322.214844 252.796875 321.25 252.390625 319.8125 L 245.449219 295.46875 C 244.9375 293.714844 245.960938 291.871094 247.726562 291.367188 C 248.023438 291.289062 248.328125 291.242188 248.632812 291.242188 Z M 283.539062 291.242188 L 305.8125 291.242188 C 307.289062 291.242188 308.582031 292.222656 308.996094 293.648438 L 315.929688 317.988281 C 316.441406 319.746094 315.417969 321.589844 313.65625 322.089844 C 313.375 322.179688 313.066406 322.214844 312.746094 322.214844 L 290.476562 322.214844 C 289 322.214844 287.703125 321.25 287.292969 319.8125 L 280.34375 295.46875 C 279.84375 293.714844 280.867188 291.871094 282.632812 291.367188 C 282.925781 291.289062 283.230469 291.242188 283.539062 291.242188 Z M 318.445312 291.242188 L 340.714844 291.242188 C 342.191406 291.242188 343.5 292.222656 343.898438 293.648438 L 350.847656 317.988281 C 351.347656 319.746094 350.324219 321.589844 348.574219 322.089844 C 348.28125 322.179688 347.972656 322.214844 347.652344 322.214844 L 325.394531 322.214844 C 323.917969 322.214844 322.609375 321.25 322.199219 319.8125 L 315.261719 295.46875 C 314.761719 293.714844 315.773438 291.871094 317.535156 291.367188 C 317.832031 291.289062 318.136719 291.242188 318.445312 291.242188 Z M 185.46875 342.140625 C 176.925781 342.140625 170.011719 349.0625 170.011719 357.632812 C 170.011719 366.171875 176.925781 373.121094 185.46875 373.121094 C 194.011719 373.121094 200.9375 366.171875 200.9375 357.632812 C 200.9375 349.0625 194.011719 342.140625 185.46875 342.140625 Z M 306.980469 342.140625 C 298.4375 342.140625 291.515625 349.0625 291.515625 357.632812 C 291.515625 366.171875 298.4375 373.121094 306.980469 373.121094 C 315.523438 373.121094 322.449219 366.171875 322.449219 357.632812 C 322.449219 349.0625 315.523438 342.140625 306.980469 342.140625 Z M 306.980469 342.140625 "/>
<path style=" stroke:none;fill-rule:nonzero;fill:rgb(75.686275%,7.058824%,10.980392%);fill-opacity:1;" d="M 249.542969 5.71875 C 254.789062 5.679688 260.554688 8.367188 263.375 13.394531 L 491.144531 408.648438 C 492.460938 411.339844 493.011719 413.679688 493.027344 416.355469 C 493.027344 421.148438 490.910156 425.695312 487.25 428.777344 C 484.023438 431.28125 480.964844 432.582031 476.851562 432.582031 L 21.8125 432.582031 C 19.035156 432.609375 16.253906 431.941406 13.726562 430.273438 C 8.976562 427.398438 6.066406 422.246094 6.0625 416.683594 C 6.195312 413.808594 6.902344 410.78125 8.179688 408.648438 L 235.820312 13.328125 C 235.839844 13.292969 235.863281 13.257812 235.886719 13.226562 C 235.910156 13.191406 235.929688 13.15625 235.953125 13.117188 C 236.761719 11.824219 237.777344 10.679688 238.929688 9.699219 C 241.574219 7.40625 244.882812 6.03125 248.375 5.78125 C 248.765625 5.746094 249.15625 5.722656 249.542969 5.71875 Z M 476.851562 432.582031 L 477.972656 432.582031 L 476.828125 432.582031 Z M 249.78125 84.058594 L 76.203125 385.378906 L 423.601562 385.378906 Z M 249.78125 84.058594 "/>
<path style=" stroke:none;fill-rule:nonzero;fill:rgb(0%,0%,0%);fill-opacity:1;" d="M 249.542969 0 C 255.152344 0 260.761719 2.144531 265.035156 6.429688 C 266.441406 7.832031 267.609375 9.382812 268.550781 11.027344 L 279.695312 30.171875 L 279.746094 30.171875 L 495.675781 405.03125 C 495.722656 405.117188 495.757812 405.191406 495.792969 405.253906 C 496.902344 407.039062 497.769531 409.015625 498.34375 411.148438 C 501.472656 422.855469 494.535156 434.890625 482.847656 438.027344 C 480.917969 438.546875 478.976562 438.785156 477.074219 438.777344 L 21.914062 438.777344 C 9.816406 438.777344 0 428.945312 0 416.828125 C 0 412.863281 1.058594 409.144531 2.898438 405.933594 C 2.90625 405.917969 2.917969 405.894531 2.933594 405.859375 L 227.074219 16.121094 C 229.925781 11.203125 231.269531 9.214844 234.046875 6.429688 C 238.324219 2.144531 243.933594 0 249.539062 0 Z M 249.542969 0.292969 C 244.011719 0.292969 238.480469 2.410156 234.257812 6.636719 C 231.496094 9.402344 230.179688 11.351562 227.332031 16.265625 L 3.191406 406.003906 C 3.179688 406.03125 3.167969 406.054688 3.152344 406.078125 C 1.335938 409.246094 0.296875 412.917969 0.296875 416.828125 C 0.296875 428.789062 9.972656 438.480469 21.914062 438.480469 L 477.074219 438.480469 C 478.953125 438.488281 480.867188 438.257812 482.769531 437.742188 C 494.304688 434.648438 501.148438 422.777344 498.058594 411.226562 C 497.492188 409.113281 496.632812 407.160156 495.535156 405.394531 C 495.496094 405.320312 495.464844 405.25 495.421875 405.179688 L 279.578125 30.464844 L 279.523438 30.464844 L 268.296875 11.171875 C 267.367188 9.550781 266.214844 8.019531 264.832031 6.636719 C 260.609375 2.410156 255.078125 0.292969 249.542969 0.292969 Z M 249.542969 0.292969 "/>
</g>
</svg>
