<?xml version="1.0" encoding="UTF-8"?>
<svg xmlns="http://www.w3.org/2000/svg" xmlns:xlink="http://www.w3.org/1999/xlink" width="499pt" height="439pt" viewBox="0 0 499 439" version="1.1">
<g id="surface1">
<path style=" stroke:none;fill-rule:nonzero;fill:rgb(100%,100%,100%);fill-opacity:1;" d="M 249.542969 0.292969 C 255.074219 0.292969 260.609375 2.410156 264.832031 6.636719 C 266.214844 8.019531 267.367188 9.550781 268.296875 11.171875 L 279.523438 30.464844 L 279.578125 30.464844 L 495.421875 405.179688 C 495.464844 405.25 495.496094 405.320312 495.535156 405.394531 C 496.632812 407.160156 497.492188 409.113281 498.058594 411.226562 C 501.148438 422.777344 494.304688 434.648438 482.769531 437.742188 C 480.867188 438.257812 478.953125 438.488281 477.074219 438.480469 L 21.914062 438.480469 C 9.972656 438.480469 0.296875 428.789062 0.296875 416.828125 C 0.296875 412.917969 1.335938 409.246094 3.152344 406.078125 C 3.167969 406.054688 3.179688 406.03125 3.191406 406.003906 L 227.332031 16.265625 C 230.179688 11.351562 231.496094 9.402344 234.257812 6.636719 C 238.480469 2.410156 244.011719 0.292969 249.542969 0.292969 Z M 249.542969 0.292969 "/>
<path style=" stroke:none;fill-rule:nonzero;fill:rgb(75.686275%,7.058824%,10.980392%);fill-opacity:1;" d="M 249.542969 5.71875 C 254.789062 5.679688 260.554688 8.367188 263.375 13.394531 L 491.144531 408.648438 C 492.460938 411.339844 493.011719 413.679688 493.027344 416.355469 C 493.027344 421.148438 490.910156 425.695312 487.25 428.777344 C 484.023438 431.28125 480.964844 432.582031 476.851562 432.582031 L 21.8125 432.582031 C 19.035156 432.609375 16.253906 431.941406 13.726562 430.273438 C 8.976562 427.398438 6.066406 422.246094 6.0625 416.683594 C 6.195312 413.808594 6.902344 410.78125 8.179688 408.648438 L 235.820312 13.328125 C 235.839844 13.292969 235.863281 13.257812 235.886719 13.226562 C 235.910156 13.191406 235.929688 13.15625 235.953125 13.117188 C 236.761719 11.824219 237.777344 10.679688 238.929688 9.699219 C 241.574219 7.40625 244.882812 6.03125 248.375 5.78125 C 248.765625 5.746094 249.15625 5.722656 249.542969 5.71875 Z M 476.851562 432.582031 L 477.972656 432.582031 L 476.828125 432.582031 Z M 249.78125 84.058594 L 76.203125 385.378906 L 423.601562 385.378906 Z M 249.78125 84.058594 "/>
<path style=" stroke:none;fill-rule:nonzero;fill:rgb(0%,0%,0%);fill-opacity:1;" d="M 249.542969 0 C 255.152344 0 260.761719 2.144531 265.035156 6.429688 C 266.441406 7.832031 267.609375 9.382812 268.550781 11.027344 L 279.695312 30.171875 L 279.746094 30.171875 L 495.675781 405.03125 C 495.722656 405.117188 495.757812 405.191406 495.792969 405.253906 C 496.902344 407.039062 497.769531 409.015625 498.34375 411.148438 C 501.472656 422.855469 494.535156 434.890625 482.847656 438.027344 C 480.917969 438.546875 478.976562 438.785156 477.074219 438.777344 L 21.914062 438.777344 C 9.816406 438.777344 0 428.945312 0 416.828125 C 0 412.863281 1.058594 409.144531 2.898438 405.933594 C 2.90625 405.917969 2.917969 405.894531 2.933594 405.859375 L 227.074219 16.121094 C 229.925781 11.203125 231.269531 9.214844 234.046875 6.429688 C 238.324219 2.144531 243.933594 0 249.539062 0 Z M 249.542969 0.292969 C 244.011719 0.292969 238.480469 2.410156 234.257812 6.636719 C 231.496094 9.402344 230.179688 11.351562 227.332031 16.265625 L 3.191406 406.003906 C 3.179688 406.03125 3.167969 406.054688 3.152344 406.078125 C 1.335938 409.246094 0.296875 412.917969 0.296875 416.828125 C 0.296875 428.789062 9.972656 438.480469 21.914062 438.480469 L 477.074219 438.480469 C 478.953125 438.488281 480.867188 438.257812 482.769531 437.742188 C 494.304688 434.648438 501.148438 422.777344 498.058594 411.226562 C 497.492188 409.113281 496.632812 407.160156 495.535156 405.394531 C 495.496094 405.320312 495.464844 405.25 495.421875 405.179688 L 279.578125 30.464844 L 279.523438 30.464844 L 268.296875 11.171875 C 267.367188 9.550781 266.214844 8.019531 264.832031 6.636719 C 260.609375 2.410156 255.078125 0.292969 249.542969 0.292969 Z M 249.542969 0.292969 "/>
<path style=" stroke:none;fill-rule:evenodd;fill:rgb(0%,0%,0%);fill-opacity:1;" d="M 189.316406 228.507812 C 185.464844 228.507812 183.570312 231.664062 181.996094 234.894531 C 175.578125 250.355469 169.105469 265.792969 166.753906 282.667969 C 166.265625 297.480469 165.539062 312.160156 165.734375 327.308594 C 165.734375 336.265625 176.15625 350.019531 184.898438 350.019531 L 370.191406 350.019531 C 371.394531 350.019531 373 348.621094 373 347.488281 L 372.921875 318.726562 C 329.289062 310.714844 291.210938 288.003906 271.941406 240.488281 C 269.164062 233.359375 262.570312 231.261719 256.464844 228.507812 Z M 188.785156 238.460938 L 253.675781 238.460938 C 257.890625 238.460938 261.609375 254.402344 264.664062 262.566406 C 265.625 265.210938 264.863281 269.460938 262.816406 269.460938 L 178.40625 269.460938 C 176.460938 269.460938 175.660156 265.984375 176.472656 262.765625 C 180.574219 254.664062 185.269531 238.460938 188.785156 238.460938 Z M 279.171875 273.503906 C 283.917969 278.113281 289.007812 284.4375 293.410156 287.335938 L 293.410156 315.429688 L 280.578125 309.523438 C 279.355469 297.675781 279.242188 285.589844 279.171875 273.503906 Z M 300.753906 293.890625 C 306.0625 298.414062 308.253906 299.296875 312.847656 302.660156 L 313.035156 324.277344 L 300.757812 319.128906 C 300.472656 307.269531 300.835938 305.984375 300.753906 293.890625 Z M 186.042969 302.105469 C 190.300781 302.105469 193.75 305.566406 193.75 309.828125 C 193.75 314.09375 190.300781 317.550781 186.042969 317.550781 C 181.777344 317.550781 178.335938 314.09375 178.335938 309.828125 C 178.335938 305.566406 181.777344 302.105469 186.042969 302.105469 Z M 249.710938 302.105469 C 253.964844 302.105469 257.410156 305.566406 257.410156 309.828125 C 257.410156 314.09375 253.964844 317.550781 249.710938 317.550781 C 245.445312 317.550781 242 314.09375 242 309.828125 C 242 305.566406 245.445312 302.105469 249.710938 302.105469 Z M 319.179688 306.5 L 331.167969 311.40625 L 331.167969 329.175781 C 326.769531 328.691406 322.695312 327.691406 319.179688 325.796875 Z M 336.132812 313.792969 L 345.667969 316.25 L 345.667969 332.363281 C 342.414062 332.21875 339.207031 331.832031 336.132812 330.632812 Z M 350.566406 317.90625 L 358.382812 319.425781 L 358.382812 333.957031 C 355.675781 334.125 353.089844 333.730469 350.566406 333.023438 Z M 362.550781 320.222656 L 368.824219 321.082031 L 368.824219 335.613281 L 362.550781 334.550781 Z M 362.550781 320.222656 "/>
<path style=" stroke:none;fill-rule:evenodd;fill:rgb(0%,0%,0%);fill-opacity:1;" d="M 197.242188 207.425781 C 194.707031 207.425781 194.785156 212.351562 197.242188 212.351562 L 208.15625 212.351562 C 217.386719 216.089844 222.839844 221.402344 225.378906 228.542969 L 229.566406 228.542969 L 229.566406 228.519531 L 233.707031 228.519531 C 236.25 221.375 241.699219 216.089844 250.929688 212.351562 L 261.597656 212.351562 C 264.230469 212.351562 263.828125 207.425781 261.597656 207.425781 Z M 219.449219 212.351562 L 239.578125 212.351562 C 235.242188 216.015625 230.542969 219.738281 230.542969 225.453125 L 228.535156 225.453125 C 228.535156 219.71875 223.804688 216.027344 219.449219 212.351562 Z M 219.449219 212.351562 "/>
<path style=" stroke:none;fill-rule:evenodd;fill:rgb(0%,0%,0%);fill-opacity:1;" d="M 165.742188 362.035156 L 181.75 362.035156 L 181.75 354.003906 L 205.875 354.003906 L 205.875 361.933594 L 241.21875 361.933594 L 241.21875 353.980469 L 373 353.980469 L 373 362.054688 C 335.882812 363.417969 298.042969 364.480469 278.390625 373.34375 L 165.71875 373.34375 Z M 165.742188 362.035156 "/>
</g>
</svg>
